<?xml version="1.0" encoding="UTF-8" standalone="no"?>
<!-- Created with Inkscape (http://www.inkscape.org/) -->

<svg
   xmlns:dc="http://purl.org/dc/elements/1.1/"
   xmlns:cc="http://creativecommons.org/ns#"
   xmlns:rdf="http://www.w3.org/1999/02/22-rdf-syntax-ns#"
   xmlns:svg="http://www.w3.org/2000/svg"
   xmlns="http://www.w3.org/2000/svg"
   xmlns:sodipodi="http://sodipodi.sourceforge.net/DTD/sodipodi-0.dtd"
   xmlns:inkscape="http://www.inkscape.org/namespaces/inkscape"
   id="svg2"
   version="1.1"
   inkscape:version="0.91 r13725"
   xml:space="preserve"
   width="744.09497"
   height="1052.3625"
   viewBox="0 0 744.09497 1052.3625"
   sodipodi:docname="Yateley Logo Straight.svg"><metadata
     id="metadata8"><rdf:RDF><cc:Work
         rdf:about=""><dc:format>image/svg+xml</dc:format><dc:type
           rdf:resource="http://purl.org/dc/dcmitype/StillImage" /><dc:title /></cc:Work></rdf:RDF></metadata><defs
     id="defs6"><clipPath
       clipPathUnits="userSpaceOnUse"
       id="clipPath16"><path
         d="m 0,841.89 595.276,0 L 595.276,0 0,0 0,841.89 Z"
         id="path18"
         inkscape:connector-curvature="0" /></clipPath></defs><sodipodi:namedview
     pagecolor="#ffffff"
     bordercolor="#666666"
     borderopacity="1"
     objecttolerance="10"
     gridtolerance="10"
     guidetolerance="10"
     inkscape:pageopacity="0"
     inkscape:pageshadow="2"
     inkscape:window-width="1167"
     inkscape:window-height="630"
     id="namedview4"
     showgrid="false"
     inkscape:zoom="0.44851463"
     inkscape:cx="-11.664233"
     inkscape:cy="471.41833"
     inkscape:window-x="0"
     inkscape:window-y="92"
     inkscape:window-maximized="0"
     inkscape:current-layer="g14" /><g
     id="g10"
     inkscape:groupmode="layer"
     inkscape:label="Yateley Logo Straight"
     transform="matrix(1.25,0,0,-1.25,0,1052.3625)"><g
       id="g12"><g
         id="g14"
         clip-path="url(#clipPath16)"><g
           id="g20"
           transform="translate(396.8698,243.8278)"
           inkscape:export-xdpi="99.427238"
           inkscape:export-ydpi="99.427238"><path
             d="m 0,0 2.475,-5.019 c 0,0 1.915,-2.418 5.39,-0.704 l 15.053,7.422 c 0,0 2.701,1.332 0.986,4.811 l -2.093,4.245 c 0,0 -1.474,2.989 -4.463,1.516 L 1.81,4.609 C 1.81,4.609 -1.141,2.315 0,0 Z"
             style="fill:none;stroke:#000000;stroke-width:1.29299998;stroke-linecap:round;stroke-linejoin:round;stroke-miterlimit:4;stroke-dasharray:none;stroke-opacity:1"
             id="path22"
             inkscape:connector-curvature="0" /></g><g
           id="g24"
           transform="translate(288.567,782.5455)"
           inkscape:export-xdpi="99.427238"
           inkscape:export-ydpi="99.427238"><path
             d="m 0,0 c -13.711,-7.636 -26.473,-16.231 -38.471,-24.966 -70.652,-51.393 -122.766,-118.441 -152.306,-209.92 -11.851,-36.766 -19.529,-77.486 -20.648,-123.987 -1.161,-48.267 6.2,-90.486 19.217,-125.802 13.11,-35.596 28.981,-67.893 47.661,-97.576 13.974,-22.137 30.179,-42.589 47.787,-60.966 5.887,-6.172 12.035,-12.126 17.874,-18.431 11.679,-12.535 25.143,-23.261 39.12,-33.41 13.975,-10.158 29.402,-19.161 45.247,-27.156 0.178,-0.069 0.332,-0.354 0.56,-0.399 1.116,-0.185 4.107,2.189 5.667,3.189 13.168,8.441 25.613,17.022 37.684,26.158 27.905,21.174 54.035,43.528 76.577,69.377 11.273,12.942 21.37,27.277 31.161,41.859 19.62,29.114 37.351,60.017 49.882,95.945 12.481,35.949 19.12,78.164 20.105,125.558 0.979,48.804 -7.812,89.395 -19.517,126.876 -11.615,37.199 -26.376,71.216 -45.701,100.602 -9.54,14.549 -20.531,28.043 -31.83,41.096 -11.368,13.099 -23.072,25.885 -35.957,37.098 C 68.056,-32.169 38.616,-13.299 6.316,3.343 4.684,2.478 2.209,1.248 0,0 m 6.175,10.995 c 0.112,0 0.269,0 0.382,0.002 32.161,-16.657 62.027,-34.943 88.308,-57.381 13.085,-11.17 24.563,-23.842 36.357,-36.584 11.721,-12.672 22.559,-26.389 32.385,-40.566 19.997,-28.896 35.199,-61.811 47.507,-98.496 12.309,-36.694 21.472,-76.746 22.788,-123.404 0.021,-5.503 0.041,-11.016 0.063,-16.51 -1.136,-48.49 -8.199,-90.929 -21.035,-127.665 -12.835,-36.67 -31.17,-68.459 -50.992,-97.813 -10.099,-14.962 -20.468,-29.273 -32.12,-42.391 -34.77,-39.335 -77.239,-71.719 -122.83,-100.716 -0.112,10e-4 -0.159,-0.002 -0.27,-10e-4 -32.003,15.675 -61.92,35.626 -86.105,59.627 -24.293,24.159 -47.25,48.835 -66.17,77.822 -4.816,7.386 -9.431,14.661 -13.845,22.282 -13.193,22.792 -24.515,46.954 -35.124,73.029 -13.958,34.384 -22.517,74.272 -23.856,120.505 -0.024,5.627 -0.044,11.275 -0.063,16.914 0.135,0.02 0.156,0.088 0.153,0.256 1.054,47.764 8.899,89.782 21.017,127.421 18.307,56.665 44.885,103.483 79.409,143.889 34.339,40.195 75.597,73.95 124.041,99.78"
             style="fill:#002e4f;fill-opacity:1;fill-rule:evenodd;stroke:none"
             id="path26"
             inkscape:connector-curvature="0" /></g><g
           id="g28"
           transform="translate(192.948,636.9025)"
           inkscape:export-xdpi="99.427238"
           inkscape:export-ydpi="99.427238"><path
             d="m 0,0 c -0.021,0 -0.068,0 -0.109,0 -18.691,-26.703 -33.877,-56.825 -45.225,-90.78 -10.86,-33.014 -18.732,-69.606 -20.453,-111.568 -1.825,-43.448 3.763,-83.537 14.804,-116.581 5.497,-16.252 12.043,-31.999 18.969,-47.083 6.948,-15.117 14.518,-29.561 22.89,-43.099 16.836,-27.292 37.327,-50.984 59.062,-72.689 15.466,-14.604 32.985,-27.202 52.42,-37.855 15.015,10.326 29.249,21.45 42.846,33.225 24.398,20.906 47.37,44.524 65.313,72.859 8.805,13.859 17.789,28.243 25.494,43.684 7.637,15.397 15.294,31.355 20.506,48.419 5.353,17.445 9.845,36.22 12.363,56.72 2.492,20.399 3.91,41.69 3.733,64.874 -0.377,41.306 -9.598,77.891 -19.744,110.344 -0.677,2.212 -1.627,4.49 -2.237,6.469 -10.616,32.238 -24.883,60.874 -43.386,85.165 -0.001,0.133 -0.042,0.234 -0.131,0.256 C 192.837,21.286 178.203,39.585 160.428,54.887 142.677,70.142 123.275,83.682 102.024,95.49 60.758,70.841 27.347,38.444 0,0 m 102.001,101.553 c 26.63,-14.196 49.871,-31.521 71.108,-50.97 10.547,-9.624 19.586,-21.155 28.687,-32.518 9.102,-11.43 17.605,-23.23 25.21,-35.829 15.287,-25.343 26.693,-54.785 35.851,-86.527 4.623,-15.91 8.379,-32.46 11.104,-50.008 2.891,-17.943 3.99,-36.973 4.064,-57.186 0.075,-19.887 -1.752,-39.007 -4.079,-56.812 -7.201,-53.848 -26.416,-94.991 -49.557,-133.211 -7.695,-12.632 -15.745,-25.133 -24.583,-36.531 -17.696,-22.753 -38.786,-42.315 -61.197,-60.855 -5.511,-4.548 -11.169,-9.281 -16.995,-13.539 -5.956,-4.361 -11.753,-8.994 -17.782,-12.755 -0.4,-0.245 -0.893,-0.646 -1.292,-0.541 -26.446,13.759 -49.293,31.606 -68.789,52.981 -9.655,10.635 -19.361,21.294 -28.132,32.79 -17.534,23.076 -32.28,48.453 -44.939,76.971 -3.111,7.047 -6.025,14.307 -8.893,21.623 -2.915,7.281 -5.939,14.606 -8.316,22.159 -9.65,31 -15.553,66.781 -14.9,106.939 0.61,39.371 6.79,73.987 15.707,105.723 17.7,63.059 48.378,113.686 88.849,154.473 10.03,10.127 20.594,19.818 32.102,28.777 11.379,8.879 23.962,17.941 36.772,24.846"
             style="fill:#ee4035;fill-opacity:1;fill-rule:evenodd;stroke:none"
             id="path30"
             inkscape:connector-curvature="0" /></g><g
           id="g32"
           transform="translate(265.1579,689.8676)"
           inkscape:export-xdpi="99.427238"
           inkscape:export-ydpi="99.427238"><path
             d="m 0,0 c -1.529,1.772 -2.946,3.869 -4.536,5.284 -0.318,0.269 -1.304,0.88 -1.728,1.035 -5.89,2.248 -9.576,-5.451 -5.628,-9.004 -6.438,-6.289 -12.858,-12.551 -19.076,-19.088 3.283,-3.699 6.206,-7.816 9.53,-11.448 1.9,0.308 4.003,0.449 6.08,0.537 0.58,1.344 0.975,2.8 1.465,4.245 -1.218,1.941 -2.389,3.84 -3.58,5.802 1.05,0.695 1.853,1.238 3.143,2.115 0.318,0.213 2.813,2.302 3.172,2.27 0.179,-0.042 0.899,-1.238 1.324,-1.728 2.63,-3.089 4.829,-5.529 7.281,-8.416 1.054,-1.239 2.359,-2.553 2.81,-3.569 0.542,-1.228 0.59,-3.208 1.089,-4.08 -1.07,-0.775 -2.031,-1.605 -3.213,-2.26 -2.823,0.561 -4.66,2.087 -6.881,3.275 -1.672,-1.618 -3.678,-2.901 -5.396,-4.505 2.273,-3.247 4.476,-6.56 6.684,-9.874 1.652,-0.027 3.31,-0.099 4.875,-0.261 5.932,5.3 11.636,10.948 17.654,16.183 3.104,-3.803 6.47,-7.313 9.507,-11.194 -1.827,-2.154 -3.452,-4.509 -5.634,-6.362 -2.466,0.338 -5.217,0.404 -7.787,0.629 -1.872,-2.389 -0.866,-7.641 -1.3,-11.49 -0.958,-1.122 -1.779,-2.447 -3.029,-3.3 -6.366,3.387 -15.219,1.765 -20.063,-1.406 -4.974,-3.253 -8.979,-8.736 -9.448,-15.895 -0.843,-13.471 9.479,-22.426 20.801,-22.382 11.275,0.042 20.054,8.665 20.686,19.382 0.337,5.94 -1.424,9.512 -3.587,13.332 2.096,2.612 4.299,5.16 6.527,7.674 1.123,-1.316 4.183,-0.655 6.223,-1.039 -0.008,1.933 -0.126,3.746 -0.29,5.536 -0.339,0.402 -1.054,0.464 -1.326,0.935 1.852,2.053 3.455,4.372 5.527,6.228 1.686,-2.209 3.683,-4.091 5.301,-6.322 -0.512,-0.305 -1.16,-0.509 -1.427,-1.057 0.056,-1.9 -0.208,-3.38 -0.112,-5.291 2.147,0.321 5.102,-0.15 6.303,1.086 2.045,-2.72 4.56,-4.992 6.52,-7.76 -2.403,-3.69 -3.977,-7.676 -3.529,-13.624 0.846,-10.724 9.824,-18.912 20.96,-18.823 11.902,0.123 21.438,9.934 20.545,22.412 -1.015,13.754 -15.837,23.607 -29.95,17.045 -0.523,1.476 -2.245,1.828 -2.768,3.568 -1.107,3.597 1.02,8.865 -1.386,11.348 -2.661,-0.223 -5.434,-0.38 -8.027,-0.69 -1.349,1.549 -2.828,3.098 -4.245,4.748 -0.2,0.211 -1.348,1.505 -1.348,1.719 0.02,0.222 2.047,2.398 2.383,2.759 2.471,2.94 5.1,5.789 7.348,8.36 4.132,-3.843 8.868,-8.051 13.246,-12.105 1.12,-1.016 3.277,-3.692 4.531,-3.945 1.343,-0.263 3.267,0.604 4.612,0.299 2.354,3.251 4.536,6.66 6.713,10.058 -2.015,1.335 -3.681,3.015 -5.674,4.328 -2.009,-1.372 -3.995,-2.745 -6.766,-3.326 -1.03,0.737 -2.107,1.414 -3.052,2.238 0.402,1.366 0.774,2.764 1.082,4.231 2.359,3.019 5.701,6.858 8.526,10.199 0.447,0.539 2.294,3.42 2.899,3.457 0.156,-0.001 1.188,-1.001 1.458,-1.205 1.684,-1.165 3.387,-2.077 4.644,-3.268 -0.533,-0.876 -1.046,-1.837 -1.737,-2.914 -0.534,-0.876 -1.645,-2.032 -1.689,-2.914 -0.126,-1.343 1.131,-2.637 1.448,-4.101 2.194,-0.058 4.23,-0.252 6.223,-0.492 3.117,3.815 6.12,7.776 9.328,11.522 -6.223,6.543 -12.889,12.637 -19.244,19.076 4.862,4.716 -2.193,12.24 -7.277,7.903 C 66.176,4.355 64.775,2.179 63.26,0.385 53.015,-11.747 41.392,-25.122 31.568,-36.466 22.197,-25.417 9.934,-11.595 0,0 M 135.036,-50.862 C 99.086,-91.096 63.2,-131.44 27.044,-171.475 c -32.941,39.617 -66.156,79.041 -99.254,118.51 27.347,38.444 60.758,70.841 102.024,95.49 21.251,-11.808 40.653,-25.348 58.404,-40.603 17.775,-15.302 32.409,-33.601 46.687,-52.527 0.089,-0.022 0.13,-0.123 0.131,-0.257"
             style="fill:#002e4f;fill-opacity:1;fill-rule:evenodd;stroke:none"
             id="path34"
             inkscape:connector-curvature="0" /></g><g
           id="g36"
           transform="translate(322.7753,614.678)"
           inkscape:export-xdpi="99.427238"
           inkscape:export-ydpi="99.427238"><path
             d="m 0,0 c -1.982,-1.854 -3.405,-3.905 -3.659,-7.677 -0.577,-7.351 5.329,-13.478 13.242,-12.634 5.326,0.568 10.319,5.129 10.246,11.795 C 19.759,-1.313 13.9,3.91 6.321,2.907 3.592,2.564 1.448,1.38 0,0 m -64.719,1.723 c -3.485,-1.657 -6.514,-5.058 -6.583,-10.328 -0.12,-4.417 2.269,-8.29 5.45,-10.279 8.658,-5.446 18.382,1.858 18.058,10.515 -0.144,3.043 -1.903,6.335 -3.316,7.761 -2.244,2.24 -5.829,3.848 -10.193,3.261 -1.452,-0.173 -2.523,-0.456 -3.416,-0.93 m 38.67,37.001 c 9.824,11.344 21.446,24.718 31.692,36.85 1.515,1.795 2.916,3.971 4.454,5.296 5.084,4.336 12.139,-3.187 7.277,-7.903 6.356,-6.44 13.021,-12.534 19.245,-19.076 -3.209,-3.746 -6.211,-7.708 -9.328,-11.522 -1.994,0.24 -4.029,0.433 -6.223,0.492 -0.318,1.463 -1.574,2.757 -1.448,4.101 0.044,0.881 1.155,2.038 1.689,2.913 0.691,1.077 1.204,2.038 1.736,2.914 -1.256,1.192 -2.96,2.103 -4.644,3.269 -0.269,0.204 -1.302,1.204 -1.457,1.205 C 16.338,57.226 14.492,54.344 14.045,53.806 11.22,50.464 7.878,46.626 5.519,43.607 5.21,42.14 4.838,40.741 4.436,39.376 c 0.946,-0.825 2.023,-1.502 3.052,-2.238 2.772,0.58 4.758,1.954 6.767,3.326 1.993,-1.313 3.659,-2.993 5.673,-4.329 -2.176,-3.398 -4.359,-6.807 -6.713,-10.058 -1.344,0.306 -3.268,-0.561 -4.611,-0.298 -1.254,0.253 -3.411,2.928 -4.531,3.944 -4.379,4.054 -9.115,8.263 -13.247,12.106 -2.248,-2.571 -4.876,-5.42 -7.347,-8.36 -0.336,-0.362 -2.364,-2.537 -2.383,-2.76 0,-0.214 1.147,-1.507 1.348,-1.718 1.416,-1.65 2.896,-3.2 4.245,-4.748 2.592,0.31 5.366,0.467 8.027,0.689 2.405,-2.483 0.278,-7.751 1.386,-11.348 0.523,-1.74 2.245,-2.092 2.767,-3.567 14.114,6.562 28.936,-3.291 29.951,-17.045 0.893,-12.478 -8.643,-22.29 -20.545,-22.413 -11.137,-0.088 -20.114,8.1 -20.96,18.823 -0.448,5.948 1.126,9.934 3.528,13.625 -1.959,2.768 -4.474,5.04 -6.519,7.76 -1.202,-1.236 -4.156,-0.766 -6.303,-1.086 -0.096,1.911 0.168,3.391 0.111,5.29 0.268,0.549 0.916,0.753 1.428,1.057 -1.619,2.232 -3.615,4.114 -5.301,6.322 -2.073,-1.855 -3.676,-4.175 -5.527,-6.228 0.271,-0.47 0.986,-0.533 1.325,-0.934 0.165,-1.79 0.283,-3.603 0.29,-5.537 -2.039,0.384 -5.099,-0.277 -6.223,1.04 -2.227,-2.515 -4.43,-5.062 -6.527,-7.674 2.164,-3.82 3.924,-7.393 3.588,-13.332 -0.633,-10.717 -9.412,-19.34 -20.686,-19.382 -11.322,-0.044 -21.645,8.91 -20.801,22.381 0.469,7.16 4.474,12.643 9.448,15.895 4.844,3.172 13.697,4.793 20.062,1.406 1.251,0.853 2.071,2.179 3.03,3.3 0.434,3.85 -0.572,9.102 1.299,11.49 2.571,-0.225 5.322,-0.29 7.788,-0.629 2.182,1.854 3.807,4.209 5.633,6.363 -3.037,3.88 -6.402,7.391 -9.506,11.193 -6.018,-5.234 -11.723,-10.882 -17.655,-16.183 -1.564,0.163 -3.223,0.235 -4.875,0.262 -2.208,3.313 -4.411,6.627 -6.683,9.873 1.718,1.605 3.723,2.888 5.395,4.505 2.222,-1.188 4.058,-2.714 6.882,-3.274 1.182,0.654 2.143,1.484 3.213,2.26 -0.499,0.872 -0.547,2.851 -1.089,4.079 -0.451,1.017 -1.756,2.33 -2.811,3.57 -2.451,2.887 -4.651,5.326 -7.28,8.415 -0.425,0.49 -1.146,1.686 -1.324,1.729 -0.36,0.031 -2.854,-2.058 -3.172,-2.271 -1.291,-0.877 -2.093,-1.419 -3.143,-2.114 1.19,-1.963 2.362,-3.861 3.579,-5.802 -0.489,-1.446 -0.884,-2.902 -1.464,-4.245 -2.077,-0.088 -4.18,-0.229 -6.081,-0.537 -3.324,3.632 -6.247,7.749 -9.529,11.448 6.218,6.536 12.637,12.799 19.076,19.088 -3.948,3.552 -0.262,11.252 5.628,9.003 0.424,-0.154 1.41,-0.766 1.728,-1.034 1.59,-1.415 3.007,-3.512 4.536,-5.284 9.933,-11.595 22.196,-25.418 31.568,-36.466"
             style="fill:#ffffff;fill-opacity:1;fill-rule:evenodd;stroke:none"
             id="path38"
             inkscape:connector-curvature="0" /></g><g
           id="g40"
           transform="translate(291.9959,502.1516)"
           inkscape:export-xdpi="99.427238"
           inkscape:export-ydpi="99.427238"><path
             d="m 0,0 c -32.72,39.068 -65.662,78.595 -98.467,117.452 -0.989,1.179 -1.799,2.678 -3.168,3.541 -13.993,-20.821 -25.132,-44.476 -34.609,-69.867 31.787,-42.326 64.157,-84.022 96.106,-126.171 0.283,-87.118 1.363,-177.767 1.693,-265.477 0.012,-2.896 -0.551,-6.713 0.034,-8.604 0.342,-1.205 3.37,-3.041 4.624,-4.083 11.511,-9.34 23.869,-17.65 36.645,-25.074 9.551,6.69 19.543,14.122 28.78,21.636 1.159,0.935 3.568,2.754 3.786,3.697 0.488,2.102 -0.021,5.568 -0.032,8.468 -0.325,86.201 -0.649,171.606 -0.973,257.571 -0.011,2.943 -0.471,6.263 -0.034,8.568 0.245,1.189 2.185,3.03 3.295,4.376 1.294,1.571 2.272,3.084 3.294,4.373 33.308,41.598 66.129,82.516 99.212,124.148 1.092,1.334 3.206,3.523 3.181,4.352 -0.023,0.972 -1.063,3.027 -1.605,4.366 -8.536,21.948 -18.593,42.901 -30.872,60.383 C 73.977,82.903 37.115,41.012 0,0 M 108.198,136.854 C 126.701,112.564 140.968,83.928 151.584,51.69 116.025,7.172 80.403,-37.266 44.959,-81.858 c 0.428,-89.916 0.548,-180.175 1.197,-269.821 -13.597,-11.775 -27.831,-22.899 -42.846,-33.225 -19.435,10.653 -36.954,23.251 -52.42,37.854 -0.303,85.966 -1.214,173.035 -1.541,259.683 -0.012,2.887 0.449,6.078 -0.03,8.312 -0.183,0.984 -1.826,2.823 -2.766,4.083 -30.263,39.848 -60.877,79.339 -90.935,118.943 11.348,33.955 26.534,64.076 45.225,90.78 0.041,0 0.088,-0.001 0.109,0 C -65.95,95.282 -32.735,55.858 0.206,16.241 36.362,56.276 72.248,96.62 108.198,136.854"
             style="fill:#ffffff;fill-opacity:1;fill-rule:evenodd;stroke:none"
             id="path42"
             inkscape:connector-curvature="0" /></g><g
           id="g44"
           transform="translate(402.8857,625.8069)"
           inkscape:export-xdpi="99.427238"
           inkscape:export-ydpi="99.427238"><path
             d="m 0,0 c 12.279,-17.482 22.337,-38.436 30.873,-60.383 0.542,-1.339 1.582,-3.394 1.605,-4.366 0.024,-0.83 -2.09,-3.018 -3.182,-4.352 -33.083,-41.632 -65.904,-82.55 -99.212,-124.148 -1.021,-1.289 -2,-2.803 -3.293,-4.374 -1.111,-1.345 -3.051,-3.186 -3.295,-4.375 -0.438,-2.305 0.022,-5.625 0.034,-8.569 0.324,-85.964 0.647,-171.369 0.972,-257.57 0.011,-2.9 0.52,-6.366 0.032,-8.468 -0.218,-0.943 -2.627,-2.762 -3.786,-3.697 -9.237,-7.514 -19.229,-14.947 -28.78,-21.636 -12.776,7.424 -25.133,15.733 -36.644,25.073 -1.255,1.043 -4.283,2.878 -4.624,4.084 -0.586,1.89 -0.023,5.708 -0.034,8.604 -0.331,87.71 -1.411,178.359 -1.694,265.477 -31.949,42.148 -64.318,83.845 -96.105,126.171 9.476,25.391 20.615,49.046 34.608,69.867 1.37,-0.864 2.179,-2.362 3.169,-3.541 32.805,-38.858 65.746,-78.384 98.466,-117.452 C -73.775,-82.643 -36.913,-40.752 0,0"
             style="fill:#ee4035;fill-opacity:1;fill-rule:evenodd;stroke:none"
             id="path46"
             inkscape:connector-curvature="0" /></g><g
           id="g48"
           transform="translate(261.4727,617.3309)"
           inkscape:export-xdpi="99.427238"
           inkscape:export-ydpi="99.427238"><path
             d="m 0,0 c 4.363,0.587 7.948,-1.021 10.193,-3.261 1.413,-1.426 3.171,-4.718 3.316,-7.761 0.323,-8.656 -9.4,-15.961 -18.058,-10.514 -3.181,1.989 -5.571,5.862 -5.45,10.278 0.068,5.27 3.097,8.671 6.583,10.328 C -2.523,-0.456 -1.452,-0.173 0,0"
             style="fill:#002e4f;fill-opacity:1;fill-rule:evenodd;stroke:none"
             id="path50"
             inkscape:connector-curvature="0" /></g><g
           id="g52"
           transform="translate(329.0965,617.5851)"
           inkscape:export-xdpi="99.427238"
           inkscape:export-ydpi="99.427238"><path
             d="m 0,0 c 7.579,1.003 13.438,-4.22 13.508,-11.423 0.073,-6.666 -4.92,-11.227 -10.246,-11.795 -7.913,-0.844 -13.819,5.283 -13.242,12.634 0.254,3.772 1.677,5.823 3.659,7.677 C -4.873,-1.527 -2.73,-0.343 0,0"
             style="fill:#002e4f;fill-opacity:1;fill-rule:evenodd;stroke:none"
             id="path54"
             inkscape:connector-curvature="0" /></g><g
           id="g56"
           transform="translate(396.3033,307.5934)"
           inkscape:export-xdpi="99.427238"
           inkscape:export-ydpi="99.427238"><path
             d="M 0,0 C 3.67,0.015 7.314,0.028 10.958,0.041 9.023,9.05 7.379,18.349 5.178,27.088 3.603,17.932 1.619,9.134 0,0 m 10.614,14.815 c 0.434,-1.999 0.532,-4.448 1.23,-5.933 0.427,-0.893 1.862,-1.683 2.938,-2.24 C 23.527,1.97 33.645,10.74 29.362,20.444 21.92,24.645 14.429,28.845 6.898,32.9 7.972,27.343 9.449,20.696 10.614,14.815 m -23.368,9.027 c -1.558,-0.889 -4.329,-1.961 -5.447,-3.052 -1.335,-1.402 -1.929,-4.213 -1.944,-6.214 0.018,-4.497 3.009,-8.242 5.989,-9.619 4.303,-2.031 11.319,-0.617 12.915,3.216 0.711,1.657 0.949,4.086 1.318,6.077 1.276,6.515 2.368,12.67 3.647,18.907 -0.048,0.077 -0.049,0.153 -0.179,0.131 -0.049,0 -0.137,-0.024 -0.137,-0.132 -5.044,-2.794 -10.914,-6.274 -16.162,-9.314 m 48.739,-3.896 c 0.97,3.594 2.163,6.93 3.272,10.436 -9.042,1.015 -18.667,2.154 -27.506,2.939 8.095,-4.445 16.075,-9.012 24.234,-13.375 m -64.911,10.313 c 1.219,-3.473 2.217,-7.263 3.595,-10.545 7.231,4.309 15.334,8.826 22.566,13.015 0.47,0.291 1.339,0.531 1.069,0.81 -9.032,-1.121 -18.065,-2.295 -27.23,-3.28 m 17.492,17.893 c -2.604,2.395 -4.09,4.994 -8.987,4.473 -7.024,-0.763 -12.271,-9.227 -7.859,-16.157 0.653,-1.059 1.847,-2.945 3.211,-3.153 0.784,-0.131 2.146,0.277 3.24,0.404 7.92,0.957 15.631,1.926 23.123,2.86 -3.93,3.945 -8.397,7.686 -12.728,11.573 m 43.919,-14.35 c 3.506,1.924 6.224,5.054 6.185,9.775 -0.07,5.907 -5.3,11.243 -11.134,10.538 -1.968,-0.252 -3.928,-3.033 -5.443,-4.38 -4.951,-4.55 -9.63,-8.727 -14.201,-13.253 8.261,-0.875 16.494,-1.739 24.593,-2.68 M 0.65,41.209 c -3.967,8.182 -7.757,16.523 -11.635,24.785 -3.103,-2.024 -6.027,-4.272 -8.925,-6.521 6.955,-5.903 13.67,-12.699 20.56,-18.264 m 8.321,0.03 c 6.598,6.332 13.507,12.355 19.995,18.82 -2.982,2.072 -5.813,4.309 -8.883,6.321 C 16.426,58.022 12.273,49.462 8.971,41.239 m 2.814,13.342 c 0.798,1.804 2.243,3.668 2.348,5.301 0.305,2.874 -1.766,5.999 -3.56,7.514 -4.177,3.608 -10.886,3.123 -14.54,-0.446 -0.803,-0.775 -2.538,-2.841 -2.491,-4.239 0.051,-0.66 0.861,-2.055 1.355,-3.036 3.36,-7.123 6.585,-14.191 9.832,-20.957 2.443,5.379 4.702,10.419 7.056,15.863 M -1.18,134.316 c 0.639,-3.476 1.456,-6.75 2.006,-10.295 -2.238,0.562 -4.43,1.168 -6.58,1.82 0.01,-2.639 0.021,-5.278 0.029,-7.927 0.669,0.069 1.005,0.371 1.833,0.275 1.033,-0.602 1.461,-1.796 1.313,-3.554 -1.474,-1.572 -3.69,-0.953 -5.368,-0.289 -1.726,0.665 -3.495,1.42 -5.154,1.95 -3.717,1.173 -7.797,2.767 -11.643,2.607 -4.426,-0.173 -7.866,-2.682 -7.778,-7.299 0.034,-4.061 1.838,-7.467 3.329,-10.683 2.976,-6.395 6.264,-12.379 11.67,-16.34 2.557,-1.835 6.303,-4.304 9.815,-4.303 3.689,-0.008 6.008,2.183 8.286,3.722 -1.594,1.292 -5.001,3.046 -4.631,5.532 0.349,2.08 3.888,2.049 6.212,2.529 -0.008,1.945 -0.013,3.869 -0.022,5.804 1.676,0.007 3.352,0.011 5.01,0.017 0.008,-1.934 0.016,-3.857 0.022,-5.804 2.439,-0.425 5.972,-0.437 6.184,-2.616 0.322,-2.716 -3.097,-3.903 -4.452,-5.71 2.778,-1.331 4.706,-3.483 8.355,-3.379 3.51,0.092 7.306,2.634 9.49,4.241 5.265,3.868 8.511,9.852 11.596,16.038 1.465,3.026 3.128,6.902 3.336,10.449 0.386,5.325 -3.293,7.92 -7.905,8.022 -3.709,0.066 -6.567,-1.253 -9.519,-2.149 -1.476,-0.429 -3.016,-0.783 -4.515,-1.336 -1.52,-0.578 -6.788,-3.539 -7.913,-0.826 -0.681,1.844 0.83,4.345 3.052,3.178 -0.08,2.606 0.156,5.559 -0.166,7.93 -2.032,-0.723 -4.265,-1.291 -6.5,-1.869 0.678,3.434 1.426,6.794 1.95,10.308 -3.779,-0.015 -7.536,-0.03 -11.342,-0.043 m 48.457,111.932 c 0.61,-1.979 1.56,-4.257 2.237,-6.469 C 59.659,207.326 68.88,170.741 69.257,129.435 69.435,106.251 68.017,84.96 65.525,64.561 63.006,44.061 58.514,25.286 53.162,7.841 47.949,-9.223 40.292,-25.181 32.656,-40.578 24.95,-56.019 15.966,-70.403 7.162,-84.262 c -17.943,-28.335 -40.915,-51.953 -65.314,-72.858 -0.648,89.645 -0.768,179.904 -1.197,269.82 35.444,44.593 71.066,89.031 106.626,133.548"
             style="fill:#002e4f;fill-opacity:1;fill-rule:evenodd;stroke:none"
             id="path58"
             inkscape:connector-curvature="0" /></g><g
           id="g60"
           transform="translate(226.0488,336.1318)"
           inkscape:export-xdpi="99.427238"
           inkscape:export-ydpi="99.427238"><path
             d="m 0,0 c 0.351,1.905 0.12,4.173 0.513,6.221 0.177,0.863 0.758,1.714 1.023,2.498 2.569,7.045 -0.391,14.45 -4.901,17.957 -1.255,0.977 -2.33,0.941 -3.723,2.097 -0.718,0.603 -1.211,1.642 -1.864,2.377 -3.976,4.436 -9.223,7.985 -15.225,10.098 -1.034,0.364 -2.239,0.45 -3.338,0.915 -0.652,0.302 -1.302,0.926 -1.951,1.3 -4.303,2.637 -10.796,3.127 -15.571,0.738 -1.656,-0.802 -2.944,-2.428 -4.641,-3.308 -3.393,-1.757 -6.788,-3.19 -9.87,-5.584 -3.073,-2.415 -5.39,-5.209 -7.527,-8.094 -7.864,-2.823 -11.984,-14.068 -7.431,-22.206 0.361,-0.637 0.989,-1.248 1.212,-1.986 0.522,-1.787 0.371,-3.677 0.805,-5.41 0.839,-3.464 1.97,-6.157 3.453,-8.969 0.723,-1.36 2.118,-2.799 2.391,-3.95 0.273,-1.151 0.186,-2.235 0.435,-3.173 1.933,-8.271 10.458,-14.559 21.046,-11.141 4.795,-1.302 10.678,-1.369 15.595,-0.477 1.633,0.296 3.241,1.14 4.604,1.201 1.232,0.072 2.282,-0.371 3.29,-0.367 1.254,-0.017 2.329,0.03 3.422,0.269 7.041,1.506 11.627,6.577 12.492,14.699 C -2.891,-10 -0.963,-5.696 0,0 m -78.435,209.991 c 30.058,-39.604 60.672,-79.095 90.935,-118.943 0.94,-1.26 2.583,-3.099 2.766,-4.083 0.479,-2.235 0.018,-5.426 0.03,-8.312 0.327,-86.648 1.238,-173.717 1.541,-259.683 -21.735,21.706 -42.226,45.398 -59.061,72.69 -8.373,13.537 -15.943,27.981 -22.891,43.099 -6.926,15.083 -13.472,30.831 -18.969,47.083 -11.041,33.044 -16.629,73.132 -14.804,116.581 1.721,41.962 9.593,78.554 20.453,111.568"
             style="fill:#002e4f;fill-opacity:1;fill-rule:evenodd;stroke:none"
             id="path62"
             inkscape:connector-curvature="0" /></g><g
           id="g64"
           transform="translate(375.4643,411.0531)"
           inkscape:export-xdpi="99.427238"
           inkscape:export-ydpi="99.427238"><path
             d="m 0,0 c 0.477,-1.644 3.589,-2.448 6.184,-2.616 7.363,-0.455 12.274,2.451 19.408,2.456 4.989,-0.005 8.553,-1.456 13.12,-2.066 C 43.099,-2.812 49.831,-2.74 50.961,0.193 51.977,2.87 48.83,6.639 46.705,7.314 44.798,7.92 42.385,7.209 40.597,6.763 39.038,6.355 37.428,6.047 35.749,5.816 32.598,5.381 28.952,4.594 25.442,4.581 22.043,4.569 18.393,5.181 15.149,5.616 11.747,6.039 8.162,7.648 5.342,7.291 2.548,6.925 -1.086,3.307 0,0 m 31.001,30.899 c -0.524,-3.514 -1.272,-6.873 -1.95,-10.308 2.235,0.579 4.468,1.146 6.5,1.869 0.322,-2.371 0.086,-5.324 0.166,-7.93 -2.222,1.167 -3.733,-1.334 -3.052,-3.177 1.125,-2.713 6.393,0.248 7.913,0.825 1.499,0.553 3.039,0.907 4.515,1.337 2.952,0.895 5.81,2.214 9.519,2.148 4.612,-0.102 8.291,-2.696 7.905,-8.021 -0.208,-3.548 -1.871,-7.424 -3.336,-10.45 -3.085,-6.185 -6.331,-12.17 -11.596,-16.037 -2.184,-1.608 -5.98,-4.15 -9.49,-4.242 -3.649,-0.104 -5.577,2.048 -8.355,3.379 1.355,1.807 4.774,2.994 4.452,5.71 -0.212,2.18 -3.745,2.191 -6.184,2.616 -0.006,1.947 -0.014,3.871 -0.022,5.804 -1.658,-0.005 -3.334,-0.01 -5.01,-0.017 0.009,-1.935 0.014,-3.858 0.022,-5.803 -2.324,-0.48 -5.863,-0.45 -6.212,-2.53 -0.37,-2.485 3.037,-4.239 4.631,-5.531 -2.278,-1.54 -4.597,-3.731 -8.286,-3.723 -3.512,-0.001 -7.258,2.468 -9.815,4.303 -5.406,3.961 -8.694,9.945 -11.67,16.341 -1.491,3.215 -3.295,6.621 -3.329,10.683 -0.088,4.617 3.352,7.125 7.778,7.298 3.846,0.161 7.927,-1.434 11.643,-2.607 1.659,-0.529 3.428,-1.285 5.154,-1.95 1.678,-0.663 3.894,-1.282 5.368,0.289 0.148,1.758 -0.28,2.952 -1.313,3.555 -0.828,0.096 -1.164,-0.207 -1.833,-0.276 -0.008,2.65 -0.019,5.289 -0.029,7.928 2.15,-0.652 4.342,-1.258 6.58,-1.82 -0.55,3.544 -1.367,6.818 -2.006,10.295 3.806,0.013 7.563,0.028 11.342,0.042"
             style="fill:#ffffff;fill-opacity:1;fill-rule:evenodd;stroke:none"
             id="path66"
             inkscape:connector-curvature="0" /></g><g
           id="g68"
           transform="translate(380.8061,418.3445)"
           inkscape:export-xdpi="99.427238"
           inkscape:export-ydpi="99.427238"><path
             d="m 0,0 c 2.82,0.357 6.405,-1.253 9.807,-1.676 3.244,-0.434 6.894,-1.046 10.293,-1.034 3.511,0.013 7.156,0.8 10.307,1.234 1.679,0.231 3.289,0.539 4.849,0.948 1.788,0.445 4.201,1.156 6.107,0.551 2.125,-0.676 5.272,-4.444 4.256,-7.122 -1.13,-2.932 -7.862,-3.004 -12.249,-2.419 -4.567,0.61 -8.131,2.062 -13.12,2.067 C 13.116,-7.456 8.205,-10.362 0.842,-9.907 -1.753,-9.739 -4.865,-8.935 -5.342,-7.291 -6.427,-3.984 -2.794,-0.367 0,0"
             style="fill:#002e4f;fill-opacity:1;fill-rule:evenodd;stroke:none"
             id="path70"
             inkscape:connector-curvature="0" /></g><g
           id="g72"
           transform="translate(187.6969,380.7701)"
           inkscape:export-xdpi="99.427238"
           inkscape:export-ydpi="99.427238"><path
             d="m 0,0 c -8.769,-0.301 -14.8,-8.097 -13.921,-16.448 0.051,-0.571 1.132,-2.705 0.528,-3.276 -0.513,-0.537 -2.618,0.987 -3.424,1.297 -10.534,4.166 -20.722,-4.429 -20.037,-14.472 0.521,-7.345 6.044,-13.108 13.384,-13.55 1.122,-0.085 2.193,0.232 3.066,-0.122 0.026,-0.984 -1.045,-1.415 -1.581,-1.865 -2.812,-2.492 -5.144,-6.372 -5.105,-11.112 0.077,-7.842 6.386,-14.53 14.686,-14.463 7.159,0.049 12.105,4.766 13.696,10.074 0.224,0.704 0.039,2.013 1.064,2.397 0.628,-0.065 0.587,-0.893 0.678,-1.193 1.809,-5.004 6.164,-9.406 12.34,-9.865 9.445,-0.682 16.129,6.158 16.05,14.724 -0.061,4.35 -1.998,7.888 -4.265,10.151 -1.147,1.115 -2.581,1.568 -3.299,2.639 9.014,0.079 15.28,5.235 15.784,13.782 0.756,13.035 -15.109,19.775 -23.978,11.934 -0.623,-0.528 -0.977,-1.525 -1.961,-1.73 C 18.247,-9.928 10.713,0.354 0,0 m 32.59,-58.933 c -0.864,-8.122 -5.45,-13.194 -12.491,-14.699 -1.093,-0.239 -2.168,-0.286 -3.422,-0.27 -1.008,-0.004 -2.058,0.44 -3.29,0.368 -1.364,-0.062 -2.971,-0.905 -4.604,-1.202 -4.917,-0.891 -10.8,-0.824 -15.595,0.477 -10.588,-3.417 -19.114,2.871 -21.046,11.142 -0.249,0.938 -0.163,2.022 -0.436,3.172 -0.272,1.152 -1.667,2.591 -2.39,3.951 -1.483,2.812 -2.614,5.505 -3.453,8.968 -0.434,1.734 -0.283,3.624 -0.805,5.411 -0.223,0.737 -0.851,1.348 -1.212,1.986 -4.553,8.138 -0.433,19.382 7.431,22.206 2.137,2.885 4.453,5.678 7.527,8.094 3.081,2.393 6.477,3.827 9.869,5.584 1.698,0.88 2.986,2.505 4.641,3.308 4.776,2.389 11.269,1.899 15.572,-0.738 0.649,-0.374 1.299,-0.998 1.951,-1.301 1.099,-0.464 2.304,-0.55 3.338,-0.915 6.002,-2.112 11.249,-5.661 15.225,-10.098 0.653,-0.735 1.146,-1.773 1.864,-2.376 1.393,-1.156 2.468,-1.12 3.723,-2.098 4.51,-3.506 7.47,-10.912 4.901,-17.956 -0.265,-0.784 -0.846,-1.635 -1.023,-2.499 -0.393,-2.047 -0.163,-4.316 -0.513,-6.22 -0.963,-5.697 -2.892,-10 -5.762,-14.295"
             style="fill:#ffffff;fill-opacity:1;fill-rule:evenodd;stroke:none"
             id="path74"
             inkscape:connector-curvature="0" /></g><g
           id="g76"
           transform="translate(195.8997,347.6405)"
           inkscape:export-xdpi="99.427238"
           inkscape:export-ydpi="99.427238"><path
             d="m 0,0 c -3.45,0.298 -4.671,4.445 -3.073,7.916 0.909,1.928 2.852,2.74 4.099,4.524 4.314,5.976 0.618,13.692 -4.581,15.82 -2.014,0.82 -6.446,0.882 -8.721,-0.177 -4.156,-1.965 -8.156,-8.922 -4.826,-14.146 0.542,-0.803 1.46,-1.236 2.154,-1.86 0.677,-0.623 1.326,-1.191 1.845,-2.084 1.892,-3.303 1.105,-8.026 -2.496,-8.465 -4.627,-0.567 -7.442,3.966 -8.06,7.766 -6.779,5.288 -16.111,1.415 -17.292,-6.406 -1.157,-7.489 6.007,-14.331 13.376,-11.707 1.478,0.508 2.523,1.654 4.066,2.118 2.057,0.601 4.807,0.522 6.488,-0.757 5.14,-3.873 -2.505,-11.252 -8.286,-9.283 -4.019,-2.171 -6.485,-5.896 -5.885,-11.116 0.577,-5.312 5.673,-9.665 12.046,-8.937 4.699,0.544 9.401,4.745 8.818,10.469 -0.186,1.522 -1.038,2.848 -1.091,4.359 -0.123,3.455 1.721,7.085 5.032,7.155 3.798,0.057 5.515,-3.84 5.13,-7.779 -0.086,-1.139 -0.617,-2.215 -0.615,-3.311 0.032,-2.853 1.518,-5.185 2.93,-6.576 6.108,-6.208 17.238,-2.128 18.053,6.263 0.516,5.191 -2.005,9.007 -6.372,10.803 -4.225,-1.224 -10.717,1 -10.467,6.033 0.082,1.937 1.997,3.576 3.834,3.996 4.088,0.935 5.572,-1.476 8.596,-2.224 7.347,-1.819 12.823,4.14 12.777,10.338 C 27.385,9.386 21.644,13.971 15.137,13.131 11.694,12.682 9.487,10.359 7.797,7.812 7.299,3.807 4.249,-0.365 0,0 m 5.502,12.031 c 0.984,0.206 1.338,1.202 1.961,1.731 8.869,7.841 24.734,1.1 23.979,-11.934 -0.505,-8.547 -6.77,-13.703 -15.785,-13.783 0.718,-1.07 2.152,-1.523 3.299,-2.639 2.267,-2.262 4.205,-5.801 4.265,-10.151 0.079,-8.566 -6.605,-15.405 -16.05,-14.724 -6.176,0.459 -10.53,4.862 -12.34,9.865 -0.09,0.301 -0.05,1.129 -0.677,1.194 -1.026,-0.385 -0.841,-1.693 -1.065,-2.398 -1.591,-5.308 -6.537,-10.024 -13.695,-10.074 -8.301,-0.066 -14.61,6.622 -14.686,14.464 -0.04,4.74 2.292,8.62 5.104,11.112 0.536,0.45 1.607,0.881 1.581,1.865 -0.872,0.354 -1.944,0.037 -3.065,0.121 -7.341,0.442 -12.863,6.206 -13.385,13.551 -0.685,10.043 9.503,18.638 20.037,14.471 0.806,-0.309 2.911,-1.834 3.425,-1.296 0.603,0.571 -0.478,2.704 -0.529,3.276 -0.878,8.351 5.152,16.146 13.921,16.448 C 2.51,33.483 10.044,23.201 5.502,12.031"
             style="fill:#002e4f;fill-opacity:1;fill-rule:evenodd;stroke:none"
             id="path78"
             inkscape:connector-curvature="0" /></g><g
           id="g80"
           transform="translate(401.0327,346.3116)"
           inkscape:export-xdpi="99.427238"
           inkscape:export-ydpi="99.427238"><path
             d="m 0,0 c -3.247,6.765 -6.472,13.834 -9.832,20.956 -0.494,0.982 -1.305,2.377 -1.355,3.037 -0.048,1.398 1.687,3.464 2.491,4.239 3.653,3.568 10.363,4.054 14.54,0.446 1.794,-1.515 3.864,-4.64 3.56,-7.514 C 9.298,19.531 7.854,17.667 7.055,15.862 4.702,10.419 2.443,5.379 0,0"
             style="fill:#ee4035;fill-opacity:1;fill-rule:evenodd;stroke:none"
             id="path82"
             inkscape:connector-curvature="0" /></g><g
           id="g84"
           transform="translate(184.2957,345.6029)"
           inkscape:export-xdpi="99.427238"
           inkscape:export-ydpi="99.427238"><path
             d="M 0,0 C -0.022,-0.056 -0.822,-1.019 -0.906,-2.898 -1.411,-11.29 11.586,-11.553 11.486,-3.244 11.471,0.548 8.24,3.389 4.084,2.669 2.07,2.323 0.755,1.225 0,0 m 19.401,9.849 c 1.69,2.547 3.897,4.87 7.34,5.319 6.507,0.841 12.248,-3.745 12.342,-10.399 0.046,-6.197 -5.43,-12.157 -12.777,-10.338 -3.024,0.749 -4.508,3.159 -8.596,2.225 -1.837,-0.42 -3.752,-2.06 -3.834,-3.997 -0.25,-5.032 6.242,-7.257 10.467,-6.032 4.367,-1.796 6.888,-5.613 6.372,-10.803 -0.815,-8.392 -11.945,-12.472 -18.053,-6.263 -1.412,1.391 -2.898,3.723 -2.93,6.575 -0.002,1.097 0.529,2.173 0.615,3.312 0.385,3.939 -1.332,7.836 -5.13,7.779 -3.311,-0.07 -5.155,-3.701 -5.032,-7.155 0.053,-1.512 0.905,-2.837 1.091,-4.359 0.583,-5.724 -4.119,-9.925 -8.818,-10.469 -6.373,-0.729 -11.469,3.625 -12.046,8.937 -0.6,5.22 1.866,8.944 5.885,11.116 5.781,-1.969 13.426,5.409 8.286,9.282 -1.681,1.279 -4.432,1.359 -6.488,0.758 -1.543,-0.464 -2.588,-1.611 -4.066,-2.118 -7.369,-2.624 -14.533,4.217 -13.376,11.706 1.181,7.822 10.513,11.694 17.292,6.407 0.618,-3.801 3.433,-8.333 8.06,-7.766 3.601,0.438 4.388,5.161 2.496,8.464 -0.519,0.893 -1.168,1.462 -1.845,2.085 -0.694,0.624 -1.612,1.056 -2.154,1.859 -3.33,5.224 0.67,12.182 4.826,14.146 2.275,1.059 6.707,0.997 8.721,0.178 5.199,-2.128 8.895,-9.844 4.581,-15.82 C 11.383,12.693 9.44,11.882 8.531,9.954 6.933,6.482 8.154,2.335 11.604,2.038 c 4.248,-0.365 7.299,3.807 7.797,7.811"
             style="fill:#ffffff;fill-opacity:1;fill-rule:evenodd;stroke:none"
             id="path86"
             inkscape:connector-curvature="0" /></g><g
           id="g88"
           transform="translate(404.195,344.0753)"
           inkscape:export-xdpi="99.427238"
           inkscape:export-ydpi="99.427238"><path
             d="m 0,0 c 4.571,4.526 9.251,8.703 14.201,13.253 1.516,1.347 3.475,4.128 5.443,4.381 5.835,0.704 11.065,-4.632 11.135,-10.539 0.038,-4.721 -2.68,-7.85 -6.186,-9.775 C 16.495,-1.739 8.261,-0.875 0,0"
             style="fill:#ee4035;fill-opacity:1;fill-rule:evenodd;stroke:none"
             id="path90"
             inkscape:connector-curvature="0" /></g><g
           id="g92"
           transform="translate(397.5977,344.1729)"
           inkscape:export-xdpi="99.427238"
           inkscape:export-ydpi="99.427238"><path
             d="m 0,0 c -7.492,-0.935 -15.203,-1.903 -23.123,-2.86 -1.095,-0.127 -2.456,-0.536 -3.24,-0.404 -1.364,0.207 -2.559,2.093 -3.212,3.152 -4.411,6.931 0.836,15.395 7.86,16.158 4.896,0.521 6.383,-2.078 8.986,-4.474 C -8.398,7.685 -3.93,3.944 0,0"
             style="fill:#ee4035;fill-opacity:1;fill-rule:evenodd;stroke:none"
             id="path94"
             inkscape:connector-curvature="0" /></g><g
           id="g96"
           transform="translate(186.2926,343.3747)"
           inkscape:export-xdpi="99.427238"
           inkscape:export-ydpi="99.427238"><path
             d="M 0,0 C -1.502,-5.162 6.244,-6.162 6.697,-1.564 6.976,0.988 4.959,2.68 2.586,2.247 1.025,1.973 0.243,0.963 0,0 m 2.088,4.897 c 4.155,0.72 7.386,-2.12 7.401,-5.913 0.1,-8.309 -12.897,-8.046 -12.391,0.347 0.083,1.878 0.883,2.841 0.905,2.897 0.755,1.225 2.07,2.323 4.085,2.669"
             style="fill:#002e4f;fill-opacity:1;fill-rule:evenodd;stroke:none"
             id="path98"
             inkscape:connector-curvature="0" /></g><g
           id="g100"
           transform="translate(188.8787,345.6216)"
           inkscape:export-xdpi="99.427238"
           inkscape:export-ydpi="99.427238"><path
             d="M 0,0 C 2.373,0.433 4.39,-1.259 4.111,-3.81 3.658,-8.409 -4.089,-7.408 -2.586,-2.247 -2.343,-1.284 -1.561,-0.274 0,0"
             style="fill:#ffffff;fill-opacity:1;fill-rule:evenodd;stroke:none"
             id="path102"
             inkscape:connector-curvature="0" /></g><g
           id="g104"
           transform="translate(394.607,341.1326)"
           inkscape:export-xdpi="99.427238"
           inkscape:export-ydpi="99.427238"><path
             d="M 0,0 C 0.27,-0.279 -0.599,-0.519 -1.069,-0.81 -8.301,-5 -16.403,-9.516 -23.635,-13.825 -25.013,-10.543 -26.011,-6.754 -27.23,-3.28 -18.065,-2.295 -9.032,-1.121 0,0"
             style="fill:#ee4035;fill-opacity:1;fill-rule:evenodd;stroke:none"
             id="path106"
             inkscape:connector-curvature="0" /></g><g
           id="g108"
           transform="translate(399.7109,340.7492)"
           inkscape:export-xdpi="99.427238"
           inkscape:export-ydpi="99.427238"><path
             d="m 0,0 c 0,0.108 0.088,0.132 0.137,0.132 0.131,0.022 0.131,-0.053 0.179,-0.131 -1.279,-6.237 -2.37,-12.392 -3.646,-18.906 -0.37,-1.992 -0.607,-4.42 -1.319,-6.078 -1.595,-3.833 -8.612,-5.247 -12.915,-3.216 -2.979,1.377 -5.971,5.123 -5.989,9.619 0.016,2.001 0.609,4.813 1.945,6.215 1.118,1.09 3.888,2.162 5.446,3.051 C -10.913,-6.274 -5.043,-2.794 0,0"
             style="fill:#ee4035;fill-opacity:1;fill-rule:evenodd;stroke:none"
             id="path110"
             inkscape:connector-curvature="0" /></g><g
           id="g112"
           transform="translate(403.2017,340.4937)"
           inkscape:export-xdpi="99.427238"
           inkscape:export-ydpi="99.427238"><path
             d="m 0,0 c 7.531,-4.055 15.021,-8.256 22.463,-12.456 4.284,-9.704 -5.835,-18.475 -14.579,-13.802 -1.076,0.557 -2.512,1.347 -2.938,2.24 -0.698,1.485 -0.797,3.934 -1.231,5.933 C 2.55,-12.204 1.073,-5.557 0,0"
             style="fill:#ee4035;fill-opacity:1;fill-rule:evenodd;stroke:none"
             id="path114"
             inkscape:connector-curvature="0" /></g><g
           id="g116"
           transform="translate(468.7035,339.5525)"
           inkscape:export-xdpi="99.427238"
           inkscape:export-ydpi="99.427238"><path
             d="m 0,0 c 0.088,0.035 0.089,-0.053 0.09,-0.122 1.151,-2.455 2.255,-4.7 4.408,-6.202 2.021,-1.401 4.506,-2.377 6.86,-3.529 2.194,-1.057 4.704,-2.165 7.173,-3.419 3.315,-1.653 5.959,-3.029 10.479,-3.002 -0.882,-3.236 -1.764,-6.53 -2.784,-9.641 -0.627,-0.162 -1.008,0.823 -1.458,1.313 -3.213,3.501 -9.078,5.313 -13.63,7.733 2.002,-3.224 4.857,-6.659 7.038,-10.128 -3.667,-0.461 -7.106,-1.179 -10.82,-1.627 5.266,-2.308 9.464,-5.705 16.422,-6.282 -0.859,-3.458 -1.967,-6.683 -2.761,-10.167 -5.078,7.14 -16.63,9.703 -24.481,14.404 -2.211,-0.412 -3.752,-1.502 -5.784,-2.124 0.948,3.178 1.764,6.481 2.714,9.663 4.348,-1.271 9.035,0.815 13.465,1.091 -2.611,4.307 -6.455,9.225 -9.445,13.183 C -1.768,-5.788 -0.926,-2.831 0,0"
             style="fill:#ee4035;fill-opacity:1;fill-rule:evenodd;stroke:none"
             id="path118"
             inkscape:connector-curvature="0" /></g><g
           id="g120"
           transform="translate(401.4811,334.6812)"
           inkscape:export-xdpi="99.427238"
           inkscape:export-ydpi="99.427238"><path
             d="M 0,0 C 2.201,-8.739 3.845,-18.038 5.781,-27.047 2.137,-27.06 -1.508,-27.073 -5.178,-27.088 -3.559,-17.954 -1.574,-9.156 0,0"
             style="fill:#ee4035;fill-opacity:1;fill-rule:evenodd;stroke:none"
             id="path122"
             inkscape:connector-curvature="0" /></g><g
           id="g124"
           transform="translate(98.2787,310.9517)"
           inkscape:export-xdpi="99.427238"
           inkscape:export-ydpi="99.427238"><path
             d="m 0,0 c -1.038,3.118 -2.17,6.102 -3.188,9.217 9.692,-1.585 18.405,1.858 27.35,2.755 1.916,1.472 2.757,3.992 3.506,6.622 1.444,-3.238 2.531,-6.835 3.755,-10.298 -5.623,-3.488 -9.72,-8.483 -14.495,-12.85 6.129,1.13 13.018,1.457 17.592,4.148 0.995,-2.758 2.058,-5.528 2.915,-8.445 -6.666,0.67 -13.149,-0.91 -19.272,-1.917 -4.877,-0.79 -9.658,-1.357 -13.096,-3.753 -0.679,2.469 -1.671,4.671 -2.397,7.116 5.602,2.931 9.188,7.843 13.735,11.82 C 10.547,3.305 4.017,2.903 0,0"
             style="fill:#ee4035;fill-opacity:1;fill-rule:evenodd;stroke:none"
             id="path126"
             inkscape:connector-curvature="0" /></g><g
           id="g128"
           transform="translate(454.4685,294.3467)"
           inkscape:export-xdpi="99.427238"
           inkscape:export-ydpi="99.427238"><path
             d="m 0,0 c 0.136,0.001 0.138,-0.066 0.138,-0.134 3.12,-3.711 7.182,-6.794 11.263,-9.868 4.623,-3.548 9.156,-7.301 14.98,-9.606 -1.13,-2.644 -2.487,-4.975 -3.681,-7.544 -0.562,0.146 -0.566,0.797 -0.949,1.062 -0.067,-5.871 -3.424,-10.485 -9.76,-9.028 -4.348,1.012 -7.533,4.454 -11.081,7.093 -3.72,2.791 -7.22,5.464 -11.432,6.824 1.243,2.99 2.885,5.513 4.085,8.482 3.37,-4.954 9.159,-8.557 14.474,-12.495 1.456,-1.091 3.143,-2.661 4.775,-2.891 5.151,-0.738 3.737,5.619 1.761,7.67 -1.079,1.149 -2.783,2.261 -4.308,3.418 -4.06,2.982 -9.466,7.491 -14.214,8.927 C -2.707,-5.312 -1.333,-2.723 0,0"
             style="fill:#ee4035;fill-opacity:1;fill-rule:evenodd;stroke:none"
             id="path130"
             inkscape:connector-curvature="0" /></g><g
           id="g132"
           transform="translate(143.8394,283.1285)"
           inkscape:export-xdpi="99.427238"
           inkscape:export-ydpi="99.427238"><path
             d="m 0,0 c 1.644,-2.701 2.617,-6.016 4.107,-8.829 -7.048,-0.097 -13.169,-1.73 -19.095,-3.261 -4.779,-1.214 -9.427,-2.252 -12.932,-4.657 -1.2,3.15 -2.732,5.962 -3.881,9.078 6.827,-0.834 12.586,1.334 18.893,2.846 5.096,1.237 9.72,2.239 12.777,4.823 C -0.09,0.002 -0.043,0.001 0,0"
             style="fill:#ee4035;fill-opacity:1;fill-rule:evenodd;stroke:none"
             id="path134"
             inkscape:connector-curvature="0" /></g><g
           id="g136"
           transform="translate(161.8314,246.7235)"
           inkscape:export-xdpi="99.427238"
           inkscape:export-ydpi="99.427238"><path
             d="m 0,0 c -5.306,0.54 -9.034,-1.084 -12.966,-2.287 0.743,-1.807 2.163,-4.119 3.195,-6.072 4.361,1.169 8.492,2.561 11.482,5.066 1.777,-2.735 3.245,-5.772 4.775,-8.694 -7.206,0.542 -13.054,-2.209 -18.732,-4.021 -4.915,-1.584 -9.654,-2.866 -12.93,-5.608 -1.377,2.894 -2.997,5.639 -4.55,8.429 5.548,-0.092 9.435,1.466 13.612,2.702 -1.036,2.031 -2.253,3.916 -3.156,6.061 -4.647,-1.179 -9.117,-2.583 -12.148,-5.325 -1.732,2.724 -3.106,5.816 -4.817,8.562 7.022,-0.053 12.876,2.429 18.528,4.162 5.317,1.663 9.453,2.789 13.021,5.731 C -3.089,5.839 -1.492,3.002 0,0"
             style="fill:#ee4035;fill-opacity:1;fill-rule:evenodd;stroke:none"
             id="path138"
             inkscape:connector-curvature="0" /></g><g
           id="g140"
           transform="translate(433.5455,242.8721)"
           inkscape:export-xdpi="99.427238"
           inkscape:export-ydpi="99.427238"><path
             d="M 0,0 C 1.977,-2.105 4.243,-3.919 6.464,-5.8 6.384,-1.943 3.753,1.58 0,0 m 12.142,-4.192 c 4.389,-1.2 9.624,-1.587 15.35,-1.531 -1.156,-1.908 -2.244,-3.835 -3.38,-5.671 -3.821,-0.439 -8.092,-0.278 -11.545,0.361 1.937,-2.255 5.03,-4.516 8.213,-5.932 -1.558,-2.691 -3.25,-5.268 -4.712,-8.081 -2.881,4.875 -7.169,8.463 -11.278,12.113 -4.039,3.586 -8.146,7.587 -13.232,9.984 2.619,4.372 4.655,10.821 11.594,10.221 5.64,-0.504 8.383,-5.447 8.99,-11.464"
             style="fill:#ee4035;fill-opacity:1;fill-rule:evenodd;stroke:none"
             id="path142"
             inkscape:connector-curvature="0" /></g><g
           id="g144"
           transform="translate(440.0097,237.0717)"
           inkscape:export-xdpi="99.427238"
           inkscape:export-ydpi="99.427238"><path
             d="M 0,0 C -2.221,1.881 -4.487,3.695 -6.464,5.8 -2.711,7.381 -0.08,3.857 0,0"
             style="fill:#ffffff;fill-opacity:1;fill-rule:evenodd;stroke:none"
             id="path146"
             inkscape:connector-curvature="0" /></g><g
           id="g148"
           transform="translate(413.8975,221.9182)"
           inkscape:export-xdpi="99.427238"
           inkscape:export-ydpi="99.427238"><path
             d="m 0,0 c 1.573,-2.522 2.744,-5.379 4.009,-8.154 -1.34,-0.492 -2.655,-0.817 -3.84,-1.736 -0.09,-0.101 -1.157,-1.145 -1.159,-1.211 -0.04,-0.481 2.448,-2.402 2.782,-2.75 1.078,-1.048 1.889,-1.952 2.654,-2.763 1.517,1.959 2.914,4.092 4.313,6.212 1.465,-2.343 2.525,-5.056 3.747,-7.641 -1.428,-0.679 -2.59,-1.626 -3.838,-2.529 1.73,-2.12 3.813,-3.883 5.725,-5.785 1.932,2.885 2.543,7.015 3.381,10.968 1.803,-2.839 3.266,-6.009 4.798,-9.088 -2.915,-4.273 -5.983,-8.461 -8.831,-12.83 -2.347,5.251 -6.704,8.911 -10.585,12.756 -3.843,3.801 -7.299,8.404 -12.588,10.656 C -6.408,-9.118 -3.071,-4.699 0,0"
             style="fill:#ee4035;fill-opacity:1;fill-rule:evenodd;stroke:none"
             id="path150"
             inkscape:connector-curvature="0" /></g><g
           id="g152"
           transform="translate(184.2477,210.6132)"
           inkscape:export-xdpi="99.427238"
           inkscape:export-ydpi="99.427238"><path
             d="m 0,0 c -5.325,-0.579 -10.125,-2.89 -14.746,-4.92 -5.537,-2.449 -11.347,-4.282 -15.159,-8.267 -1.82,2.667 -4.027,5.712 -5.444,8.301 5.882,0.211 10.969,3.027 15.931,5.216 C -13.97,2.732 -9.103,4.35 -5.31,8.18 -3.559,5.524 -1.375,2.588 0,0"
             style="fill:#ee4035;fill-opacity:1;fill-rule:evenodd;stroke:none"
             id="path154"
             inkscape:connector-curvature="0" /></g><g
           id="g156"
           transform="translate(396.4814,195.9658)"
           inkscape:export-xdpi="99.427238"
           inkscape:export-ydpi="99.427238"><path
             d="m 0,0 c 0.104,0.04 0.107,-0.04 0.107,-0.139 0.232,-8.017 3.499,-13.69 5.869,-19.91 2.01,-5.15 3.729,-10.154 5.854,-15.165 -1.029,-1.324 -2.049,-2.683 -3.407,-3.71 -4.422,3.172 -8.908,6.031 -13.345,9.046 -4.397,2.994 -8.507,6.838 -14.549,7.885 2.025,2.818 4.588,5.087 6.659,7.819 3.132,-5.725 9.384,-8.24 14.359,-12.099 -2.794,6.216 -3.941,14.077 -8.944,18.048 2.515,2.74 4.879,5.5 7.397,8.225"
             style="fill:#ee4035;fill-opacity:1;fill-rule:evenodd;stroke:none"
             id="path158"
             inkscape:connector-curvature="0" /></g><g
           id="g160"
           transform="translate(202.7261,185.5842)"
           inkscape:export-xdpi="99.427238"
           inkscape:export-ydpi="99.427238"><path
             d="m 0,0 c -10.17,-1.548 -16.167,-7.196 -24.428,-10.65 2.47,-3.021 6.68,-4.27 10.2,-6.17 -3.665,-0.93 -7.804,-1.415 -11.691,-2.158 -3.324,3.904 -6.383,8.009 -9.33,12.258 5.974,0.201 10.902,3.284 15.704,5.865 4.865,2.612 9.737,4.6 13.302,8.236 0.111,0.112 0.178,0.382 0.423,0.405 C -3.818,5.276 -1.799,2.734 0,0"
             style="fill:#ee4035;fill-opacity:1;fill-rule:evenodd;stroke:none"
             id="path162"
             inkscape:connector-curvature="0" /></g><g
           id="g164"
           transform="translate(236.4054,147.4269)"
           inkscape:export-xdpi="99.427238"
           inkscape:export-ydpi="99.427238"><path
             d="m 0,0 c 2.982,-2.247 5.522,-4.871 8.327,-7.239 -3.292,-4.999 -4.361,-12.242 -6.598,-18.258 4.685,3.853 10.131,6.93 13.376,12.196 2.201,-2.023 4.665,-3.818 6.643,-6.047 -7.009,-3.057 -12.806,-8.657 -18.83,-13.402 -2.676,-2.094 -5.218,-3.941 -6.458,-7.157 -2.02,1.541 -3.818,3.27 -5.703,4.99 3.16,4.574 4.054,11.33 6.29,16.797 -4.195,-3.079 -9.55,-6.333 -12.127,-11.518 -2.604,2.045 -5.068,4.239 -7.402,6.554 9.65,3.216 15.081,10.573 22.798,15.66 C 0.936,-4.979 0.524,-2.327 0,0"
             style="fill:#ee4035;fill-opacity:1;fill-rule:evenodd;stroke:none"
             id="path166"
             inkscape:connector-curvature="0" /></g><g
           id="g168"
           transform="translate(339.9814,139.887)"
           inkscape:export-xdpi="99.427238"
           inkscape:export-ydpi="99.427238"><path
             d="m 0,0 c 0.138,0.012 0.137,-0.056 0.138,-0.143 1.794,-7.622 6.495,-14.179 9.987,-20.701 1.668,-3.027 3.219,-5.892 5.979,-7.772 -2.498,-2.093 -5.33,-4.632 -7.87,-6.242 -0.47,5.472 -3.439,9.767 -5.92,14.133 -2.924,5.242 -5.297,10.931 -9.807,14.491 C -5.125,-4.025 -2.45,-2.132 0,0"
             style="fill:#ee4035;fill-opacity:1;fill-rule:evenodd;stroke:none"
             id="path170"
             inkscape:connector-curvature="0" /></g><g
           id="g172"
           transform="translate(315.2353,118.3848)"
           inkscape:export-xdpi="99.427238"
           inkscape:export-ydpi="99.427238"><path
             d="m 0,0 c 1.801,-2.835 3.066,-6.22 4.553,-9.359 -2.337,1.934 -8.519,4.425 -9.798,-0.033 -1.569,-5.44 8.7,-4.563 11.926,-5.895 3.047,-1.251 5.921,-4.474 5.444,-9.493 -0.553,-6.282 -5.55,-9.99 -11.989,-10.879 -1.981,3.115 -3.337,6.979 -5.142,10.287 1.744,-0.15 3.475,-2.358 5.649,-2.741 2.638,-0.474 5.407,0.954 5.287,3.587 -0.117,1.842 -1.642,2.307 -2.803,2.616 -1.394,0.368 -3.114,0.356 -4.726,0.642 -5.751,0.975 -11.093,4.468 -10.263,11.449 0.647,5.345 4.797,9.078 11.327,9.682 C -0.315,-0.099 -0.226,0.001 0,0"
             style="fill:#ee4035;fill-opacity:1;fill-rule:evenodd;stroke:none"
             id="path174"
             inkscape:connector-curvature="0" /></g><g
           id="g176"
           transform="translate(282.6687,110.9961)"
           inkscape:export-xdpi="99.427238"
           inkscape:export-ydpi="99.427238"><path
             d="m 0,0 c -4.844,-2.794 -8.807,-6.747 -12.64,-10.597 -3.771,-3.808 -8.164,-7.506 -10.403,-12.732 -2.87,1.809 -5.649,3.674 -8.209,5.785 5.071,2.038 8.768,6.364 12.645,10.213 3.88,3.924 8.25,7.602 10.511,12.853 C -5.268,3.836 -2.756,1.789 0,0"
             style="fill:#ee4035;fill-opacity:1;fill-rule:evenodd;stroke:none"
             id="path178"
             inkscape:connector-curvature="0" /></g><g
           id="g180"
           transform="translate(416.3862,373.9736)"
           inkscape:export-xdpi="99.427238"
           inkscape:export-ydpi="99.427238"><path
             d="M 0,0 C 3.071,-2.012 5.901,-4.249 8.883,-6.321 2.395,-12.786 -4.514,-18.809 -11.112,-25.141 -7.81,-16.919 -3.657,-8.358 0,0"
             style="fill:#ee4035;fill-opacity:1;fill-rule:evenodd;stroke:none"
             id="path182"
             inkscape:connector-curvature="0" /></g><g
           id="g184"
           transform="translate(376.3934,367.0666)"
           inkscape:export-xdpi="99.427238"
           inkscape:export-ydpi="99.427238"><path
             d="M 0,0 C 2.898,2.248 5.822,4.497 8.925,6.521 12.803,-1.741 16.593,-10.082 20.56,-18.264 13.67,-12.699 6.955,-5.903 0,0"
             style="fill:#ee4035;fill-opacity:1;fill-rule:evenodd;stroke:none"
             id="path186"
             inkscape:connector-curvature="0" /></g><g
           id="g188"
           transform="translate(408.0544,340.9141)"
           inkscape:export-xdpi="99.427238"
           inkscape:export-ydpi="99.427238"><path
             d="M 0,0 C 8.839,-0.784 18.464,-1.924 27.506,-2.939 26.397,-6.444 25.204,-9.781 24.234,-13.375 16.075,-9.011 8.095,-4.444 0,0"
             style="fill:#ee4035;fill-opacity:1;fill-rule:evenodd;stroke:none"
             id="path190"
             inkscape:connector-curvature="0" /></g><g
           id="g192"
           transform="translate(274.5732,116.5185)"
           inkscape:export-xdpi="99.427238"
           inkscape:export-ydpi="99.427238"><path
             d="m 0,0 c -2.262,-5.252 -6.632,-8.93 -10.512,-12.853 -3.877,-3.849 -7.574,-8.175 -12.645,-10.214 2.561,-2.111 5.34,-3.976 8.21,-5.785 2.239,5.227 6.631,8.924 10.402,12.732 3.833,3.85 7.797,7.804 12.641,10.598 C 5.339,-3.734 2.828,-1.686 0,0 M 40.127,1.729 C 33.597,1.125 29.447,-2.608 28.8,-7.953 c -0.829,-6.981 4.513,-10.474 10.263,-11.448 1.612,-0.287 3.332,-0.275 4.726,-0.643 1.161,-0.309 2.686,-0.773 2.804,-2.616 0.119,-2.633 -2.65,-4.06 -5.288,-3.587 -2.174,0.383 -3.905,2.591 -5.649,2.742 1.805,-3.309 3.161,-7.173 5.142,-10.288 6.439,0.889 11.436,4.597 11.989,10.879 0.477,5.019 -2.397,8.242 -5.444,9.493 -3.226,1.332 -13.495,0.456 -11.926,5.895 1.28,4.458 7.461,1.967 9.798,0.034 -1.487,3.138 -2.752,6.524 -4.553,9.358 -0.226,10e-4 -0.315,-0.099 -0.535,-0.137 m 17.788,15.405 c 4.51,-3.56 6.883,-9.249 9.808,-14.491 2.481,-4.366 5.45,-8.66 5.92,-14.133 2.54,1.61 5.372,4.15 7.869,6.243 -2.76,1.88 -4.311,4.744 -5.979,7.771 -3.492,6.523 -8.192,13.08 -9.987,20.701 0,0.088 0,0.155 -0.138,0.143 -2.45,-2.131 -5.125,-4.024 -7.493,-6.234 m -95.767,6.35 C -45.569,18.398 -50.999,11.04 -60.65,7.825 c 2.334,-2.316 4.799,-4.51 7.402,-6.555 2.578,5.185 7.932,8.439 12.127,11.519 -2.236,-5.467 -3.13,-12.224 -6.29,-16.798 1.885,-1.72 3.683,-3.449 5.703,-4.99 1.24,3.216 3.782,5.064 6.458,7.157 6.024,4.745 11.821,10.346 18.83,13.402 -1.977,2.229 -4.442,4.024 -6.643,6.047 -3.245,-5.266 -8.691,-8.343 -13.376,-12.196 2.237,6.017 3.306,13.259 6.598,18.258 -2.805,2.368 -5.345,4.993 -8.327,7.239 0.524,-2.326 0.936,-4.978 0.316,-7.424 m -39.815,53.368 c -0.245,-0.024 -0.312,-0.293 -0.423,-0.405 -3.565,-3.637 -8.437,-5.624 -13.302,-8.236 -4.802,-2.581 -9.73,-5.664 -15.704,-5.866 2.947,-4.249 6.006,-8.353 9.33,-12.257 3.887,0.742 8.026,1.228 11.691,2.158 -3.52,1.899 -7.73,3.148 -10.2,6.17 8.261,3.454 14.258,9.101 24.428,10.65 -1.799,2.734 -3.818,5.276 -5.82,7.786 m 192.178,-5.63 c 5.003,-3.97 6.15,-11.832 8.945,-18.048 -4.975,3.859 -11.228,6.374 -14.36,12.1 -2.071,-2.733 -4.634,-5.002 -6.659,-7.819 6.043,-1.048 10.153,-4.892 14.549,-7.885 4.437,-3.015 8.923,-5.875 13.345,-9.047 1.358,1.027 2.379,2.386 3.407,3.71 -2.125,5.012 -3.843,10.015 -5.853,15.165 -2.37,6.22 -5.638,11.893 -5.87,19.91 0,0.099 -0.003,0.179 -0.107,0.139 -2.518,-2.725 -4.882,-5.485 -7.397,-8.225 m -210.147,31.053 c -3.792,-3.83 -8.659,-5.449 -14.107,-7.851 -4.962,-2.189 -10.05,-5.004 -15.932,-5.216 1.417,-2.588 3.624,-5.633 5.445,-8.3 3.811,3.985 9.621,5.818 15.159,8.267 4.621,2.029 9.421,4.341 14.746,4.92 -1.375,2.588 -3.559,5.524 -5.311,8.18 m 225.528,-10.77 c 5.289,-2.252 8.746,-6.855 12.588,-10.656 3.881,-3.845 8.239,-7.505 10.586,-12.757 2.847,4.37 5.915,8.557 8.83,12.83 -1.532,3.08 -2.995,6.249 -4.798,9.089 -0.838,-3.953 -1.448,-8.083 -3.381,-10.968 -1.912,1.901 -3.995,3.665 -5.725,5.785 1.248,0.902 2.411,1.85 3.839,2.529 -1.223,2.585 -2.283,5.297 -3.748,7.641 -1.399,-2.12 -2.795,-4.253 -4.313,-6.213 -0.765,0.812 -1.576,1.715 -2.653,2.764 -0.335,0.347 -2.823,2.269 -2.783,2.75 0.002,0.066 1.069,1.11 1.159,1.21 1.185,0.92 2.501,1.245 3.841,1.737 -1.266,2.774 -2.437,5.632 -4.01,8.154 -3.071,-4.699 -6.408,-9.118 -9.432,-13.895 m 32.233,42.12 c -6.94,0.601 -8.976,-5.849 -11.594,-10.22 5.086,-2.397 9.193,-6.398 13.232,-9.984 4.109,-3.651 8.396,-7.238 11.278,-12.113 1.462,2.813 3.153,5.39 4.711,8.081 -3.183,1.415 -6.276,3.677 -8.213,5.932 3.454,-0.64 7.724,-0.801 11.545,-0.361 1.136,1.836 2.225,3.763 3.38,5.67 -5.726,-0.055 -10.961,0.331 -15.35,1.532 -0.607,6.016 -3.35,10.96 -8.989,11.463 m -279.552,5.286 c -3.569,-2.942 -7.705,-4.068 -13.021,-5.731 -5.653,-1.733 -11.507,-4.215 -18.528,-4.162 1.71,-2.746 3.084,-5.838 4.816,-8.563 3.032,2.743 7.501,4.147 12.148,5.326 0.903,-2.145 2.121,-4.03 3.157,-6.061 -4.178,-1.236 -8.064,-2.794 -13.613,-2.702 1.553,-2.79 3.173,-5.535 4.551,-8.429 3.275,2.742 8.014,4.024 12.929,5.608 5.678,1.812 11.526,4.563 18.733,4.021 -1.531,2.922 -2.999,5.959 -4.776,8.694 -2.99,-2.505 -7.121,-3.897 -11.482,-5.066 -1.032,1.953 -2.452,4.265 -3.195,6.072 3.932,1.202 7.66,2.827 12.966,2.287 -1.491,3.002 -3.089,5.838 -4.685,8.706 m -13.438,27.699 c -3.057,-2.585 -7.681,-3.586 -12.777,-4.823 -6.306,-1.512 -12.065,-3.68 -18.893,-2.846 1.149,-3.116 2.682,-5.928 3.882,-9.078 3.504,2.405 8.153,3.443 12.932,4.657 5.925,1.531 12.047,3.164 19.095,3.261 -1.49,2.813 -2.464,6.128 -4.108,8.829 -0.043,10e-4 -0.089,0.002 -0.131,0 m 306.812,3.129 c 4.747,-1.437 10.153,-5.946 14.213,-8.928 1.525,-1.157 3.229,-2.269 4.308,-3.418 1.976,-2.051 3.39,-8.407 -1.761,-7.67 -1.632,0.23 -3.319,1.8 -4.774,2.892 -5.315,3.937 -11.104,7.54 -14.475,12.494 -1.2,-2.969 -2.842,-5.492 -4.084,-8.482 4.211,-1.36 7.711,-4.032 11.432,-6.824 3.548,-2.639 6.733,-6.08 11.08,-7.093 6.337,-1.457 9.693,3.158 9.761,9.028 0.382,-0.265 0.387,-0.916 0.948,-1.061 1.195,2.568 2.551,4.899 3.682,7.543 -5.825,2.305 -10.358,6.058 -14.981,9.607 -4.08,3.073 -8.142,6.156 -11.263,9.867 0,0.068 -0.002,0.135 -0.138,0.134 -1.332,-2.723 -2.706,-5.312 -3.948,-8.089 m 15.67,44.439 c 2.989,-3.958 6.833,-8.876 9.444,-13.183 -4.43,-0.276 -9.117,-2.362 -13.464,-1.091 -0.95,-3.182 -1.767,-6.485 -2.714,-9.663 2.032,0.622 3.572,1.712 5.783,2.124 7.851,-4.701 19.403,-7.264 24.481,-14.404 0.794,3.484 1.903,6.709 2.762,10.167 -6.959,0.577 -11.156,3.974 -16.422,6.282 3.714,0.448 7.153,1.166 10.82,1.627 -2.181,3.469 -5.037,6.904 -7.039,10.128 4.552,-2.42 10.417,-4.232 13.63,-7.733 0.45,-0.49 0.832,-1.475 1.459,-1.313 1.019,3.111 1.901,6.405 2.784,9.641 -4.521,-0.027 -7.164,1.349 -10.48,3.002 -2.468,1.254 -4.978,2.362 -7.172,3.419 -2.355,1.152 -4.84,2.128 -6.861,3.529 -2.153,1.502 -3.257,3.747 -4.408,6.202 0,0.069 -0.001,0.157 -0.09,0.122 -0.925,-2.831 -1.768,-5.788 -2.513,-8.856 M -16.396,597.091 c -11.508,-8.959 -22.072,-18.651 -32.102,-28.777 -40.471,-40.787 -71.149,-91.414 -88.849,-154.473 -8.917,-31.736 -15.098,-66.352 -15.707,-105.723 -0.653,-40.158 5.25,-75.939 14.9,-106.939 2.377,-7.553 5.4,-14.878 8.315,-22.159 2.869,-7.316 5.782,-14.576 8.894,-21.623 12.658,-28.518 27.404,-53.895 44.939,-76.971 8.771,-11.496 18.477,-22.155 28.132,-32.79 19.496,-21.375 42.342,-39.222 68.789,-52.981 0.398,-0.105 0.892,0.296 1.292,0.541 6.029,3.762 11.826,8.394 17.782,12.755 5.825,4.258 11.484,8.991 16.995,13.539 22.411,18.54 43.501,38.102 61.196,60.855 8.839,11.398 16.889,23.899 24.583,36.531 23.141,38.22 42.357,79.363 49.558,133.211 2.326,17.805 4.154,36.925 4.079,56.812 -0.075,20.213 -1.173,39.243 -4.064,57.186 -2.725,17.548 -6.481,34.098 -11.104,50.008 -9.158,31.742 -20.564,61.184 -35.851,86.527 -7.605,12.599 -16.109,24.399 -25.21,35.829 -9.101,11.363 -18.14,22.894 -28.687,32.518 -21.238,19.449 -44.479,36.774 -71.108,50.97 C 7.566,615.032 -5.017,605.97 -16.396,597.091 M -159.889,198.848 c -4.548,-3.977 -8.133,-8.889 -13.736,-11.82 0.726,-2.445 1.719,-4.646 2.397,-7.116 3.439,2.396 8.22,2.963 13.097,3.753 6.123,1.008 12.606,2.587 19.271,1.917 -0.856,2.917 -1.92,5.687 -2.915,8.445 -4.574,-2.691 -11.463,-3.017 -17.591,-4.148 4.774,4.367 8.872,9.363 14.494,12.85 -1.223,3.463 -2.31,7.06 -3.754,10.298 -0.749,-2.63 -1.591,-5.149 -3.507,-6.622 -8.944,-0.896 -17.657,-4.34 -27.349,-2.755 1.018,-3.115 2.15,-6.099 3.188,-9.217 4.016,2.903 10.546,3.306 16.405,4.415 M 20.31,669.37 c 32.3,-16.642 61.739,-35.512 87.796,-58.198 12.885,-11.213 24.589,-23.999 35.957,-37.098 11.299,-13.053 22.29,-26.547 31.83,-41.096 19.325,-29.386 34.085,-63.403 45.701,-100.602 C 233.299,394.895 242.09,354.304 241.11,305.5 240.126,258.106 233.487,215.891 221.006,179.942 208.475,144.014 190.744,113.111 171.124,83.997 161.332,69.415 151.236,55.08 139.963,42.138 117.421,16.289 91.29,-6.065 63.386,-27.239 51.315,-36.375 38.87,-44.956 25.702,-53.397 c -1.56,-1 -4.551,-3.374 -5.667,-3.189 -0.228,0.045 -0.382,0.33 -0.56,0.399 -15.846,7.995 -31.272,16.998 -45.248,27.156 -13.976,10.149 -27.44,20.875 -39.119,33.41 -5.839,6.305 -11.987,12.259 -17.875,18.431 -17.607,18.377 -33.812,38.829 -47.787,60.966 -18.679,29.683 -34.55,61.98 -47.66,97.576 -13.017,35.316 -20.378,77.535 -19.217,125.802 1.119,46.501 8.797,87.221 20.648,123.987 29.54,91.479 81.654,158.527 152.306,209.92 11.998,8.735 24.76,17.33 38.471,24.966 2.208,1.248 4.684,2.478 6.316,3.343"
             style="fill:#ffffff;fill-opacity:1;fill-rule:evenodd;stroke:none"
             id="path194"
             inkscape:connector-curvature="0" /></g></g></g></g></svg>