<?xml version="1.0" encoding="UTF-8" standalone="no"?>
<!-- Created with Inkscape (http://www.inkscape.org/) -->

<svg
   xmlns:dc="http://purl.org/dc/elements/1.1/"
   xmlns:cc="http://creativecommons.org/ns#"
   xmlns:rdf="http://www.w3.org/1999/02/22-rdf-syntax-ns#"
   xmlns:svg="http://www.w3.org/2000/svg"
   xmlns="http://www.w3.org/2000/svg"
   xmlns:sodipodi="http://sodipodi.sourceforge.net/DTD/sodipodi-0.dtd"
   xmlns:inkscape="http://www.inkscape.org/namespaces/inkscape"
   width="210mm"
   height="297mm"
   viewBox="0 0 210 297"
   version="1.1"
   id="svg8"
   inkscape:version="0.92.1 r15371"
   sodipodi:docname="joystick.svg">
  <defs
     id="defs2" />
  <sodipodi:namedview
     id="base"
     pagecolor="#ffffff"
     bordercolor="#666666"
     borderopacity="1.0"
     inkscape:pageopacity="0.0"
     inkscape:pageshadow="2"
     inkscape:zoom="0.35"
     inkscape:cx="-27.142857"
     inkscape:cy="674.28571"
     inkscape:document-units="mm"
     inkscape:current-layer="layer1"
     showgrid="false"
     inkscape:window-width="1329"
     inkscape:window-height="771"
     inkscape:window-x="130"
     inkscape:window-y="130"
     inkscape:window-maximized="1" />
  <metadata
     id="metadata5">
    <rdf:RDF>
      <cc:Work
         rdf:about="">
        <dc:format>image/svg+xml</dc:format>
        <dc:type
           rdf:resource="http://purl.org/dc/dcmitype/StillImage" />
        <dc:title />
      </cc:Work>
    </rdf:RDF>
  </metadata>
  <g
     inkscape:label="Layer 1"
     inkscape:groupmode="layer"
     id="layer1">
    <g
       id="g3697"
       transform="matrix(1,0,0,1.0015349,-2.2678548,-7.8266146)"
       inkscape:export-xdpi="95.907921"
       inkscape:export-ydpi="95.907921">
      <path
         style="fill:#fefefe;stroke-width:0.08466666"
         d="M 3.4169035,91.380951 V 8.7462864 H 86.178568 168.94023 V 91.380951 174.01562 H 86.178568 3.4169035 Z"
         id="path3713"
         inkscape:connector-curvature="0" />
      <path
         style="fill:#cffafe;stroke-width:0.08466666"
         d="M 81.183235,172.31317 C 61.349324,171.15719 43.059221,163.06586 28.95566,149.20828 20.389646,140.79167 14.018547,131.01387 9.7848674,119.78662 5.5737192,108.61913 3.9209845,96.321514 4.9887195,84.099618 6.5470956,66.261562 14.136705,49.284728 26.440586,36.114966 38.102962,23.631855 53.186871,15.211316 69.837902,11.888569 77.301165,10.39926 85.22751,9.9776656 92.994235,10.656907 c 16.282725,1.42401 31.795255,7.8339 44.534665,18.40205 2.7559,2.286192 6.78839,6.209275 9.06846,8.822425 6.60418,7.568913 11.53945,15.80135 15.04357,25.093903 4.21115,11.167494 5.86389,23.465101 4.79615,35.687 -1.99248,22.807075 -13.72935,43.794895 -32.25419,57.676795 -7.73023,5.79279 -16.62157,10.22225 -25.90402,12.90482 -5.95316,1.72043 -11.82684,2.70916 -18.278524,3.07686 -1.737758,0.099 -7.066277,0.0944 -8.817111,-0.008 z m 5.164667,-9.79093 c 0.325966,-0.54499 0.748247,-1.25851 0.938401,-1.58559 0.190154,-0.32709 1.145677,-1.94725 2.123383,-3.60037 0.977705,-1.65311 2.521237,-4.26296 3.430083,-5.79966 0.908838,-1.5367 2.185492,-3.68935 2.837019,-4.78367 0.651527,-1.09432 1.692351,-2.84692 2.312958,-3.89467 0.620607,-1.04775 1.478957,-2.49555 1.907438,-3.21733 1.497016,-2.52172 3.745416,-6.31706 4.426386,-7.47183 l 0.6865,-1.16417 -0.99141,0.004 -0.99143,0.004 -8.594771,14.53726 c -6.812312,11.5224 -8.629471,14.53727 -8.762078,14.53727 -0.132568,0 -1.951825,-3.01482 -8.76213,-14.52033 l -8.594825,-14.52034 -0.95319,-0.024 -0.953191,-0.0239 0.243653,0.40494 c 0.134008,0.22273 0.852528,1.43365 1.59671,2.69095 0.744181,1.2573 1.973916,3.33375 2.732741,4.61434 0.758827,1.28058 1.875821,3.16653 2.482209,4.191 0.606389,1.02446 1.521653,2.56751 2.033919,3.429 0.512267,0.86148 1.224269,2.06163 1.582226,2.667 0.357957,0.60536 1.450591,2.45321 2.428077,4.10633 0.977486,1.65312 2.207889,3.72957 2.734231,4.61433 0.526342,0.88477 1.513359,2.55109 2.193371,3.70293 0.680013,1.15183 1.255437,2.09395 1.27872,2.09358 0.02328,0 0.309033,-0.44656 0.635,-0.99155 z M 46.112931,109.77395 c -0.0365,-0.0131 -6.581462,-3.88129 -14.544361,-8.59588 -11.463919,-6.78743 -14.478,-8.606774 -14.478,-8.739126 0,-0.132364 3.02198,-1.955911 14.520333,-8.761977 l 14.520333,-8.594824 0.02395,-0.953191 0.02395,-0.953191 -0.404949,0.243653 c -0.222722,0.134008 -1.433648,0.852529 -2.690948,1.59671 -1.2573,0.744182 -3.33375,1.973916 -4.614333,2.732742 -1.280584,0.758826 -3.166533,1.87582 -4.191,2.482209 -1.024467,0.606388 -2.567517,1.521652 -3.429,2.033918 -0.861483,0.512267 -2.061633,1.224269 -2.667,1.582226 -0.605367,0.357957 -2.453217,1.450592 -4.106333,2.428077 -1.653117,0.977486 -3.729567,2.20789 -4.614333,2.734231 -0.884767,0.526342 -2.551081,1.513359 -3.702919,2.193371 -1.151839,0.680013 -2.093955,1.255437 -2.093591,1.27872 5.93e-4,0.03968 1.229315,0.789827 2.577143,1.573403 0.327086,0.190153 1.94725,1.145675 3.600367,2.123381 1.653116,0.977705 4.262966,2.521238 5.799666,3.430083 1.5367,0.908835 3.68935,2.185495 4.783667,2.837015 1.094316,0.65153 2.846916,1.69236 3.894666,2.31296 1.04775,0.62061 2.49555,1.47896 3.217333,1.90744 2.630047,1.56133 6.335201,3.75627 7.450667,4.41379 l 1.143,0.67376 0.02403,-0.9778 c 0.01322,-0.53778 -0.0058,-0.98855 -0.04233,-1.0017 z m 82.314299,0.17316 c 1.2573,-0.74418 3.33375,-1.97391 4.61434,-2.73274 1.28058,-0.75882 3.16653,-1.87582 4.191,-2.48221 1.02446,-0.60639 2.56751,-1.52165 3.429,-2.03392 0.86148,-0.51226 2.06163,-1.22427 2.667,-1.58222 0.60536,-0.35796 2.45321,-1.450596 4.10633,-2.428081 1.65312,-0.977486 3.72957,-2.207887 4.61433,-2.734234 0.88477,-0.526339 2.55109,-1.513358 3.70293,-2.193366 1.15184,-0.680014 2.09395,-1.255438 2.09358,-1.278721 -8.4e-4,-0.03968 -1.22932,-0.789827 -2.57714,-1.573401 -0.32709,-0.190154 -1.94725,-1.145675 -3.60037,-2.12338 -1.65311,-0.977705 -4.26296,-2.521242 -5.79966,-3.430082 -1.5367,-0.90884 -3.68935,-2.185501 -4.78367,-2.837023 -1.09432,-0.651523 -2.84692,-1.692355 -3.89467,-2.31296 -1.04775,-0.620604 -2.49555,-1.478951 -3.21733,-1.907437 -2.52172,-1.49702 -6.31706,-3.745413 -7.47183,-4.426379 l -1.16417,-0.686507 0.004,0.991418 0.004,0.991418 14.53726,8.594775 c 11.5224,6.812313 14.53727,8.629472 14.53727,8.762079 0,0.132568 -3.01482,1.951828 -14.52033,8.762131 l -14.52034,8.59482 -0.024,0.9532 -0.0239,0.95318 0.40494,-0.24364 c 0.22273,-0.13401 1.43365,-0.85254 2.69095,-1.59672 z M 76.993344,37.295888 c 6.812313,-11.522399 8.629472,-14.537269 8.762079,-14.537269 0.132568,0 1.951825,3.014819 8.762126,14.520333 l 8.594831,14.520334 0.95319,0.02395 0.95319,0.02395 -0.24365,-0.404948 c -0.13401,-0.222722 -0.85253,-1.433648 -1.59671,-2.690948 -0.74419,-1.2573 -1.97392,-3.33375 -2.73274,-4.614334 -0.75883,-1.280583 -1.875829,-3.166533 -2.482211,-4.191 -0.606392,-1.024466 -1.521655,-2.567516 -2.033922,-3.428999 -0.512267,-0.861484 -1.224272,-2.061634 -1.582226,-2.667 -0.357953,-0.605367 -1.450594,-2.453217 -2.428079,-4.106334 -0.977485,-1.653116 -2.207886,-3.729566 -2.734233,-4.614333 -0.526339,-0.884767 -1.513355,-2.55108 -2.193367,-3.702919 -0.680013,-1.151839 -1.255437,-2.093954 -1.27872,-2.09359 -0.03968,5.92e-4 -0.789828,1.229315 -1.573401,2.577143 -0.190154,0.327085 -1.145675,1.947249 -2.12338,3.600366 -0.977706,1.653117 -2.521242,4.262967 -3.430082,5.799667 -0.90884,1.5367 -2.185501,3.68935 -2.837024,4.783666 -0.651522,1.094317 -1.692354,2.846917 -2.312959,3.894667 -0.620604,1.04775 -1.478951,2.49555 -1.907438,3.217333 -1.49702,2.521723 -3.745412,6.317065 -4.426378,7.471833 l -0.686507,1.164167 0.991418,-0.0042 0.991418,-0.0042 8.594775,-14.537268 z"
         id="path3711"
         inkscape:connector-curvature="0" />
      <path
         style="fill:#a1eafe;stroke-width:0.08466666"
         d="M 81.310235,172.22892 C 66.591322,171.40804 52.646344,166.73063 40.500903,158.5407 27.274382,149.62179 16.938328,136.9772 10.86189,122.2819 5.5123308,109.34448 3.6331297,95.128823 5.4115644,81.051618 7.8896325,61.436465 17.585815,43.340416 32.626903,30.259452 45.508182,19.056835 61.56231,12.22843 78.516235,10.741048 c 4.684713,-0.410994 9.708617,-0.410994 14.393333,0 20.826932,1.827164 40.139032,11.694961 53.925302,27.553904 11.20838,12.893506 18.03032,28.932822 19.51793,45.889333 0.411,4.684712 0.411,9.708616 0,14.393333 -1.82726,20.828032 -11.69411,40.138302 -27.5539,53.925302 -12.89394,11.20876 -28.93225,18.03027 -45.889332,19.51793 -3.39211,0.2976 -8.387384,0.3872 -11.599333,0.20807 z m 5.084152,-9.66447 c 0.339478,-0.57044 0.78855,-1.32292 0.997937,-1.67217 0.209388,-0.34925 1.167969,-1.9685 2.130188,-3.59833 2.896328,-4.9059 4.988179,-8.44018 6.238943,-10.541 0.651527,-1.09432 1.691775,-2.84692 2.311679,-3.89467 0.619896,-1.04775 1.292962,-2.18078 1.495705,-2.51784 0.202734,-0.33707 0.858081,-1.44197 1.456311,-2.45533 0.59823,-1.01338 1.76016,-2.97829 2.58205,-4.36648 0.8219,-1.3882 1.49437,-2.54072 1.49437,-2.56117 0,-0.0205 -0.45254,-0.0372 -1.00564,-0.0372 -0.78406,0 -1.02851,0.0276 -1.1095,0.12518 -0.0571,0.0688 -3.943702,6.61251 -8.636809,14.54149 -6.112958,10.32781 -8.574492,14.41633 -8.679497,14.41633 -0.105004,0 -2.567574,-4.08998 -8.682693,-14.42072 -4.694865,-7.93139 -8.581226,-14.47507 -8.636357,-14.5415 -0.07606,-0.0916 -0.332608,-0.12078 -1.063538,-0.12078 -0.529816,0 -0.9633,0.0185 -0.9633,0.0411 0,0.0226 0.109225,0.2226 0.242724,0.4445 0.133498,0.22188 0.8516,1.43213 1.595781,2.68943 0.744182,1.2573 1.973916,3.33375 2.732742,4.61434 0.758826,1.28058 1.87582,3.16653 2.482209,4.191 0.606388,1.02446 1.521652,2.56751 2.033918,3.429 0.512268,0.86148 1.224269,2.06163 1.582226,2.667 0.357958,0.60536 1.450592,2.45321 2.428077,4.10633 0.977486,1.65312 2.207752,3.72957 2.733925,4.61433 0.799019,1.34356 3.323975,5.60875 3.44589,5.82084 0.08847,0.1539 0.211735,0.002 0.792659,-0.97367 z m 2.166473,-48.8787 c 5.035016,-0.65165 9.416965,-2.8127 13.03056,-6.42629 3.63701,-3.63702 5.74023,-7.918589 6.44456,-13.119383 0.18643,-1.376555 0.18643,-4.141696 0,-5.51825 -0.70433,-5.200797 -2.80755,-9.482366 -6.44456,-13.119386 -3.637031,-3.637019 -7.918599,-5.740232 -13.119392,-6.444567 -1.376556,-0.186424 -4.141696,-0.186424 -5.518251,0 -5.200796,0.704335 -9.482365,2.807548 -13.119385,6.444567 -3.637019,3.63702 -5.740232,7.918589 -6.444568,13.119386 -0.186424,1.376554 -0.186424,4.141695 0,5.51825 0.704336,5.200794 2.807549,9.482363 6.444568,13.119383 4.001891,4.00189 8.895506,6.19706 14.693177,6.59105 0.801426,0.0545 3.048822,-0.0374 4.033291,-0.16476 z m -42.302624,-2.8211 c 0,-0.78407 -0.02758,-1.02852 -0.125169,-1.10951 -0.06884,-0.0571 -6.612517,-3.9437 -14.541499,-8.6368 -10.32781,-6.112961 -14.416331,-8.574494 -14.416331,-8.6795 0,-0.105003 4.08998,-2.567574 14.420719,-8.682692 7.931395,-4.694866 14.47507,-8.581227 14.5415,-8.636358 0.09164,-0.07606 0.12078,-0.332607 0.12078,-1.063538 0,-0.529815 -0.01848,-0.9633 -0.04106,-0.9633 -0.02258,0 -0.222608,0.109226 -0.4445,0.242724 -0.221891,0.133498 -1.432138,0.8516 -2.689438,1.595781 -1.2573,0.744182 -3.33375,1.973916 -4.614333,2.732742 -1.280584,0.758827 -3.166533,1.87582 -4.191,2.482209 -1.024467,0.606389 -2.567517,1.521652 -3.429,2.033919 -0.861483,0.512267 -2.061633,1.224268 -2.667,1.582226 -0.605367,0.357957 -2.453217,1.450591 -4.106333,2.428076 -1.653117,0.977486 -3.729567,2.207799 -4.614333,2.734029 -0.884767,0.526231 -2.560381,1.520415 -3.723587,2.2093 -1.163207,0.688883 -2.126601,1.287558 -2.140878,1.330388 -0.01428,0.04283 0.442137,0.356448 1.014253,0.696931 0.572117,0.340481 1.325962,0.790374 1.675212,0.999764 0.34925,0.209389 1.9685,1.167968 3.598333,2.130188 4.905903,2.896328 8.440184,4.988181 10.541,6.238941 1.094316,0.65153 2.846916,1.69235 3.894666,2.31296 1.04775,0.62061 2.49555,1.47896 3.217333,1.90744 0.721784,0.42849 2.436284,1.44528 3.81,2.25955 1.373717,0.81427 3.012017,1.7878 3.640667,2.1634 0.62865,0.37561 1.171575,0.68604 1.2065,0.68985 0.03493,0.004 0.0635,-0.44562 0.0635,-0.99872 z m 79.479564,0.76291 c 0.22188,-0.1335 1.43213,-0.8516 2.68943,-1.59578 1.2573,-0.74418 3.33375,-1.97392 4.61434,-2.73274 1.28058,-0.75883 3.16653,-1.87583 4.191,-2.48221 1.02446,-0.60639 2.56751,-1.52165 3.429,-2.03392 0.86148,-0.51227 2.06163,-1.22427 2.667,-1.58223 0.60536,-0.35795 2.45321,-1.45059 4.10633,-2.428075 1.65312,-0.977485 3.72957,-2.207793 4.61433,-2.73403 0.88477,-0.526229 2.56038,-1.52041 3.72359,-2.209292 1.1632,-0.688888 2.1266,-1.287563 2.14088,-1.330393 0.0143,-0.04283 -0.44214,-0.356448 -1.01425,-0.696931 -0.57212,-0.340482 -1.32597,-0.790376 -1.67522,-0.999764 -0.34925,-0.209387 -1.9685,-1.167971 -3.59833,-2.130187 -4.9059,-2.896333 -8.44018,-4.988181 -10.541,-6.238943 -1.09432,-0.651523 -2.84692,-1.691778 -3.89467,-2.311677 -1.04775,-0.6199 -2.18078,-1.292967 -2.51784,-1.495706 -0.33707,-0.202738 -1.44196,-0.858077 -2.45533,-1.456309 -1.01338,-0.598232 -2.97829,-1.760158 -4.36648,-2.582058 -1.3882,-0.8219 -2.54072,-1.494363 -2.56117,-1.494363 -0.0204,0 -0.0372,0.452535 -0.0372,1.005633 0,0.784067 0.0276,1.028521 0.12518,1.109514 0.0688,0.05713 6.61251,3.943694 14.5415,8.636801 10.3278,6.112955 14.41632,8.574491 14.41632,8.679496 0,0.105003 -4.08998,2.567572 -14.42072,8.682694 -7.93139,4.69486 -14.47507,8.58122 -14.5415,8.63636 -0.0916,0.0761 -0.12078,0.3326 -0.12078,1.06353 0,0.52982 0.0185,0.9633 0.0411,0.9633 0.0226,0 0.2226,-0.10922 0.4445,-0.24272 z M 68.439382,51.801117 c 0.05713,-0.06884 3.943695,-6.612517 8.636802,-14.5415 6.112954,-10.327809 8.57449,-14.416331 8.679496,-14.416331 0.105003,0 2.567571,4.089981 8.682689,14.420719 4.694868,7.931396 8.581231,14.475071 8.636361,14.5415 0.0761,0.09165 0.33261,0.120781 1.06353,0.120781 0.52982,0 0.96331,-0.01848 0.96331,-0.04106 0,-0.02258 -0.10923,-0.222608 -0.24272,-0.4445 -0.13351,-0.221891 -0.85161,-1.432138 -1.59578,-2.689438 -0.74419,-1.2573 -1.97392,-3.33375 -2.73275,-4.614334 -0.758823,-1.280583 -1.875822,-3.166533 -2.482205,-4.191 -0.606391,-1.024466 -1.521654,-2.567516 -2.033922,-3.428999 -0.512267,-0.861484 -1.224271,-2.061634 -1.582225,-2.667 -0.357954,-0.605367 -1.450594,-2.453217 -2.428079,-4.106334 -0.977485,-1.653116 -2.207793,-3.729566 -2.73403,-4.614333 -0.526229,-0.884767 -1.520412,-2.560381 -2.209297,-3.723587 -0.688883,-1.163206 -1.287558,-2.126601 -1.330388,-2.140877 -0.04283,-0.01428 -0.356449,0.442137 -0.696931,1.014253 -0.340482,0.572116 -0.790376,1.325961 -0.999764,1.675211 -0.209387,0.34925 -1.167971,1.9685 -2.130188,3.598333 -2.896332,4.905904 -4.98818,8.440185 -6.238942,10.541 -0.651523,1.094317 -1.691778,2.846917 -2.311677,3.894667 -0.6199,1.04775 -1.292968,2.18078 -1.495706,2.517846 -0.202739,0.337065 -0.858077,1.441965 -1.456309,2.455333 -0.598232,1.013368 -1.760158,2.978284 -2.582058,4.366479 -0.8219,1.388196 -1.494363,2.540721 -1.494363,2.561167 0,0.02045 0.452534,0.03717 1.005633,0.03717 0.784067,0 1.02852,-0.02758 1.109513,-0.125169 z"
         id="path3709"
         inkscape:connector-curvature="0" />
      <path
         style="fill:#64b9fd;stroke-width:0.08466666"
         d="M 81.733569,172.14538 C 63.312926,171.20622 46.284886,164.30188 32.308217,152.10491 30.478654,150.50831 26.5764,146.60469 24.97059,144.76471 13.681507,131.82941 6.9534438,116.3372 5.2430683,99.339618 4.9733477,96.659156 4.9009324,94.974653 4.9009324,91.380951 c 0,-3.593702 0.072415,-5.278203 0.3421359,-7.958666 C 6.9544441,66.414767 13.680225,50.935079 24.988942,37.976266 27.475137,35.127302 31.657145,31.106423 34.701236,28.63818 47.130717,18.559972 61.8109,12.515411 77.754235,10.911118 c 3.567526,-0.358981 9.842021,-0.469723 13.165667,-0.232369 18.260478,1.304054 34.523358,8.045118 48.197688,19.978242 1.82153,1.589593 5.72968,5.49774 7.31927,7.319275 11.30872,12.958813 18.0345,28.438501 19.74587,45.446019 0.26973,2.680463 0.34214,4.364964 0.34214,7.958666 0,5.972167 -0.41426,10.291009 -1.52479,15.896989 -2.74096,13.83617 -9.07054,26.63087 -18.54487,37.48677 -1.61284,1.84804 -5.51051,5.74571 -7.35855,7.35855 -12.61721,11.01148 -27.83197,17.75089 -44.248631,19.60005 -4.173288,0.47008 -9.077247,0.6279 -13.11446,0.42207 z m 4.573871,-9.36926 c 0.296661,-0.5006 0.766318,-1.29117 1.043683,-1.75684 0.277365,-0.46566 1.292075,-2.18016 2.254921,-3.81 3.268582,-5.53284 5.052611,-8.5465 6.240078,-10.541 0.651526,-1.09431 1.692351,-2.84691 2.312957,-3.89466 0.620607,-1.04775 1.478958,-2.49555 1.907441,-3.21734 4.08702,-6.88457 4.93226,-8.32094 4.99926,-8.49552 0.0514,-0.13385 -0.0319,-0.14375 -1.02518,-0.12192 l -1.08109,0.0238 -8.491584,14.34565 c -4.670374,7.89012 -8.565063,14.44332 -8.654864,14.56267 l -0.163274,0.21701 -0.285943,-0.45806 c -0.157268,-0.25194 -4.043029,-6.80514 -8.635023,-14.56267 l -8.34908,-14.1046 -1.027753,-0.0238 c -0.565264,-0.0131 -1.027753,0.003 -1.027753,0.0349 0,0.0735 0.1401,0.31619 1.777374,3.07921 0.731237,1.23402 1.95038,3.29142 2.709206,4.572 0.758827,1.28058 1.875821,3.16653 2.482209,4.191 0.606389,1.02447 1.521652,2.56752 2.033919,3.429 0.512267,0.86148 1.224269,2.06163 1.582226,2.667 0.357957,0.60537 1.450591,2.45322 2.428076,4.10633 0.977486,1.65312 2.208029,3.72957 2.734541,4.61434 0.526511,0.88476 1.548361,2.60879 2.270776,3.83116 0.722415,1.22238 1.338685,2.2225 1.369489,2.2225 0.0308,0 0.298728,-0.40957 0.595388,-0.91016 z m 3.257795,-41.58653 c 12.231295,-1.63443 22.129675,-10.35579 25.231195,-22.230972 0.69918,-2.677025 0.92558,-4.530513 0.92558,-7.577667 0,-3.047155 -0.2264,-4.900641 -0.92558,-7.577666 -2.7522,-10.537675 -10.96819,-18.753664 -21.505862,-21.505868 -2.677024,-0.699179 -4.530513,-0.925573 -7.577666,-0.925573 -3.047155,0 -4.900641,0.226394 -7.577667,0.925573 -10.537675,2.752204 -18.753663,10.968193 -21.505868,21.505868 -0.699179,2.677025 -0.925572,4.530511 -0.925572,7.577666 0,2.422712 0.101216,3.624064 0.470804,5.588 2.416824,12.842649 13.032433,22.750479 25.982303,24.249949 1.710489,0.19806 1.823414,0.20279 4.064,0.1704 1.443989,-0.0209 2.460261,-0.0816 3.344333,-0.19971 z m -43.325636,-10.39033 -0.0237,-1.07103 -14.345658,-8.49159 C 23.980133,96.566268 17.426934,92.671579 17.307579,92.581778 l -0.217009,-0.163274 0.458063,-0.285943 c 0.251934,-0.157268 6.805134,-4.043029 14.562666,-8.635023 l 14.104604,-8.349079 0.02377,-1.027754 c 0.01308,-0.565264 -0.0026,-1.027753 -0.03489,-1.027753 -0.07347,0 -0.316191,0.1401 -3.079212,1.777374 -1.234016,0.731237 -3.291416,1.95038 -4.572,2.709206 -1.280583,0.758827 -3.166533,1.875821 -4.190999,2.482209 -1.024467,0.606389 -2.567517,1.521653 -3.429,2.033919 -0.861484,0.512267 -2.061634,1.224269 -2.667,1.582226 -0.605367,0.357957 -2.453217,1.450591 -4.106334,2.428076 -1.653116,0.977486 -3.729566,2.207956 -4.614333,2.734379 -0.884766,0.526423 -2.599266,1.542948 -3.81,2.258946 -1.210733,0.715998 -2.201333,1.33669 -2.201333,1.379315 0,0.04263 0.3429,0.282605 0.762,0.533287 1.149762,0.687727 3.794424,2.255432 6.35,3.764158 4.300892,2.539102 7.873898,4.654143 9.863666,5.838793 1.094317,0.65152 2.846917,1.69235 3.894667,2.31296 1.04775,0.6206 2.49555,1.47895 3.217333,1.90743 7.334748,4.35428 8.493298,5.03451 8.57503,5.03481 0.03632,0 0.05537,-0.48172 0.04233,-1.07078 z m 79.513191,0.8471 c 0.21365,-0.12316 1.39809,-0.82222 2.63211,-1.55345 1.23402,-0.73124 3.29142,-1.95038 4.572,-2.70921 1.28058,-0.75882 3.16653,-1.87582 4.191,-2.4822 1.02447,-0.60639 2.56752,-1.52166 3.429,-2.03392 0.86148,-0.51227 2.06163,-1.22428 2.667,-1.58223 0.60537,-0.35795 2.45322,-1.450593 4.10633,-2.428078 1.65312,-0.977485 3.72957,-2.207954 4.61434,-2.734378 0.88476,-0.526423 2.59926,-1.542948 3.81,-2.258949 1.21073,-0.715994 2.20133,-1.336686 2.20133,-1.379311 0,-0.04263 -0.3429,-0.282605 -0.762,-0.533287 -1.14976,-0.687723 -3.79442,-2.255427 -6.35,-3.764156 -4.30089,-2.539106 -7.8739,-4.654145 -9.86367,-5.838793 -1.09431,-0.651522 -2.84691,-1.692354 -3.89466,-2.312959 -1.04775,-0.620604 -2.49555,-1.478952 -3.21734,-1.907438 -6.88457,-4.087024 -8.32094,-4.932267 -8.49552,-4.999257 -0.13385,-0.05137 -0.14375,0.03192 -0.12192,1.025178 l 0.0238,1.081086 14.34565,8.491588 c 7.89012,4.670374 14.44332,8.565061 14.56267,8.654862 l 0.21701,0.163274 -0.45806,0.285943 c -0.25194,0.157268 -6.80514,4.043026 -14.56267,8.635025 l -14.1046,8.34908 -0.0238,1.02775 c -0.0131,0.56526 0.003,1.02775 0.0349,1.02775 0.0323,0 0.23346,-0.10077 0.4471,-0.22392 z M 76.95788,37.538295 c 4.670373,-7.890112 8.565061,-14.443312 8.654862,-14.562666 l 0.163274,-0.21701 0.285943,0.458063 c 0.157268,0.251934 4.043026,6.805134 8.635024,14.562667 l 8.349077,14.104603 1.02776,0.02377 c 0.56526,0.01308 1.02775,-0.0026 1.02775,-0.03489 0,-0.07347 -0.1401,-0.316191 -1.77738,-3.079211 -0.73124,-1.234017 -1.95038,-3.291417 -2.7092,-4.572 -0.758827,-1.280583 -1.875825,-3.166533 -2.482208,-4.191 -0.606391,-1.024467 -1.521655,-2.567517 -2.033922,-3.429 -0.512267,-0.861483 -1.224271,-2.061633 -1.582225,-2.667 -0.357954,-0.605366 -1.450594,-2.453216 -2.428079,-4.106333 -0.977485,-1.653117 -2.207955,-3.729567 -2.734378,-4.614333 -0.526423,-0.884767 -1.542947,-2.599267 -2.258945,-3.81 -0.715998,-1.210733 -1.33669,-2.201333 -1.379315,-2.201333 -0.04263,0 -0.282605,0.3429 -0.533287,0.762 -0.687723,1.149762 -2.255428,3.794423 -3.764156,6.349999 -2.539106,4.300893 -4.654145,7.873899 -5.838793,9.863667 -0.651523,1.094316 -1.692354,2.846916 -2.312959,3.894666 -0.620605,1.04775 -1.478952,2.49555 -1.907438,3.217334 -4.087024,6.884573 -4.932267,8.320943 -4.999257,8.495516 -0.05137,0.133857 0.03192,0.143762 1.025178,0.121921 l 1.081086,-0.02377 z"
         id="path3707"
         inkscape:connector-curvature="0" />
      <path
         style="fill:#3c6f97;stroke-width:0.08466666"
         d="m 85.566358,167.3086 c -0.04801,-0.0598 -0.706984,-1.1564 -1.464388,-2.43698 -0.757404,-1.28059 -1.413019,-2.35172 -1.456924,-2.38031 -0.0439,-0.0286 -0.581273,-0.0782 -1.194152,-0.11018 -1.507771,-0.0788 -4.090652,-0.3419 -5.940325,-0.60516 -13.911623,-1.98003 -27.128763,-8.21589 -37.592,-17.73595 -1.435657,-1.30625 -4.423874,-4.33363 -5.59573,-5.66907 -10.283643,-11.71918 -16.465632,-26.4365 -17.547881,-41.775844 -0.06009,-0.851637 -0.09728,-1.029742 -0.238679,-1.143 -0.09213,-0.07379 -1.202819,-0.743755 -2.468207,-1.488821 -1.389464,-0.818124 -2.3005651,-1.404968 -2.3003513,-1.481667 2.116e-4,-0.07637 0.9621103,-0.69588 2.4127683,-1.553944 1.326828,-0.784819 2.412499,-1.470619 2.412601,-1.524 0.0026,-1.36608 0.391047,-5.887873 0.684692,-7.971056 1.939796,-13.761305 7.837736,-26.562289 17.086123,-37.083999 1.199024,-1.364107 4.09393,-4.296236 5.554664,-5.62609 9.976771,-9.082852 22.462581,-15.179215 35.729333,-17.44532 2.521815,-0.430752 5.551813,-0.77536 7.898544,-0.898316 1.086499,-0.05693 1.130396,-0.06652 1.275899,-0.278947 0.08288,-0.120997 0.738583,-1.219878 1.457122,-2.441959 0.788098,-1.340385 1.356823,-2.221846 1.433435,-2.221665 0.07638,1.77e-4 0.701242,0.970106 1.567826,2.433632 l 1.440829,2.433332 1.54526,0.09832 c 15.718023,1.000054 30.525293,7.1375 42.436083,17.589285 1.33544,1.171856 4.36282,4.160073 5.66907,5.595731 6.64626,7.304727 11.77253,16.064809 14.86369,25.4 2.0047,6.05413 3.16856,12.271711 3.51049,18.753666 0.0754,1.428737 0.10785,1.668097 0.24132,1.778 0.0848,0.06985 1.18954,0.7366 2.45492,1.481666 1.38705,0.816698 2.30069,1.405101 2.30065,1.481667 -3e-5,0.07664 -0.98758,0.71038 -2.49034,1.598151 -1.75781,1.038428 -2.50448,1.524042 -2.53855,1.651 -0.0265,0.09892 -0.0488,0.361696 -0.0494,0.583946 -0.002,0.611708 -0.31251,3.552105 -0.55681,5.268562 -1.92868,13.55084 -7.84414,26.34807 -17.00496,36.78767 -1.17185,1.33544 -4.16007,4.36282 -5.59573,5.66907 -10.46694,9.52343 -23.67545,15.75522 -37.591995,17.73595 -1.85613,0.26417 -4.433578,0.52643 -5.956063,0.60601 -0.637684,0.0333 -1.167782,0.0998 -1.216626,0.15252 -0.04761,0.0514 -0.72018,1.15735 -1.494603,2.45768 -0.774423,1.30032 -1.449948,2.37792 -1.501167,2.39465 -0.05122,0.0167 -0.132408,-0.0185 -0.180418,-0.0782 z m 0.872133,-4.74415 c 0.368375,-0.61701 0.711815,-1.19803 0.763197,-1.29117 0.05138,-0.0931 0.219229,-0.37888 0.372993,-0.635 0.153763,-0.25611 1.067611,-1.79916 2.030779,-3.429 3.546086,-6.00057 5.083683,-8.59769 6.240662,-10.541 0.651526,-1.09431 1.692351,-2.84691 2.312957,-3.89466 0.620607,-1.04775 1.478958,-2.49555 1.907441,-3.21734 4.92572,-8.29735 5.05934,-8.5282 4.99569,-8.63119 -0.0333,-0.0539 -0.41942,-0.0895 -0.97226,-0.0895 -0.75249,0 -0.94726,0.0266 -1.08591,0.14816 -0.0929,0.0815 -3.986508,6.60612 -8.652421,14.49917 -4.665912,7.89305 -8.532549,14.40188 -8.59252,14.46406 -0.09033,0.0937 -0.137521,0.0719 -0.275052,-0.127 -0.09131,-0.13203 -3.949043,-6.64086 -8.572745,-14.46406 -4.623701,-7.8232 -8.482427,-14.29067 -8.574945,-14.37217 -0.137023,-0.12069 -0.330389,-0.14816 -1.042838,-0.14816 -0.508682,0 -0.897171,0.0365 -0.928515,0.0872 -0.06086,0.0985 -0.07567,0.0718 1.736606,3.13013 0.731237,1.23402 1.95038,3.29142 2.709206,4.572 0.758827,1.28058 1.875821,3.16653 2.482209,4.191 0.606389,1.02447 1.521652,2.56752 2.033919,3.429 0.512267,0.86148 1.224269,2.06163 1.582226,2.667 0.357957,0.60537 1.450591,2.45322 2.428076,4.10633 0.977486,1.65312 2.208029,3.72957 2.734541,4.61434 0.526511,0.88476 1.548361,2.60879 2.270776,3.83116 0.722415,1.22238 1.338834,2.2225 1.369819,2.2225 0.03098,0 0.357734,-0.50482 0.726109,-1.12183 z m -0.365293,-6.18067 c 0.207803,-0.3376 0.76985,-1.28058 1.248994,-2.0955 0.479144,-0.81491 1.108518,-1.88171 1.398612,-2.37066 0.290093,-0.48895 1.13676,-1.9177 1.881488,-3.175 3.665076,-6.18769 4.643399,-7.83668 4.972939,-8.382 0.196985,-0.32597 0.806331,-1.35467 1.354107,-2.286 0.547777,-0.93134 1.156987,-1.96004 1.353795,-2.286 0.196816,-0.32597 0.864387,-1.44992 1.483495,-2.49767 0.619112,-1.04775 1.477432,-2.49555 1.907392,-3.21733 l 0.78174,-1.31234 3.01849,-0.0222 c 2.44277,-0.018 3.02668,-8.4e-4 3.06151,0.0899 0.0237,0.0617 -3.61971,6.30103 -8.0964,13.86523 -4.476678,7.56422 -8.158729,13.80074 -8.182326,13.85895 -0.06441,0.15882 0.431639,0.13504 2.238443,-0.10735 12.225993,-1.64014 23.741533,-6.70158 33.211423,-14.59747 2.99012,-2.49312 6.05388,-5.55738 8.51361,-8.51502 7.716,-9.27785 12.81332,-20.73764 14.46923,-32.52966 0.25423,-1.810407 0.25089,-1.749312 0.0926,-1.68858 -0.0681,0.02614 -5.01162,2.93947 -10.9855,6.47406 -5.97389,3.53459 -12.13161,7.17773 -13.68383,8.09587 -1.56018,0.92287 -2.87584,1.64877 -2.94216,1.62333 -0.10038,-0.0385 -0.11996,-0.53609 -0.11996,-3.04858 v -3.00255 l 0.8255,-0.43997 c 0.45403,-0.24198 1.0541,-0.58235 1.3335,-0.75637 0.2794,-0.17402 1.3462,-0.81252 2.37067,-1.41888 2.0022,-1.18508 4.73121,-2.80477 6.54134,-3.88234 1.30692,-0.778 1.08822,-0.64856 3.74566,-2.21712 1.14088,-0.673418 2.24578,-1.328898 2.45533,-1.456635 0.20955,-0.127737 1.04775,-0.624772 1.86267,-1.104536 1.6412,-0.966207 6.81258,-4.032301 8.23383,-4.881815 0.50059,-0.299213 0.91017,-0.556701 0.91017,-0.572192 0,-0.0396 -0.9785,-0.637313 -2.70934,-1.654985 -0.81491,-0.479143 -1.88171,-1.10852 -2.37066,-1.398613 -0.48895,-0.290095 -1.9177,-1.136761 -3.175,-1.881483 -6.18769,-3.665079 -7.83668,-4.643405 -8.382,-4.972944 -0.32597,-0.196981 -1.35467,-0.806327 -2.286,-1.354103 -0.93134,-0.547776 -1.96004,-1.156985 -2.286,-1.3538 -0.32597,-0.196814 -1.44992,-0.863654 -2.49767,-1.481865 -1.04775,-0.618212 -2.30505,-1.361976 -2.794,-1.65281 -0.48895,-0.290834 -1.06045,-0.615125 -1.27,-0.720647 -0.20955,-0.105521 -0.40899,-0.234365 -0.4432,-0.286317 -0.0342,-0.05195 -0.0628,-1.43868 -0.0635,-3.081617 -10e-4,-2.491546 0.0185,-2.994749 0.11794,-3.032912 0.066,-0.02533 2.30567,1.247655 5.0165,2.851269 2.69349,1.593363 8.94912,5.294415 13.90139,8.22456 4.95227,2.930145 9.01958,5.312084 9.03846,5.293198 0.13119,-0.131181 -0.54183,-5.046261 -1.0229,-7.470291 C 146.99946,62.912583 138.32165,48.989799 125.5845,39.215214 116.59811,32.318986 105.7281,27.807577 94.518235,26.321692 c -1.830807,-0.242676 -2.333938,-0.279874 -2.313305,-0.17103 0.0083,0.04361 2.517868,4.308391 5.576892,9.477291 3.059028,5.168899 6.741298,11.391891 8.182828,13.828868 1.46108,2.470025 2.6006,4.483959 2.57494,4.550834 -0.0385,0.100387 -0.53603,0.119964 -3.04859,0.119964 h -3.00254 l -0.43997,-0.8255 c -0.24199,-0.454025 -0.58236,-1.0541 -0.75637,-1.3335 -0.17403,-0.2794 -0.81252,-1.3462 -1.418888,-2.370667 -1.185079,-2.002201 -2.804769,-4.731216 -3.882339,-6.541343 -0.778002,-1.30692 -0.648555,-1.088222 -2.217124,-3.745657 -0.673413,-1.140883 -1.328894,-2.245783 -1.45663,-2.455333 -0.127737,-0.20955 -0.624772,-1.04775 -1.104536,-1.862666 -0.966208,-1.641201 -4.032302,-6.812583 -4.881815,-8.233834 -0.299214,-0.500591 -0.556701,-0.910166 -0.572192,-0.910166 -0.0396,0 -0.637313,0.978503 -1.654985,2.709333 -0.479144,0.814917 -1.10852,1.881717 -1.398614,2.370667 -0.290094,0.48895 -1.13676,1.9177 -1.881482,3.175 -3.665079,6.187686 -4.643406,7.836675 -4.972944,8.381999 -0.196981,0.325967 -0.806328,1.354667 -1.354103,2.286 -0.547776,0.931334 -1.156985,1.960034 -1.3538,2.286 -0.196814,0.325967 -0.863654,1.449917 -1.481865,2.497667 -0.618212,1.04775 -1.361976,2.30505 -1.65281,2.794 -0.290834,0.48895 -0.615125,1.06045 -0.720647,1.27 -0.105522,0.20955 -0.234365,0.408991 -0.286317,0.443204 -0.05195,0.03421 -1.438681,0.06279 -3.081617,0.0635 -2.494067,0.0011 -2.994723,-0.01842 -3.032994,-0.118152 -0.02558,-0.06667 2.25236,-4.003928 5.155656,-8.911166 2.86082,-4.835446 6.543056,-11.058669 8.182745,-13.829386 1.63969,-2.770716 2.987966,-5.073347 2.996169,-5.116957 0.02047,-0.10884 -0.48258,-0.07165 -2.313419,0.17103 -11.209868,1.485885 -22.079875,5.997294 -31.06627,12.893522 -11.837589,9.084256 -20.203152,21.799662 -23.834834,36.228242 -0.430667,1.711023 -1.024683,4.757392 -1.266894,6.497162 -0.162447,1.166841 -0.474001,3.845241 -0.474001,4.074947 0,0.01726 0.03851,0.03139 0.08558,0.03139 0.04707,0 4.666695,-2.710638 10.265833,-6.02364 5.59914,-3.313002 11.850135,-7.011623 13.891103,-8.21916 2.07134,-1.225506 3.764008,-2.175123 3.831167,-2.149351 0.100848,0.0387 0.120316,0.532017 0.120316,3.048715 v 3.002545 l -0.8255,0.439972 c -0.454025,0.241985 -1.0541,0.582351 -1.3335,0.75637 -0.2794,0.17402 -1.3462,0.812518 -2.370666,1.418886 -2.002202,1.185077 -4.731217,2.804767 -6.541343,3.882334 -1.306921,0.778009 -1.088223,0.648557 -3.745657,2.217125 -1.140883,0.673414 -2.245783,1.328899 -2.455333,1.456635 -0.20955,0.127735 -1.04775,0.624775 -1.862667,1.104531 -1.641201,0.966207 -6.812582,4.032305 -8.233833,4.881818 -0.500592,0.299213 -0.910167,0.556701 -0.910167,0.572192 0,0.0396 0.978504,0.637313 2.709333,1.654987 0.814917,0.479146 1.881717,1.108515 2.370667,1.398609 0.48895,0.290093 1.9177,1.13676 3.175,1.881488 6.187686,3.665069 7.836675,4.643399 8.382,4.972939 0.325966,0.19698 1.354666,0.80633 2.286,1.3541 0.931333,0.54778 1.960033,1.15699 2.286,1.3538 0.325966,0.19682 1.449916,0.86366 2.497666,1.48187 1.04775,0.61821 2.30505,1.36197 2.794,1.65281 0.48895,0.29083 1.06045,0.61512 1.27,0.72064 0.20955,0.10553 0.408992,0.23437 0.443204,0.28632 0.03421,0.052 0.06279,1.43868 0.0635,3.08162 0.0011,2.49407 -0.01842,2.99472 -0.118151,3.03299 -0.06667,0.0256 -4.003929,-2.25236 -8.911167,-5.15565 -4.835445,-2.86082 -11.055182,-6.54056 -13.821637,-8.17719 -2.766455,-1.63663 -5.04796,-2.957652 -5.070011,-2.935596 -0.152598,0.152595 0.859982,5.858536 1.469158,8.278776 3.404852,13.52739 10.975303,25.57606 21.675834,34.49794 9.513214,7.93192 21.00033,12.98634 33.248027,14.62939 1.539656,0.20655 2.263243,0.26053 2.263243,0.16886 0,-0.0391 -2.334608,-3.99193 -13.521207,-22.89309 -1.554796,-2.62702 -2.807374,-4.8273 -2.783505,-4.8895 0.03507,-0.0914 0.619096,-0.11309 3.045206,-0.11309 h 3.001808 l 0.418367,0.7947 c 0.230101,0.43708 0.559467,1.01811 0.731923,1.29117 0.172456,0.27305 0.798456,1.31561 1.39111,2.3168 1.255333,2.12065 3.004319,5.06772 3.957442,6.66834 0.776596,1.30417 0.645024,1.08191 2.217319,3.74566 0.673414,1.14088 1.328899,2.24578 1.456635,2.45533 0.127735,0.20955 0.624774,1.04775 1.104531,1.86267 0.966207,1.6412 4.032304,6.81258 4.881818,8.23383 0.299213,0.50059 0.556701,0.91017 0.572192,0.91017 0.01549,0 0.198187,-0.27623 0.40599,-0.61384 z m -0.589403,-8.46384 c -0.04685,-0.0598 -1.097006,-1.82316 -2.333672,-3.91866 -1.236666,-2.0955 -3.73554,-6.32329 -5.553053,-9.3951 -2.48676,-4.20291 -3.282175,-5.6121 -3.214078,-5.69415 0.07314,-0.0881 2.24191,-0.10492 11.312313,-0.0876 7.386865,0.0141 11.231443,0.0504 11.249976,0.10615 0.03614,0.10869 -11.159129,19.0282 -11.283172,19.06805 -0.05122,0.0165 -0.131461,-0.019 -0.178314,-0.0787 z M 38.188008,97.37464 c -6.689741,-3.861486 -9.707488,-5.646683 -9.6909,-5.732818 0.01325,-0.0688 1.281248,-0.834234 2.817775,-1.70097 14.735091,-8.311883 16.405905,-9.238548 16.495658,-9.148795 0.159822,0.159821 0.33833,22.107273 0.180242,22.160663 -0.04828,0.0163 -4.45953,-2.49383 -9.802775,-5.57808 z m 84.553022,5.49981 c -0.0678,-0.109 -0.16253,-7.635975 -0.21222,-16.869832 -0.0266,-4.936568 -0.0195,-5.248647 0.1184,-5.237828 0.0807,0.0063 4.49189,2.519866 9.80275,5.58564 6.64298,3.834756 9.6486,5.61313 9.63204,5.699103 -0.0132,0.06873 -1.28122,0.834115 -2.81775,1.700855 -9.9238,5.597889 -16.3817,9.227892 -16.41673,9.227892 -0.0223,0 -0.0703,-0.0476 -0.10649,-0.10583 z M 73.984349,54.293361 c -0.05835,-0.09441 0.101746,-0.369558 6.796308,-11.680409 2.598764,-4.390762 4.434704,-7.408333 4.507352,-7.408333 0.07169,0 1.005695,1.493667 2.250066,3.598333 1.170122,1.979084 3.693519,6.244879 5.607552,9.479545 2.617555,4.423607 3.457643,5.908215 3.38963,5.990167 -0.118127,0.142339 -22.463055,0.162847 -22.550908,0.0207 z M 46.32439,110.88121 c 0.02032,-0.79585 0.0017,-0.95825 -0.127,-1.10517 -0.08295,-0.0947 -6.608771,-3.98979 -14.50182,-8.6557 -7.89305,-4.665917 -14.401879,-8.532553 -14.464063,-8.592524 -0.09366,-0.09033 -0.07188,-0.137522 0.127,-0.275053 0.132034,-0.09131 6.640863,-3.949043 14.464063,-8.572744 7.823199,-4.623702 14.290674,-8.482428 14.372166,-8.574945 0.120693,-0.137024 0.148167,-0.33039 0.148167,-1.042839 0,-0.508682 -0.03648,-0.897171 -0.0872,-0.928515 -0.09848,-0.06086 -0.07178,-0.07567 -3.130135,1.736606 -1.234016,0.731237 -3.291416,1.95038 -4.572,2.709206 -1.280583,0.758827 -3.166533,1.875821 -4.190999,2.482209 -1.024467,0.606389 -2.567517,1.521653 -3.429,2.033919 -0.861484,0.512267 -2.061634,1.224269 -2.667,1.582226 -0.605367,0.357957 -2.453217,1.450591 -4.106334,2.428076 -1.653116,0.977486 -3.729566,2.207956 -4.614333,2.734379 -0.884766,0.526423 -2.599266,1.542948 -3.81,2.258946 -1.210733,0.715998 -2.201333,1.336576 -2.201333,1.379064 0,0.05959 2.195053,1.4426 2.289639,1.4426 0.01176,0 0.282456,0.158742 0.601541,0.352764 0.319084,0.194014 1.913653,1.140011 3.543486,2.102214 4.891833,2.887972 8.437113,4.986321 10.541,6.238911 1.094317,0.65152 2.846917,1.69235 3.894667,2.31296 1.04775,0.6206 2.49555,1.47895 3.217333,1.90743 8.039636,4.77273 8.49622,5.03874 8.593667,5.00673 0.04765,-0.0156 0.09508,-0.43568 0.108487,-0.96075 z m 79.4284,0.76515 c 0.21365,-0.12316 1.39809,-0.82222 2.63211,-1.55345 1.23402,-0.73124 3.29142,-1.95038 4.572,-2.70921 1.28058,-0.75882 3.16653,-1.87582 4.191,-2.4822 1.02447,-0.60639 2.56752,-1.52166 3.429,-2.03392 0.86148,-0.51227 2.06163,-1.22428 2.667,-1.58223 0.60537,-0.35795 2.45322,-1.450593 4.10633,-2.428078 1.65312,-0.977485 3.72957,-2.207954 4.61434,-2.734378 0.88476,-0.526423 2.59926,-1.542948 3.81,-2.258949 1.21073,-0.715994 2.20133,-1.336572 2.20133,-1.37906 0,-0.05959 -2.19505,-1.4426 -2.28964,-1.4426 -0.0118,0 -0.28246,-0.158743 -0.60154,-0.352762 -0.31908,-0.19402 -1.91365,-1.140016 -3.54349,-2.102214 -4.89182,-2.887972 -8.43711,-4.98632 -10.541,-6.238911 -1.09431,-0.651522 -2.84691,-1.692354 -3.89466,-2.312959 -1.04775,-0.620604 -2.49555,-1.478952 -3.21734,-1.907438 -8.29735,-4.925723 -8.5282,-5.059336 -8.63119,-4.995689 -0.0539,0.03334 -0.0895,0.419414 -0.0895,0.972257 0,0.752486 0.0266,0.94726 0.14816,1.085905 0.0815,0.09292 6.60612,3.986513 14.49917,8.652428 7.89305,4.665914 14.40188,8.532547 14.46406,8.592519 0.0937,0.09033 0.0719,0.137521 -0.127,0.275052 -0.13203,0.09131 -6.64086,3.949039 -14.46406,8.572747 -7.8232,4.6237 -14.29067,8.48242 -14.37217,8.57494 -0.22208,0.25214 -0.21625,2.01212 0.007,2.01212 0.0231,0 0.21675,-0.10077 0.43039,-0.22392 z M 68.421757,51.862786 c 0.09292,-0.08149 3.986514,-6.606117 8.652429,-14.499167 4.665914,-7.89305 8.532547,-14.401878 8.592518,-14.464063 0.09033,-0.09366 0.137522,-0.07187 0.275053,0.127 0.09131,0.132035 3.949038,6.640863 8.572744,14.464063 4.623706,7.8232 8.482419,14.290675 8.574949,14.372167 0.13702,0.120693 0.33038,0.148166 1.04284,0.148166 0.50867,0 0.89717,-0.03648 0.92851,-0.0872 0.0609,-0.09848 0.0757,-0.07178 -1.73661,-3.130135 -0.73124,-1.234017 -1.95038,-3.291417 -2.7092,-4.572 -0.758827,-1.280583 -1.875825,-3.166533 -2.482208,-4.191 -0.606391,-1.024467 -1.521655,-2.567517 -2.033922,-3.429 -0.512267,-0.861483 -1.224271,-2.061633 -1.582225,-2.667 -0.357954,-0.605366 -1.450594,-2.453216 -2.428079,-4.106333 -0.977485,-1.653117 -2.207955,-3.729567 -2.734378,-4.614333 -0.526423,-0.884767 -1.542947,-2.599267 -2.258945,-3.81 -0.715998,-1.210733 -1.336576,-2.201333 -1.379064,-2.201333 -0.05959,0 -1.4426,2.195052 -1.4426,2.289638 0,0.01176 -0.158744,0.282457 -0.352762,0.601542 -0.19402,0.319084 -1.140016,1.913653 -2.102214,3.543486 -2.887972,4.891833 -4.98632,8.437113 -6.238911,10.541 -0.651523,1.094316 -1.692354,2.846916 -2.312959,3.894666 -0.620605,1.04775 -1.478952,2.49555 -1.907438,3.217334 -4.925723,8.297357 -5.059336,8.528205 -4.99569,8.631189 0.03334,0.05395 0.419415,0.08948 0.972257,0.08948 0.752487,0 0.947261,-0.02658 1.085905,-0.148167 z"
         id="path3705"
         inkscape:connector-curvature="0" />
      <path
         style="fill:#2a4d69;stroke-width:0.08466666"
         d="m 84.442902,165.28461 c -0.62865,-1.07385 -1.281224,-2.17175 -1.450162,-2.43978 l -0.307163,-0.48732 -1.089837,-0.0583 c -2.330686,-0.12465 -5.239377,-0.45142 -7.685717,-0.86343 -13.321741,-2.24358 -25.49096,-8.12491 -35.753578,-17.27955 -1.365717,-1.21827 -4.496072,-4.38793 -5.728413,-5.80035 -8.90674,-10.20822 -14.54948,-22.04546 -16.77359,-35.18732 -0.300648,-1.77648 -0.60984,-4.297208 -0.724092,-5.903275 -0.053,-0.745067 -0.122036,-1.462058 -0.153408,-1.593308 -0.0491,-0.20541 -0.392829,-0.437592 -2.468426,-1.667324 -1.326263,-0.785781 -2.4230754,-1.463756 -2.4373615,-1.506615 -0.014286,-0.04286 1.0396685,-0.711227 2.3421215,-1.485263 1.302454,-0.774035 2.390522,-1.443622 2.417931,-1.48797 0.02741,-0.04435 0.0874,-0.797382 0.133307,-1.67341 0.685073,-13.072067 4.722633,-25.248789 11.940129,-36.009776 3.913414,-5.834738 8.834802,-11.226618 14.276995,-15.641892 10.201018,-8.276132 22.498586,-13.561038 35.502597,-15.257315 1.599365,-0.208625 3.655473,-0.40186 5.094415,-0.478776 0.59001,-0.03154 1.108974,-0.08052 1.15325,-0.108846 0.04428,-0.02833 0.717854,-1.127829 1.496838,-2.443337 0.778985,-1.315508 1.446289,-2.391833 1.482901,-2.391833 0.03661,0 0.705397,1.076325 1.486192,2.391833 0.780795,1.315508 1.454943,2.41501 1.498098,2.443337 0.04316,0.02833 0.561213,0.07731 1.151229,0.108846 11.362982,0.607392 22.810032,4.169343 32.708482,10.177817 6.86898,4.169542 13.25969,9.748195 18.33849,16.008234 8.85518,10.91475 14.27405,24.214499 15.55189,38.169598 0.0725,0.791633 0.16962,2.160804 0.21584,3.042601 0.0462,0.881798 0.11315,1.630289 0.14871,1.663314 0.0356,0.03303 1.14259,0.697415 2.46004,1.476421 1.31747,0.779005 2.38385,1.450996 2.36974,1.493313 -0.0141,0.04232 -1.12941,0.733485 -2.47846,1.535932 -1.92068,1.142458 -2.46577,1.504636 -2.5125,1.669372 -0.0328,0.115706 -0.10257,0.81998 -0.155,1.565047 -0.0524,0.745066 -0.18791,2.090741 -0.3011,2.990395 -1.81548,14.43036 -7.89176,27.70425 -17.70702,38.68172 -1.05387,1.17867 -4.03825,4.16305 -5.21692,5.21692 -8.76996,7.84148 -19.0578,13.32754 -30.26759,16.14042 -4.165889,1.04535 -8.976497,1.77827 -13.140192,2.00198 -0.582083,0.0313 -1.098338,0.0884 -1.147241,0.12687 -0.0489,0.0385 -0.71565,1.13685 -1.481667,2.44079 -0.836463,1.42385 -1.443484,2.37116 -1.519758,2.37173 -0.07661,8.5e-4 -0.580527,-0.77375 -1.27,-1.9515 z m 1.861489,-2.36486 c 0.639655,-1.06662 2.136098,-3.59038 3.787606,-6.3878 2.539103,-4.30089 4.654144,-7.8739 5.838791,-9.86367 0.651527,-1.09431 1.692351,-2.84691 2.312958,-3.89466 0.620607,-1.04775 1.478957,-2.49555 1.907434,-3.21734 4.63421,-7.8063 5.03505,-8.49235 5.03505,-8.61762 0,-0.0756 -0.29148,-0.10304 -1.09586,-0.10304 -1.04033,0 -1.10266,0.01 -1.22981,0.1905 -0.0737,0.10477 -3.951292,6.64012 -8.616941,14.52298 -4.934738,8.33751 -8.527286,14.32252 -8.588879,14.30867 -0.05823,-0.0131 -3.881499,-6.40557 -8.496146,-14.20549 -4.614646,-7.79991 -8.483528,-14.32454 -8.597513,-14.49916 l -0.207248,-0.3175 h -1.057132 c -0.746638,0 -1.057132,0.0289 -1.057132,0.0984 0,0.11603 0.05142,0.20626 1.777374,3.11894 0.731237,1.23402 1.950381,3.29142 2.709206,4.572 0.758827,1.28058 1.875821,3.16653 2.482209,4.191 0.606389,1.02447 1.521653,2.56752 2.033919,3.429 0.512267,0.86148 1.224269,2.06163 1.582226,2.667 0.357957,0.60537 1.450591,2.45322 2.428077,4.10633 0.977486,1.65312 2.207751,3.72957 2.733924,4.61434 0.526174,0.88476 1.507695,2.54211 2.181158,3.683 1.526292,2.58562 1.453232,2.47189 1.564226,2.43489 0.05107,-0.017 0.308699,-0.39086 0.572503,-0.83076 z m 0.900841,-8.27163 c 0.796257,-1.33879 2.056558,-3.46287 2.800668,-4.72017 0.744118,-1.2573 1.905584,-3.21945 2.581055,-4.36033 0.67547,-1.14089 1.620824,-2.74109 2.100791,-3.556 0.479967,-0.81492 0.957241,-1.61502 1.060619,-1.778 0.10337,-0.16299 0.636905,-1.05834 1.18563,-1.98967 0.848258,-1.43974 2.380505,-4.02589 4.740445,-8.001 0.29028,-0.48895 0.59057,-1.01282 0.6673,-1.16417 l 0.13951,-0.27516 h 2.95617 c 1.62588,0 2.97512,0.0307 2.9983,0.0682 0.0232,0.0375 -1.63552,2.90454 -3.68602,6.37117 -2.05051,3.46663 -4.855301,8.20796 -6.232887,10.53629 -1.377594,2.32834 -3.392094,5.73432 -4.476665,7.56886 -1.08458,1.83455 -1.952447,3.36711 -1.928588,3.40571 0.0468,0.0757 0.08466,0.0724 2.110342,-0.18388 11.591568,-1.4667 22.815348,-6.17708 32.045218,-13.44869 11.54039,-9.09192 19.61626,-21.49558 23.18603,-35.61133 0.91868,-3.6327 1.7385,-8.593538 1.41075,-8.536634 -0.0466,0.008 -4.21852,2.460784 -9.271,5.450444 -5.05248,2.98965 -11.24092,6.65106 -13.75209,8.13647 -2.51116,1.4854 -4.59766,2.66884 -4.63663,2.62987 -0.039,-0.039 -0.0608,-1.38174 -0.0486,-2.98392 l 0.0223,-2.91305 0.762,-0.41695 c 0.4191,-0.22932 2.2098,-1.27975 3.97933,-2.33429 2.73678,-1.63095 4.75901,-2.83025 7.13264,-4.23001 0.26805,-0.15808 1.07791,-0.63749 1.7997,-1.06537 0.72178,-0.42787 2.26483,-1.342047 3.429,-2.031513 3.36499,-1.992875 6.16636,-3.65368 7.493,-4.442299 0.67521,-0.401371 1.77059,-1.051721 2.43416,-1.445207 0.66358,-0.393491 1.2065,-0.754818 1.2065,-0.80295 0,-0.08156 -1.42012,-0.942231 -7.15433,-4.335924 -1.2573,-0.744112 -3.21945,-1.905585 -4.36033,-2.581052 -1.14089,-0.675467 -2.74109,-1.620821 -3.556,-2.100788 -0.81492,-0.479967 -1.61502,-0.957245 -1.778,-1.060621 -0.16299,-0.103374 -1.05834,-0.636907 -1.98967,-1.185628 -0.93133,-0.548721 -2.89348,-1.709675 -4.36033,-2.579899 -3.06813,-1.820199 -4.61771,-2.7299 -4.8895,-2.870455 l -0.1905,-0.09851 v -2.955357 c 0,-1.627431 0.0337,-2.976208 0.0751,-3.001761 0.0413,-0.02552 6.29784,3.635524 13.90342,8.135658 7.60558,4.500135 13.90145,8.201183 13.99082,8.224553 0.18206,0.04761 0.18542,0.142901 -0.0799,-2.269135 C 150.0257,74.759031 146.91589,65.590861 142.12577,57.60938 131.76949,40.353286 113.99094,28.693351 94.221902,26.191931 92.175585,25.933006 92.15877,25.931668 92.10217,26.02325 c -0.02902,0.04696 2.262454,3.998879 5.092175,8.782042 2.829725,4.783163 6.529345,11.037021 8.221375,13.897464 1.69204,2.860442 3.04457,5.232675 3.00561,5.27163 -0.0389,0.03895 -1.38169,0.06079 -2.98386,0.04853 l -2.91305,-0.0223 -0.41695,-0.762 c -0.22932,-0.4191 -1.27976,-2.2098 -2.334297,-3.979333 -1.630951,-2.736772 -2.830246,-4.759005 -4.230014,-7.132637 -0.158073,-0.26805 -0.637481,-1.077913 -1.065361,-1.799697 -0.427871,-0.721783 -1.342051,-2.264833 -2.031517,-3.429 -1.992876,-3.364995 -3.65368,-6.166353 -4.442295,-7.492999 -0.401376,-0.675217 -1.051721,-1.770592 -1.445212,-2.434167 -0.393491,-0.663575 -0.754817,-1.2065 -0.80295,-1.2065 -0.08156,0 -0.94223,1.420126 -4.335923,7.154333 -0.744112,1.2573 -1.905585,3.21945 -2.581052,4.360333 -0.675467,1.140884 -1.620821,2.741084 -2.100788,3.556 -0.479967,0.814917 -0.957246,1.615017 -1.060621,1.778 -0.103375,0.162984 -0.636908,1.058334 -1.185628,1.989667 -0.548721,0.931333 -1.709675,2.893483 -2.579899,4.360333 -1.820199,3.06813 -2.729901,4.617705 -2.870455,4.8895 l -0.09851,0.1905 h -2.955357 c -1.627431,0 -2.976208,-0.03374 -3.001761,-0.07508 -0.02552,-0.04129 3.635377,-6.297585 8.135332,-13.902866 4.499955,-7.60528 8.185713,-13.886567 8.190573,-13.958416 0.01093,-0.16158 -0.300304,-0.148777 -2.150162,0.08845 -14.810715,1.899371 -28.551335,8.877575 -38.996935,19.804679 -9.910569,10.367409 -16.22032,23.810322 -17.763872,37.845897 -0.225805,2.053259 -0.239936,2.263598 -0.155575,2.315737 0.04498,0.0278 3.773193,-2.133105 8.284916,-4.802008 4.511723,-2.668904 10.791063,-6.383633 13.954088,-8.254953 3.163025,-1.871319 5.782909,-3.370445 5.821963,-3.331391 0.03905,0.03905 0.06097,1.381879 0.04871,2.984053 l -0.0223,2.913045 -0.762,0.416949 c -0.4191,0.229323 -2.2098,1.279755 -3.979333,2.334294 -2.736771,1.630958 -4.759005,2.830244 -7.132636,4.230014 -0.26805,0.158073 -1.077914,0.637485 -1.799697,1.065359 -0.721783,0.427875 -2.264833,1.342059 -3.429,2.031521 -3.364995,1.992872 -6.166354,3.653684 -7.493,4.442296 -0.675217,0.401376 -1.770592,1.051721 -2.434167,1.445212 -0.663575,0.39349 -1.2065,0.754817 -1.2065,0.802949 0,0.08156 1.420126,0.942231 7.154334,4.335921 1.2573,0.744118 3.21945,1.905584 4.360333,2.581055 1.140883,0.675464 2.741083,1.620824 3.556,2.100784 0.814917,0.47997 1.615016,0.95724 1.778,1.06062 0.162983,0.10337 1.058333,0.63691 1.989666,1.18563 0.931334,0.54872 2.893484,1.70969 4.360334,2.5799 3.068129,1.82019 4.617704,2.72989 4.8895,2.87045 l 0.1905,0.0985 v 2.95536 c 0,1.62724 -0.03374,2.97621 -0.07508,3.00175 -0.04129,0.0255 -6.261118,-3.61548 -13.821833,-8.09113 -7.560716,-4.47565 -13.819306,-8.15787 -13.907976,-8.182703 -0.151146,-0.04233 -0.157589,-0.0086 -0.103101,0.539648 0.191087,1.922705 0.851995,5.449435 1.505832,8.035445 3.06358,12.11684 9.366417,22.86115 18.520219,31.57102 10.062421,9.57441 22.968826,15.72899 36.668602,17.48589 1.840429,0.23602 2.165592,0.25007 2.131975,0.0921 -0.01486,-0.0699 -2.337104,-4.03225 -5.160532,-8.80533 -2.82343,-4.77309 -6.496439,-10.98249 -8.162243,-13.79867 -1.665804,-2.81618 -2.99875,-5.15032 -2.962104,-5.18696 0.03665,-0.0366 1.374919,-0.0566 2.973939,-0.0443 l 2.907308,0.0223 0.294358,0.55033 c 0.161897,0.3027 1.215147,2.09339 2.340555,3.97935 1.743102,2.92106 2.763431,4.64065 4.357816,7.3443 0.158074,0.26804 0.637486,1.07791 1.06536,1.7997 0.427875,0.72178 1.342059,2.26483 2.031521,3.429 1.992872,3.36499 3.653684,6.16635 4.442296,7.493 0.401376,0.67521 1.051721,1.77059 1.445211,2.43416 0.393491,0.66357 0.754818,1.2065 0.80295,1.2065 0.04813,0 0.738995,-1.09537 1.535253,-2.43416 z m -1.721715,-6.89752 c -0.04701,-0.0597 -0.848499,-1.40405 -1.781095,-2.98732 -0.932595,-1.58326 -3.396698,-5.75294 -5.475785,-9.26594 -2.079085,-3.513 -3.761006,-6.43717 -3.737603,-6.49817 0.06354,-0.16557 22.215337,-0.16434 22.27887,0.001 0.03755,0.0978 -1.809208,3.25627 -9.28689,15.88301 -0.949178,1.60277 -1.767685,2.92802 -1.818905,2.94499 -0.05122,0.017 -0.131586,-0.018 -0.178592,-0.0778 z M 38.595903,97.510386 c -5.0292,-2.908943 -9.349036,-5.405043 -9.599635,-5.546886 -0.385384,-0.218135 -0.4376,-0.275547 -0.338666,-0.372371 0.166887,-0.163328 18.737844,-10.627446 18.967319,-10.687455 0.180338,-0.04716 0.202353,0.353394 0.229166,4.169611 0.01047,1.490133 0.05454,5.604933 0.09793,9.144 0.11092,9.047055 0.114287,8.594845 -0.06395,8.587875 -0.08149,-0.003 -4.262966,-2.38584 -9.292166,-5.294774 z m 84.181047,4.567924 c -0.0181,-0.41197 -0.0414,-1.96823 -0.0519,-3.458359 -0.0105,-1.490133 -0.0545,-5.604933 -0.0979,-9.144 -0.10854,-8.853635 -0.10979,-8.593666 0.041,-8.593666 0.0962,0 9.23719,5.242123 18.78572,10.773117 0.4858,0.281397 0.56183,0.354668 0.46566,0.448744 -0.16543,0.161844 -18.73794,10.625964 -18.96527,10.685414 -0.12635,0.033 -0.14852,-0.0559 -0.17727,-0.71125 z M 74.149895,54.184828 c -0.0376,-0.09798 1.690875,-3.054219 9.290572,-15.889876 0.969216,-1.636975 1.781877,-2.920999 1.848705,-2.920999 0.06559,0 0.5251,0.6858 1.021141,1.523999 8.301521,14.027714 10.154646,17.193799 10.118603,17.287726 -0.06367,0.165917 -22.215351,0.165072 -22.279021,-8.47e-4 z M 46.342903,110.85908 c 0,-1.04032 -0.0097,-1.10265 -0.1905,-1.2298 -0.104775,-0.0737 -6.640118,-3.9513 -14.522983,-8.61695 -8.337505,-4.934732 -14.322522,-8.527281 -14.308667,-8.588874 0.0131,-0.05823 6.405567,-3.881499 14.205483,-8.496145 7.799917,-4.614647 14.324542,-8.483528 14.499167,-8.597514 l 0.3175,-0.207248 v -1.057132 c 0,-0.746638 -0.0289,-1.057132 -0.09839,-1.057132 -0.116031,0 -0.206265,0.05142 -3.118939,1.777374 -1.234016,0.731238 -3.291416,1.950381 -4.572,2.709207 -1.280583,0.758826 -3.166533,1.87582 -4.190999,2.482209 -1.024467,0.606388 -2.567517,1.521652 -3.429,2.033918 -0.861484,0.512267 -2.061634,1.224269 -2.667,1.582226 -0.605367,0.357957 -2.453217,1.450592 -4.106334,2.428077 -1.653116,0.977486 -3.729566,2.20789 -4.614333,2.734231 -0.884766,0.526342 -2.618316,1.554401 -3.852333,2.284577 -1.234017,0.730175 -2.243667,1.377157 -2.243667,1.437738 0,0.06058 0.36195,0.327218 0.804334,0.592526 1.069614,0.641474 3.588229,2.134892 6.392333,3.790345 4.300892,2.539103 7.873898,4.654147 9.863666,5.838787 1.094317,0.65153 2.846917,1.69236 3.894667,2.31296 1.04775,0.62061 2.49555,1.47896 3.217333,1.90744 7.834025,4.65066 8.490831,5.03453 8.614833,5.03481 0.07923,0 0.105834,-0.27525 0.105834,-1.09563 z m 79.409887,0.87194 c 0.21365,-0.12315 1.39809,-0.82221 2.63211,-1.55344 1.23402,-0.73124 3.29142,-1.95038 4.572,-2.70921 1.28058,-0.75882 3.16653,-1.87582 4.191,-2.48221 1.02447,-0.60639 2.56752,-1.52165 3.429,-2.03392 0.86148,-0.51226 2.06163,-1.22427 2.667,-1.58222 0.60537,-0.35796 2.45322,-1.450596 4.10633,-2.428081 1.65312,-0.977486 3.72957,-2.207887 4.61434,-2.734234 0.88476,-0.526339 2.61831,-1.554395 3.85233,-2.284569 1.23402,-0.730179 2.24367,-1.377161 2.24367,-1.437742 0,-0.06058 -0.36195,-0.327218 -0.80434,-0.592526 -1.06961,-0.641476 -3.58823,-2.134892 -6.39233,-3.790344 -4.30089,-2.539106 -7.8739,-4.654145 -9.86367,-5.838792 -1.09431,-0.651523 -2.84691,-1.692355 -3.89466,-2.31296 -1.04775,-0.620604 -2.49555,-1.478951 -3.21734,-1.907437 -7.8063,-4.634206 -8.49235,-5.03505 -8.61762,-5.03505 -0.0756,0 -0.10304,0.291485 -0.10304,1.095866 0,1.040321 0.01,1.102655 0.1905,1.229811 0.10477,0.07367 6.64012,3.951294 14.52298,8.616942 8.33751,4.934736 14.32252,8.527283 14.30867,8.588876 -0.0131,0.05823 -6.40557,3.881496 -14.20549,8.49614 -7.79991,4.61465 -14.32454,8.48354 -14.49916,8.59752 l -0.3175,0.20725 v 1.05713 c 0,0.74663 0.0289,1.05713 0.0984,1.05713 0.0541,0 0.27319,-0.10077 0.48683,-0.22393 z M 68.565245,51.820452 c 0.07367,-0.104775 3.951295,-6.640118 8.616943,-14.522983 4.934736,-8.337505 8.527283,-14.322521 8.588876,-14.308666 0.05823,0.0131 3.881496,6.405566 8.496143,14.205483 4.614646,7.799916 8.483533,14.324541 8.597523,14.499166 l 0.20724,0.3175 h 1.05713 c 0.74664,0 1.05713,-0.0289 1.05713,-0.09839 0,-0.116032 -0.0514,-0.206265 -1.77737,-3.118939 -0.73124,-1.234017 -1.95038,-3.291417 -2.7092,-4.572 -0.75883,-1.280583 -1.875829,-3.166533 -2.482211,-4.191 -0.606392,-1.024467 -1.521655,-2.567517 -2.033922,-3.429 -0.512267,-0.861483 -1.224272,-2.061633 -1.582226,-2.667 -0.357953,-0.605366 -1.450594,-2.453216 -2.428079,-4.106333 -0.977485,-1.653117 -2.207886,-3.729567 -2.734233,-4.614333 -0.526339,-0.884767 -1.554397,-2.618317 -2.284573,-3.852334 -0.730175,-1.234016 -1.377157,-2.243666 -1.437738,-2.243666 -0.06058,0 -0.327218,0.36195 -0.592526,0.804333 -0.641476,1.069614 -2.134892,3.588229 -3.790344,6.392333 -2.539106,4.300893 -4.654145,7.873899 -5.838793,9.863667 -0.651522,1.094316 -1.692354,2.846916 -2.312959,3.894666 -0.620604,1.04775 -1.478951,2.49555 -1.907438,3.217334 -4.634205,7.806298 -5.035049,8.492354 -5.035049,8.61763 0,0.07563 0.291484,0.103036 1.095866,0.103036 1.040321,0 1.102655,-0.0097 1.22981,-0.1905 z"
         id="path3703"
         inkscape:connector-curvature="0" />
      <path
         style="fill:#1d364a;stroke-width:0.08466666"
         d="m 84.214503,164.81039 -1.442446,-2.43644 -0.455745,-0.0553 c -0.250659,-0.0304 -1.115465,-0.0988 -1.921792,-0.15209 -6.876238,-0.45413 -14.323517,-2.169 -20.970618,-4.82887 -2.965936,-1.18684 -6.576721,-2.9344 -9.180333,-4.44313 -3.909921,-2.26571 -7.883873,-5.11781 -11.393666,-8.17722 -1.422069,-1.23959 -5.240012,-5.05811 -6.472416,-6.47341 C 22.235534,126.59692 16.223444,112.4687 14.974208,97.346785 c -0.07295,-0.883023 -0.149552,-1.6817 -0.170233,-1.774834 -0.02596,-0.116899 -0.786588,-0.611598 -2.456366,-1.597575 -1.33032,-0.785538 -2.4065916,-1.464766 -2.3917139,-1.5094 0.014878,-0.04463 1.0519389,-0.688691 2.3045809,-1.431242 1.252643,-0.742549 2.322244,-1.387198 2.376893,-1.432552 0.06403,-0.05314 0.120619,-0.586849 0.159142,-1.500846 0.210175,-4.986598 1.075747,-10.509579 2.414663,-15.407322 2.851246,-10.429827 7.93006,-19.864942 15.166313,-28.175062 1.235349,-1.418676 5.053739,-5.237066 6.472416,-6.472416 12.065329,-10.506199 26.631145,-16.513666 42.500249,-17.528632 1.105699,-0.07072 1.377127,-0.113515 1.488691,-0.23472 0.07504,-0.08153 0.738219,-1.168959 1.473728,-2.416516 0.735509,-1.247557 1.373476,-2.256222 1.417706,-2.241479 0.04423,0.01474 0.689147,1.054522 1.433149,2.310618 0.744001,1.256097 1.399686,2.331488 1.457073,2.389758 0.06677,0.0678 0.590999,0.137072 1.455869,0.192387 15.869732,1.014984 30.433322,7.021615 42.499532,17.528584 1.41868,1.23535 5.23707,5.05374 6.47242,6.472416 5.83121,6.696565 10.23399,14.076451 13.26243,22.230311 2.49291,6.711965 4.00752,14.185112 4.3176,21.303128 0.0328,0.753192 0.0827,1.405505 0.11093,1.449585 0.0282,0.04408 1.12921,0.718441 2.44667,1.498582 1.31746,0.78014 2.38325,1.45481 2.36844,1.499267 -0.0148,0.04446 -1.10283,0.718461 -2.41779,1.497784 -1.31497,0.779332 -2.4236,1.452593 -2.46363,1.496154 -0.04,0.04355 -0.13459,0.828268 -0.21013,1.74382 -1.25652,15.228647 -7.24374,29.327227 -17.41452,41.007367 -1.23241,1.4153 -5.05035,5.23382 -6.47242,6.47341 -6.94168,6.05092 -14.74987,10.62441 -23.32567,13.66258 -5.64581,2.00016 -12.388583,3.40158 -18.218949,3.78664 -0.806323,0.0532 -1.6727,0.12169 -1.925269,0.15209 l -0.459224,0.0553 -1.424737,2.413 c -0.783605,1.32715 -1.456319,2.42355 -1.494919,2.43644 -0.0386,0.0129 -0.719284,-1.07296 -1.512629,-2.413 z m 2.177604,-1.94961 c 0.296661,-0.50059 0.766318,-1.29116 1.043683,-1.75683 0.277364,-0.46567 1.292075,-2.18017 2.254921,-3.81 3.268582,-5.53284 5.05261,-8.5465 6.240077,-10.541 0.651527,-1.09432 1.691776,-2.84692 2.31168,-3.89467 0.619895,-1.04775 1.292961,-2.18078 1.495704,-2.51784 0.202734,-0.33707 0.858078,-1.44197 1.456308,-2.45533 0.59823,-1.01338 1.76209,-2.98156 2.58635,-4.37375 0.82426,-1.39219 1.47887,-2.58281 1.45469,-2.64583 -0.0337,-0.0879 -0.2921,-0.11458 -1.11137,-0.11458 -1.00164,0 -1.07755,0.0117 -1.23224,0.1905 -0.0907,0.10478 -3.985605,6.64845 -8.655429,14.5415 -4.669832,7.89305 -8.526592,14.34731 -8.570588,14.3428 -0.04399,-0.004 -3.9307,-6.51309 -8.637121,-14.4635 -4.706421,-7.95042 -8.611671,-14.48982 -8.678334,-14.53201 -0.06666,-0.0422 -0.570073,-0.0773 -1.118693,-0.078 -1.166676,-0.002 -1.20899,0.031 -0.839398,0.64502 0.136402,0.2266 0.85688,1.44071 1.601061,2.69801 0.744181,1.2573 1.973916,3.33375 2.732741,4.61434 0.758827,1.28058 1.875821,3.16653 2.482209,4.191 0.606389,1.02446 1.521653,2.56751 2.033919,3.429 0.512267,0.86148 1.224269,2.06163 1.582226,2.667 0.357957,0.60536 1.450591,2.45321 2.428077,4.10633 0.977486,1.65312 2.208028,3.72957 2.73454,4.61433 0.526511,0.88477 1.548361,2.6088 2.270776,3.83117 0.87945,1.48808 1.359968,2.2225 1.454156,2.2225 0.08895,0 0.339012,-0.33468 0.680055,-0.91017 z m -0.10183,-6.58283 c 0.254596,-0.4191 0.527941,-0.8763 0.607433,-1.016 0.339981,-0.59748 3.016665,-5.12443 3.304058,-5.588 0.173219,-0.2794 0.649494,-1.0795 1.058392,-1.778 0.688653,-1.17639 1.527167,-2.59155 5.418015,-9.144 0.801895,-1.35043 1.96546,-3.31258 2.58572,-4.36033 0.620251,-1.04775 1.524775,-2.57175 2.010045,-3.38667 0.48527,-0.81492 0.95283,-1.61984 1.03903,-1.78873 0.0862,-0.16887 0.21861,-0.3308 0.29425,-0.35983 0.21173,-0.0813 5.56928,-0.0599 5.69966,0.0227 0.0881,0.0558 -1.75141,3.22834 -7.86619,13.56654 -4.38965,7.42153 -8.070414,13.6358 -8.179482,13.8095 -0.345101,0.5496 -0.2979,0.60521 0.45786,0.53941 0.360892,-0.0314 1.456267,-0.17109 2.434167,-0.31037 11.513325,-1.63989 22.594835,-6.4486 31.665335,-13.74082 3.52604,-2.83476 7.42195,-6.73066 10.2567,-10.2567 7.28001,-9.0553 12.14863,-20.27348 13.74257,-31.66534 0.0977,-0.6985 0.19752,-1.39432 0.22175,-1.546271 0.0309,-0.194039 0.008,-0.290271 -0.0786,-0.323325 -0.0711,-0.02727 -5.87945,3.359226 -13.81715,8.055926 -7.532,4.45663 -13.75561,8.10733 -13.83026,8.11266 -0.12148,0.009 -0.1382,-0.27896 -0.15937,-2.74199 -0.013,-1.51341 -0.005,-2.82846 0.0178,-2.92233 0.0262,-0.10777 0.24998,-0.27349 0.6072,-0.44964 0.31115,-0.15344 1.54138,-0.86206 2.73386,-1.57473 1.19247,-0.71266 3.12063,-1.8587 4.2848,-2.54676 1.16417,-0.68805 2.70722,-1.60268 3.429,-2.03249 1.29959,-0.77389 1.8279,-1.08701 6.35,-3.76352 4.4595,-2.639458 8.36908,-4.95819 9.779,-5.799846 0.7173,-0.428192 1.016,-0.652848 1.016,-0.764148 0,-0.142227 -0.60879,-0.562694 -1.778,-1.228006 -0.59748,-0.339981 -5.12443,-3.016665 -5.588,-3.304058 -0.2794,-0.173216 -1.0795,-0.649492 -1.778,-1.058391 -1.17639,-0.688655 -2.59155,-1.527165 -9.144,-5.418019 -1.35043,-0.801889 -3.31258,-1.965076 -4.36033,-2.58486 -1.04775,-0.619784 -2.26695,-1.341903 -2.70934,-1.60471 -0.44238,-0.262807 -1.25282,-0.738509 -1.80097,-1.057118 -0.66141,-0.38444 -1.01111,-0.638778 -1.03966,-0.756161 -0.0237,-0.09728 -0.0324,-1.415125 -0.0193,-2.928541 0.0209,-2.431757 0.039,-2.75061 0.15582,-2.742575 0.0727,0.005 6.33802,3.68165 13.92295,8.170333 7.58494,4.488683 13.84054,8.173561 13.90134,8.188616 0.15762,0.03903 0.14308,-0.501299 -0.0622,-2.313374 -1.38909,-12.260119 -6.28745,-24.023263 -13.99685,-33.612666 -2.83475,-3.526048 -6.73066,-7.421944 -10.2567,-10.256708 -9.0755,-7.296241 -20.14566,-12.100016 -31.665335,-13.740814 -2.22316,-0.316655 -3.051116,-0.391429 -3.118942,-0.28168 -0.02847,0.04605 3.629126,6.305005 8.127977,13.90879 4.49885,7.603785 8.18405,13.885968 8.18935,13.960405 0.009,0.120981 -0.28232,0.13785 -2.74205,0.158999 -1.51342,0.01301 -2.82847,0.005 -2.92234,-0.0178 -0.10776,-0.02618 -0.27349,-0.249977 -0.44964,-0.607189 -0.15343,-0.311151 -0.86206,-1.54139 -1.57472,-2.733865 -0.712667,-1.192475 -1.858707,-3.120636 -2.546767,-4.284803 -0.688053,-1.164167 -1.602681,-2.707217 -2.032491,-3.429 -0.429811,-0.721783 -1.142365,-1.921933 -1.583462,-2.667 -0.441088,-0.745067 -1.411512,-2.383367 -2.156494,-3.640666 -0.744982,-1.2573 -1.54443,-2.60985 -1.776543,-3.005667 -0.232114,-0.395817 -0.910573,-1.538817 -1.507685,-2.54 -0.59712,-1.001183 -1.522744,-2.563283 -2.056953,-3.471333 -1.0981,-1.866555 -1.183716,-1.985654 -1.336348,-1.858981 -0.08885,0.07374 -0.872964,1.329949 -1.186785,1.901314 -0.183705,0.334467 -2.947167,5.006301 -3.255306,5.503333 -0.173216,0.2794 -0.649492,1.0795 -1.058391,1.778 -0.688656,1.176394 -1.527165,2.591549 -5.418019,9.144 -0.801889,1.350433 -1.965076,3.312583 -2.58486,4.360333 -0.619784,1.04775 -1.341903,2.26695 -1.60471,2.709334 -0.262807,0.442383 -0.73851,1.252821 -1.057118,1.800973 -0.38444,0.661414 -0.638779,1.01111 -0.756161,1.039659 -0.09728,0.02366 -1.415125,0.03237 -2.928541,0.01936 -2.431757,-0.02091 -2.75061,-0.03902 -2.742576,-0.155821 0.005,-0.07269 3.670037,-6.321089 8.144526,-13.885333 4.474488,-7.564245 8.162954,-13.825857 8.196591,-13.914694 0.05818,-0.15366 0.02647,-0.158702 -0.651525,-0.103574 -1.214802,0.09878 -4.188985,0.550185 -5.949801,0.903038 C 56.73863,30.089147 42.640957,39.05731 32.756975,52.349619 26.581148,60.655078 22.328178,70.816556 20.735001,81.073317 c -0.265725,1.710718 -0.554098,4.183087 -0.554098,4.750563 0,0.3718 0.01674,0.407776 0.170989,0.36744 0.09404,-0.02459 6.367165,-3.710865 13.94027,-8.191717 7.573106,-4.48085 13.830287,-8.151347 13.904846,-8.156659 0.121273,-0.0086 0.138055,0.280376 0.159221,2.742008 0.01301,1.513416 0.005,2.828468 -0.0178,2.922335 -0.02618,0.107764 -0.249978,0.273493 -0.60719,0.449642 -0.311151,0.153435 -1.54139,0.86206 -2.733865,1.574723 -1.192475,0.712662 -3.120636,1.858706 -4.284803,2.546763 -1.164166,0.688058 -2.707216,1.60268 -3.429,2.032492 -0.721783,0.429813 -1.921933,1.14237 -2.666999,1.583458 -0.745067,0.44109 -2.383367,1.411514 -3.640667,2.156499 -1.2573,0.744985 -2.60985,1.544429 -3.005667,1.776543 -0.395816,0.232115 -1.538816,0.910574 -2.54,1.507687 -1.001183,0.597115 -2.563283,1.522741 -3.471333,2.056951 -1.866554,1.0981 -1.985653,1.183716 -1.85898,1.336348 0.07373,0.08885 1.329948,0.872964 1.901313,1.186784 0.334468,0.183702 5.006301,2.947171 5.503334,3.255307 0.2794,0.173219 1.0795,0.649495 1.778,1.058392 1.176394,0.688654 2.591549,1.527167 9.143999,5.418014 1.350434,0.8019 3.312584,1.96508 4.360334,2.58487 1.04775,0.61978 2.26695,1.34189 2.709333,1.6047 0.442383,0.26281 1.252821,0.73851 1.800973,1.05712 0.661415,0.38444 1.01111,0.63878 1.03966,0.75616 0.02366,0.0973 0.03237,1.41513 0.01936,2.92854 -0.02091,2.43176 -0.03903,2.75061 -0.155822,2.74258 -0.07269,-0.005 -6.332899,-3.67747 -13.911578,-8.16102 -9.084256,-5.37426 -13.807949,-8.123396 -13.863154,-8.068193 -0.0552,0.0552 0.005,0.701133 0.176776,1.895683 2.485077,17.28457 11.679223,32.73292 25.782785,43.32122 8.702269,6.53325 19.101501,10.83931 29.887333,12.37559 0.9779,0.13928 2.079233,0.27949 2.447409,0.31157 0.653523,0.0569 0.668293,0.0541 0.622404,-0.12142 -0.02585,-0.0989 -3.713187,-6.37646 -8.194075,-13.95022 -6.295134,-10.64027 -8.120626,-13.78723 -8.030738,-13.84417 0.19471,-0.12334 5.520568,-0.0956 5.678508,0.0296 0.07345,0.0582 0.323176,0.44873 0.554955,0.86783 0.231778,0.4191 0.935661,1.61925 1.564184,2.667 0.628523,1.04775 1.705883,2.8575 2.394133,4.02167 0.68825,1.16417 1.603327,2.70722 2.033502,3.429 0.430176,0.72178 1.402354,2.36008 2.160397,3.64067 0.758042,1.28058 1.728438,2.91888 2.156433,3.64066 0.427996,0.72179 0.967818,1.63619 1.199604,2.032 0.231788,0.39582 0.910197,1.53882 1.507578,2.54 0.59738,1.00119 1.467105,2.46804 1.932723,3.25967 1.19258,2.0276 1.23385,2.08871 1.390327,2.05852 0.0756,-0.0146 0.345768,-0.36942 0.600364,-0.78852 z m -0.805878,-8.61201 c -0.04652,-0.0598 -0.465702,-0.75636 -0.931513,-1.54799 -0.465813,-0.79163 -2.895934,-4.90245 -5.40027,-9.13514 -2.504336,-4.2327 -4.571817,-7.76648 -4.594401,-7.85284 -0.03984,-0.15233 0.290963,-0.15702 11.07002,-0.15702 10.718622,0 11.109655,0.005 11.070632,0.15469 -0.03677,0.14059 -1.501428,2.6315 -8.592481,14.61295 -1.293133,2.18496 -2.393057,3.98644 -2.444277,4.00332 -0.05122,0.0169 -0.131189,-0.0182 -0.17771,-0.078 z M 39.305209,97.86917 c -4.685648,-2.710671 -9.004234,-5.207629 -9.596857,-5.548805 -0.898013,-0.51699 -1.058475,-0.638965 -0.963306,-0.732255 0.215691,-0.211433 18.91019,-10.69613 18.966912,-10.637477 0.05983,0.06187 0.311611,21.572507 0.254632,21.754487 -0.01822,0.0582 -0.05764,0.10283 -0.08758,0.0992 -0.02994,-0.004 -3.888154,-2.22447 -8.573802,-4.93513 z m 83.539511,4.84229 c -0.0728,-0.22433 -0.2646,-21.725281 -0.19444,-21.795441 0.0325,-0.03248 6.21565,3.515991 18.12457,10.401568 0.9712,0.561535 1.15224,0.696381 1.05833,0.788292 -0.0623,0.06098 -4.15188,2.384032 -9.08795,5.162344 -4.93606,2.778307 -9.17479,5.164847 -9.41938,5.303437 -0.32905,0.18643 -0.4542,0.2228 -0.48113,0.1398 z M 74.218936,54.057602 c 0.03677,-0.140593 1.24233,-2.191028 8.595696,-14.61965 1.338879,-2.262965 2.405998,-3.979333 2.474075,-3.979333 0.06584,0 0.525506,0.6858 1.021476,1.524 0.49597,0.8382 2.950743,4.987114 5.455056,9.21981 2.504305,4.232695 4.571763,7.766469 4.594352,7.852833 0.03984,0.152331 -0.290965,0.157023 -11.070022,0.157023 -10.718624,0 -11.109655,-0.0055 -11.070633,-0.154683 z M 46.408963,110.91262 c 0.02271,-1.03629 0.01547,-1.08974 -0.169333,-1.24971 -0.106183,-0.0919 -6.64721,-3.98579 -14.535614,-8.65304 -7.888404,-4.667257 -14.342664,-8.524019 -14.3428,-8.570585 -1.69e-4,-0.04657 6.50464,-3.935375 14.455058,-8.641797 7.950417,-4.706421 14.489818,-8.611671 14.532003,-8.678333 0.04218,-0.06666 0.07728,-0.570074 0.078,-1.118693 0.0015,-1.166677 -0.031,-1.20899 -0.64502,-0.839398 -0.22661,0.136401 -1.440717,0.856879 -2.698017,1.60106 -1.2573,0.744182 -3.33375,1.973916 -4.614333,2.732742 -1.280584,0.758826 -3.166533,1.87582 -4.191,2.482209 -1.024467,0.606388 -2.567517,1.521652 -3.429,2.033918 -0.861483,0.512267 -2.061633,1.224269 -2.667,1.582226 -0.605367,0.357957 -2.453217,1.450592 -4.106333,2.428077 -1.653117,0.977486 -3.729567,2.208029 -4.614333,2.73454 -0.884767,0.526512 -2.608792,1.548361 -3.831167,2.270776 -1.488088,0.879451 -2.2225,1.359968 -2.2225,1.454156 0,0.08895 0.334682,0.339012 0.910167,0.680055 0.500591,0.296663 1.291166,0.766317 1.756833,1.043685 0.465667,0.27736 2.180167,1.292073 3.81,2.254919 5.532841,3.268582 8.546499,5.052613 10.541,6.240073 1.094316,0.65153 2.846916,1.69236 3.894666,2.31296 1.04775,0.62061 2.49555,1.47896 3.217333,1.90744 0.721784,0.42849 2.436284,1.44529 3.81,2.25955 1.373717,0.81427 3.012017,1.78828 3.640667,2.16447 0.62865,0.37618 1.20015,0.67662 1.27,0.66763 0.103993,-0.0134 0.131298,-0.21245 0.150727,-1.09893 z m 79.328837,0.88428 c 0.22188,-0.13351 1.43213,-0.85161 2.68943,-1.59579 1.2573,-0.74418 3.33375,-1.97391 4.61434,-2.73274 1.28058,-0.75882 3.16653,-1.87582 4.191,-2.48221 1.02446,-0.60639 2.56751,-1.52165 3.429,-2.03392 0.86148,-0.51226 2.06163,-1.22427 2.667,-1.58222 0.60536,-0.35796 2.45321,-1.450596 4.10633,-2.428081 1.65312,-0.977486 3.72957,-2.208031 4.61433,-2.734539 0.88477,-0.526508 2.6088,-1.548359 3.83117,-2.270777 1.48808,-0.879449 2.2225,-1.359967 2.2225,-1.454155 0,-0.08895 -0.33468,-0.339012 -0.91017,-0.680055 -0.50059,-0.296661 -1.29116,-0.766318 -1.75683,-1.043683 -0.46567,-0.277364 -2.18017,-1.292078 -3.81,-2.25492 -5.53284,-3.268582 -8.5465,-5.052613 -10.541,-6.240078 -1.09432,-0.651523 -2.84692,-1.691778 -3.89467,-2.311677 -1.04775,-0.6199 -2.18078,-1.292968 -2.51784,-1.495706 -0.33707,-0.202739 -1.44196,-0.858077 -2.45533,-1.456309 -1.01338,-0.598232 -2.98156,-1.76209 -4.37375,-2.58635 -1.39219,-0.824261 -2.58281,-1.47887 -2.64583,-1.454688 -0.0879,0.03375 -0.11458,0.292097 -0.11458,1.111365 0,1.001644 0.0117,1.077552 0.1905,1.232241 0.10478,0.09066 6.64845,3.985609 14.5415,8.655434 7.89305,4.669826 14.34731,8.526588 14.3428,8.570585 -0.004,0.04399 -6.51309,3.930699 -14.4635,8.637123 -7.95042,4.70642 -14.48982,8.61167 -14.53201,8.67833 -0.0879,0.13887 -0.10832,2.05361 -0.0228,2.13909 0.0934,0.0934 0.17688,0.0674 0.59845,-0.18627 z M 68.533892,51.905119 c 0.09066,-0.104775 3.983504,-6.644649 8.650759,-14.533053 4.667254,-7.888405 8.524018,-14.342665 8.570584,-14.3428 0.04657,-1.7e-4 3.935374,6.50464 8.6418,14.455057 4.706416,7.950418 8.611665,14.489819 8.678335,14.532004 0.0667,0.04218 0.57007,0.07728 1.11869,0.078 1.16667,0.0015 1.20899,-0.031 0.83939,-0.645021 -0.13639,-0.226609 -0.85687,-1.440716 -1.60105,-2.698016 -0.74419,-1.2573 -1.97392,-3.33375 -2.73274,-4.614334 -0.75883,-1.280583 -1.875829,-3.166533 -2.482211,-4.191 -0.606392,-1.024466 -1.521655,-2.567516 -2.033922,-3.428999 -0.512267,-0.861484 -1.224272,-2.061634 -1.582226,-2.667 -0.357953,-0.605367 -1.450594,-2.453217 -2.428079,-4.106334 -0.977485,-1.653116 -2.20803,-3.729566 -2.734538,-4.614333 -0.526508,-0.884767 -1.548361,-2.608792 -2.270776,-3.831167 -0.879451,-1.488087 -1.359968,-2.222499 -1.454156,-2.222499 -0.08895,0 -0.339012,0.334682 -0.680055,0.910166 -0.296661,0.500592 -0.766318,1.291167 -1.043683,1.756833 -0.277365,0.465667 -1.292079,2.180167 -2.25492,3.81 -3.268583,5.532842 -5.052613,8.546499 -6.240079,10.541 -0.651522,1.094317 -1.691778,2.846917 -2.311676,3.894667 -0.6199,1.04775 -1.292968,2.18078 -1.495706,2.517846 -0.202739,0.337065 -0.858078,1.441965 -1.456309,2.455333 -0.598232,1.013368 -1.76209,2.981551 -2.58635,4.373741 -0.824261,1.392189 -1.47887,2.582814 -1.454688,2.645833 0.03375,0.08794 0.292097,0.11458 1.111365,0.11458 1.001644,0 1.077552,-0.01174 1.232241,-0.1905 z"
         id="path3701"
         inkscape:connector-curvature="0" />
      <path
         style="fill:#010102;stroke-width:0.08466666"
         d="m 84.5237,165.19387 c -1.590439,-2.68592 -1.692669,-2.85424 -1.75792,-2.89452 -0.0322,-0.0199 -0.706245,-0.0789 -1.497878,-0.13112 -6.281348,-0.41458 -12.127874,-1.54823 -17.907,-3.47217 -9.063458,-3.01735 -17.279247,-7.73704 -24.553333,-14.10505 -1.47135,-1.28807 -5.016651,-4.83337 -6.304727,-6.30473 -9.874547,-11.27955 -15.837061,-24.93833 -17.352633,-39.750995 -0.0667,-0.651934 -0.146143,-1.566334 -0.176533,-2.032 -0.03039,-0.465667 -0.07296,-0.910353 -0.09461,-0.988187 -0.02164,-0.07783 -1.123323,-0.782684 -2.448174,-1.566334 -1.32485,-0.783646 -2.409082,-1.444456 -2.409404,-1.468464 -3.22e-4,-0.02401 0.999539,-0.632861 2.221914,-1.353006 1.222375,-0.720146 2.301925,-1.387796 2.399,-1.483667 0.159802,-0.157821 0.181808,-0.308902 0.232608,-1.596964 0.03086,-0.782459 0.114684,-2.076365 0.186278,-2.875349 1.361492,-15.194148 7.351141,-29.169565 17.441553,-40.695695 1.288076,-1.471351 4.833377,-5.016651 6.304727,-6.304728 11.968319,-10.477519 26.61791,-16.546413 42.418,-17.572526 0.76835,-0.0499 1.45415,-0.108545 1.524,-0.130322 0.06985,-0.02178 0.75565,-1.105744 1.524,-2.408814 0.76835,-1.30307 1.416419,-2.369457 1.440153,-2.369747 0.02373,-2.88e-4 0.671434,1.065998 1.439334,2.36953 0.767898,1.303534 1.453329,2.387738 1.523179,2.409343 0.06985,0.02161 0.75565,0.08011 1.524,0.13001 12.068176,0.78375 23.499406,4.510453 33.623746,10.961703 2.88959,1.841249 6.11949,4.26923 8.79425,6.610823 1.47136,1.288077 5.01666,4.833377 6.30473,6.304728 9.96404,11.381774 15.95626,25.219178 17.39731,40.174333 0.13533,1.404482 0.25685,3.306974 0.25779,4.035908 8.5e-4,0.357083 0.0232,0.70752 0.0505,0.778749 0.0273,0.07123 1.13197,0.76967 2.45474,1.552091 1.32278,0.782422 2.40532,1.441914 2.40564,1.465539 0,0.02362 -1.08194,0.682475 -2.40505,1.464112 -1.32309,0.781635 -2.44233,1.467155 -2.4872,1.523382 -0.0449,0.05622 -0.10791,0.502268 -0.14011,0.991218 -0.36982,5.615819 -1.57559,11.691629 -3.42771,17.271999 -2.99782,9.0323 -7.68362,17.19765 -14.06598,24.511 -1.25417,1.43711 -4.89221,5.07685 -6.3447,6.34766 -7.28066,6.36998 -15.53603,11.11251 -24.55333,14.10535 -5.81804,1.931 -11.672933,3.06542 -17.906999,3.46958 -0.865158,0.0561 -1.479703,0.13295 -1.540527,0.19269 -0.05566,0.0547 -0.707317,1.12623 -1.448133,2.38126 -0.740816,1.25503 -1.387504,2.2954 -1.437085,2.31193 -0.04958,0.0165 -0.593387,-0.81982 -1.208457,-1.85855 z m 1.999458,-2.46009 c 0.368375,-0.61701 0.711814,-1.19803 0.763197,-1.29116 0.05138,-0.0931 0.219229,-0.37889 0.372993,-0.635 0.153763,-0.25612 1.067611,-1.79917 2.030779,-3.429 3.546085,-6.00058 5.083683,-8.5977 6.240661,-10.541 0.651527,-1.09432 1.692351,-2.84692 2.312958,-3.89467 0.620607,-1.04775 1.478957,-2.49555 1.907434,-3.21733 1.61389,-2.71859 3.76625,-6.35209 4.48101,-7.56465 0.45859,-0.77795 0.71085,-1.28708 0.66195,-1.33598 -0.0437,-0.0437 -0.60451,-0.0684 -1.2545,-0.0554 l -1.1755,0.0236 -8.56178,14.46502 c -4.708982,7.95578 -8.59061,14.47088 -8.625847,14.478 -0.03524,0.007 -3.919761,-6.50212 -8.632275,-14.46502 l -8.568207,-14.478 -1.132607,-0.0237 c -0.62434,-0.0131 -1.168095,0.0118 -1.211688,0.0554 -0.07748,0.0775 0.16922,0.51717 2.309975,4.11703 0.859913,1.44601 2.302235,3.87982 4.766647,8.04333 0.606389,1.02447 1.521653,2.56752 2.033919,3.429 0.512267,0.86149 1.224269,2.06164 1.582226,2.667 0.357957,0.60537 1.450591,2.45322 2.428077,4.10634 0.977486,1.65311 2.208028,3.72956 2.73454,4.61433 0.526511,0.88477 1.548361,2.60879 2.270776,3.83117 0.88141,1.4914 1.359866,2.2225 1.454486,2.2225 0.09076,0 0.379634,-0.3997 0.810776,-1.12184 z m 0.03641,-6.77371 c 0.395817,-0.66187 0.762313,-1.28021 0.814435,-1.3741 0.05212,-0.0939 0.581649,-0.98984 1.176722,-1.99102 0.59508,-1.00118 1.155785,-1.95368 1.246006,-2.11667 0.09023,-0.16298 0.308186,-0.52493 0.484352,-0.80433 0.176158,-0.2794 0.654592,-1.0795 1.063193,-1.778 0.408593,-0.6985 1.466309,-2.4892 2.350474,-3.97933 0.884166,-1.49014 1.932745,-3.26179 2.330179,-3.937 0.397425,-0.67522 0.807,-1.36102 0.91015,-1.524 0.103158,-0.16299 0.52208,-0.86784 0.930935,-1.56634 0.408856,-0.6985 1.14074,-1.93675 1.626413,-2.75166 0.485665,-0.81492 1.038993,-1.74837 1.229623,-2.07434 0.19062,-0.32596 0.62079,-1.04986 0.95594,-1.60866 0.33514,-0.5588 0.67203,-1.13983 0.74864,-1.29117 l 0.13929,-0.27517 h 2.87649 c 1.58207,0 2.87649,0.0241 2.87649,0.0535 0,0.0294 -0.0716,0.1723 -0.15916,0.3175 -0.0875,0.1452 -3.36977,5.69324 -7.29386,12.32899 -3.924096,6.63575 -7.529126,12.73067 -8.011184,13.54425 -0.48205,0.81359 -0.876461,1.54701 -0.876461,1.62983 0,0.19555 0.16002,0.19391 1.838266,-0.0189 15.673689,-1.98782 29.699089,-9.22697 40.434559,-20.87014 8.27916,-8.97917 13.90909,-20.21132 16.19002,-32.30033 0.29019,-1.53806 0.72623,-4.576715 0.66984,-4.66796 -0.0249,-0.04035 -0.0992,-0.07337 -0.16507,-0.07337 -0.0659,0 -6.26643,3.63688 -13.77908,8.08196 -7.51264,4.44507 -13.72448,8.10695 -13.80408,8.13749 -0.13504,0.0518 -0.14323,-0.13643 -0.12242,-2.81146 l 0.0223,-2.86699 0.85944,-0.46567 c 0.47269,-0.25612 1.90144,-1.09032 3.175,-1.85378 1.27356,-0.76347 3.15376,-1.88383 4.17822,-2.4897 1.02447,-0.60587 2.35797,-1.39578 2.96334,-1.75536 1.05063,-0.62404 4.25743,-2.52428 7.06966,-4.18924 2.20114,-1.303164 5.92229,-3.509544 6.77334,-4.016104 0.44238,-0.263314 1.34623,-0.800668 2.00855,-1.194117 0.90782,-0.539288 1.20435,-0.757041 1.20476,-0.884696 0,-0.127847 -0.29429,-0.345649 -1.20286,-0.889 -0.66187,-0.395816 -1.28021,-0.762312 -1.3741,-0.814435 -0.0939,-0.05212 -0.98984,-0.581648 -1.99102,-1.176723 -1.00118,-0.595076 -1.95368,-1.155779 -2.11667,-1.246007 -0.16298,-0.09023 -0.52493,-0.308184 -0.80433,-0.484345 -0.2794,-0.176162 -1.0795,-0.6546 -1.778,-1.063196 -0.6985,-0.408595 -2.4892,-1.466311 -3.97933,-2.350478 -1.49014,-0.884167 -3.26179,-1.932746 -3.937,-2.330175 -0.67522,-0.397428 -1.36102,-0.806436 -1.524,-0.908905 -0.16299,-0.10247 -0.52494,-0.31946 -0.80434,-0.4822 -0.58993,-0.343613 -4.98261,-2.942837 -5.54566,-3.28146 -0.20955,-0.126025 -1.01918,-0.603736 -1.79917,-1.061578 l -1.41817,-0.832441 v -2.872753 c 0,-2.612691 0.0124,-2.867991 0.13709,-2.820149 0.1167,0.04478 6.85844,4.025525 24.20151,14.290084 1.9541,1.156547 3.5924,2.088916 3.64066,2.071932 0.11891,-0.04185 0.0778,-1.354868 -0.0839,-2.680504 -1.62707,-13.337203 -7.04166,-25.48629 -15.86719,-35.602332 -1.14344,-1.310637 -3.98397,-4.193108 -5.33948,-5.41833 -10.23167,-9.248197 -22.88379,-15.001048 -36.506216,-16.599172 -1.306889,-0.15332 -1.564225,-0.134575 -1.471456,0.107183 0.03037,0.07916 3.70934,6.319862 8.175492,13.868237 4.46614,7.548374 8.14521,13.78935 8.17572,13.868836 0.0517,0.134763 -0.13813,0.143015 -2.81155,0.122217 l -2.86699,-0.02231 -0.46567,-0.859439 c -0.25611,-0.472692 -1.09032,-1.901442 -1.85378,-3.175 -0.763465,-1.273559 -1.883825,-3.153761 -2.4897,-4.178227 -0.605866,-1.024467 -1.395781,-2.357967 -1.755351,-2.963334 -0.624044,-1.05063 -2.524286,-4.257427 -4.189248,-7.069666 -1.303164,-2.201139 -3.509543,-5.922286 -4.016102,-6.773333 -0.263315,-0.442384 -0.800669,-1.345795 -1.194118,-2.00758 -0.707963,-1.190802 -0.821013,-1.331365 -0.98368,-1.223087 -0.072,0.04792 -1.010527,1.560282 -1.53199,2.468667 -0.09356,0.162983 -0.656343,1.115483 -1.250626,2.116666 -0.594283,1.001184 -1.154337,1.953684 -1.244565,2.116667 -0.09023,0.162983 -0.308185,0.524933 -0.484345,0.804333 -0.176162,0.2794 -0.6546,1.0795 -1.063196,1.778 -0.408595,0.6985 -1.466311,2.4892 -2.350478,3.979333 -0.884167,1.490134 -1.932746,3.261784 -2.330175,3.937 -0.397428,0.675217 -0.806436,1.361017 -0.908906,1.524 -0.102469,0.162984 -0.319459,0.524934 -0.482199,0.804334 -0.343613,0.589931 -2.942837,4.982619 -3.28146,5.545666 -0.126025,0.20955 -0.603736,1.019175 -1.061579,1.799167 l -0.832441,1.418166 h -2.872752 c -2.590888,0 -2.867686,-0.01321 -2.821102,-0.134602 0.02841,-0.07403 0.922774,-1.607556 1.987476,-3.407833 1.064704,-1.800277 4.697017,-7.940481 8.071807,-13.644897 3.37479,-5.704417 6.183732,-10.461482 6.242092,-10.571257 0.195225,-0.367211 0.0373,-0.394498 -1.355082,-0.23414 -13.596898,1.565932 -26.325269,7.345551 -36.569827,16.6054 -1.355515,1.225222 -4.196036,4.107693 -5.339475,5.41833 -6.897745,7.906359 -11.746605,17.119327 -14.304001,27.177999 -0.835327,3.285486 -1.559267,7.553037 -1.743571,10.278179 l -0.05953,0.880181 0.211096,-0.04035 c 0.116102,-0.02219 6.401059,-3.702767 13.966571,-8.17905 7.565512,-4.476283 13.82051,-8.163653 13.899996,-8.194155 0.134762,-0.05171 0.143015,0.138127 0.122216,2.811537 l -0.0223,2.866995 -0.85944,0.465667 c -0.472691,0.256117 -1.901441,1.090319 -3.175,1.853783 -1.273558,0.763463 -3.15376,1.883829 -4.178227,2.4897 -1.024467,0.605871 -2.357967,1.395779 -2.963333,1.75535 -1.050631,0.624046 -4.257428,2.524287 -7.069667,4.189251 -2.201138,1.303167 -5.922286,3.50954 -6.773333,4.016102 -0.442383,0.263315 -1.345794,0.800669 -2.007579,1.194118 -1.190802,0.707963 -1.331365,0.821013 -1.223087,0.98368 0.04792,0.072 1.560282,1.01053 2.468666,1.531992 0.162983,0.09356 1.115483,0.656344 2.116667,1.250628 1.001183,0.594276 1.953683,1.154337 2.116666,1.244558 0.162984,0.09023 0.524934,0.308187 0.804334,0.484352 0.2794,0.176158 1.0795,0.654592 1.778,1.063194 0.6985,0.408593 2.4892,1.466308 3.979333,2.350476 1.490133,0.88416 3.261783,1.93274 3.937,2.33018 0.675216,0.39742 1.361016,0.80643 1.524,0.9089 0.162983,0.10247 0.524933,0.31946 0.804333,0.4822 0.589931,0.34361 4.98262,2.94284 5.545667,3.28146 0.20955,0.12602 1.019175,0.60373 1.799166,1.06158 l 1.418167,0.83244 v 2.87275 c 0,2.59089 -0.01321,2.86768 -0.134602,2.8211 -0.141686,-0.0544 -0.563033,-0.30295 -17.095064,-10.08578 -5.7277,-3.38937 -10.476375,-6.179048 -10.552611,-6.199292 -0.07624,-0.02024 -0.16256,0.0019 -0.191831,0.0493 -0.06509,0.105326 0.296733,2.713052 0.624468,4.500642 2.22418,12.1315 7.902504,23.51823 16.234149,32.55433 7.358968,7.98118 16.190634,13.85702 26.323502,17.51344 4.483266,1.61778 9.099413,2.71546 14.11106,3.35551 1.766279,0.22558 1.868253,0.22435 1.821156,-0.022 -0.02027,-0.10601 -1.27593,-2.28724 -2.790366,-4.84717 -1.514436,-2.55993 -5.16266,-8.72569 -8.107166,-13.70167 -2.944505,-4.97598 -5.374204,-9.10082 -5.399332,-9.16631 -0.0388,-0.10111 0.385368,-0.11569 2.81517,-0.0967 l 2.860857,0.0223 0.387138,0.72367 c 0.212926,0.39802 0.564123,1.00762 0.780437,1.35467 0.385943,0.61919 1.387709,2.30078 3.629157,6.09199 0.619453,1.04775 1.420473,2.4003 1.780044,3.00567 0.624045,1.05063 2.524287,4.25743 4.189251,7.06966 1.303167,2.20114 3.50954,5.92229 4.016102,6.77334 0.263315,0.44238 0.800669,1.34623 1.194118,2.00855 0.539288,0.90782 0.757041,1.20435 0.884696,1.20476 0.127847,0 0.345649,-0.29429 0.888999,-1.20286 z m -1.784283,-9.60929 c -0.900678,-1.52922 -6.622587,-11.20211 -8.678669,-14.67128 -0.759872,-1.28211 -1.406691,-2.39653 -1.437375,-2.4765 -0.05255,-0.13694 0.584383,-0.14538 10.968994,-0.14538 10.039104,0 11.020171,0.012 10.973164,0.13452 -0.04522,0.11784 -1.628555,2.80287 -9.194654,15.59231 -0.943531,1.59491 -1.744884,2.89983 -1.780785,2.89983 -0.0359,0 -0.418704,-0.60007 -0.850675,-1.3335 z M 39.061569,97.640341 C 28.023924,91.263689 28.816903,91.727276 28.816903,91.651143 c 0,-0.0707 18.658584,-10.599525 18.783866,-10.599525 0.04403,0 0.101454,1.988094 0.135106,4.677834 0.143875,11.499824 0.188489,16.873628 0.140488,16.921628 -0.02849,0.0285 -3.995144,-2.22634 -8.814794,-5.010739 z m 83.781691,0.323444 c -0.12456,-9.956223 -0.18966,-16.872276 -0.15932,-16.927971 0.0174,-0.03198 0.87863,0.430916 1.91381,1.028649 1.03518,0.597732 5.30886,3.064926 9.49705,5.482652 4.18818,2.417727 7.62712,4.432547 7.64206,4.477377 0.0257,0.07715 -18.59647,10.617128 -18.75849,10.617128 -0.044,0 -0.10146,-1.98809 -0.13511,-4.677835 z M 74.316407,53.993094 c 0.04522,-0.117839 1.628557,-2.802865 9.194652,-15.592308 0.94353,-1.594908 1.744883,-2.899833 1.780785,-2.899833 0.0359,0 0.418704,0.600075 0.850674,1.3335 0.900679,1.529225 6.622592,11.202108 8.678671,14.671282 0.759875,1.282114 1.406686,2.396539 1.437378,2.4765 0.05254,0.136942 -0.584386,0.145384 -10.968998,0.145384 -10.039104,0 -11.020169,-0.01203 -10.973162,-0.134525 z M 46.385236,110.85049 v -1.21735 L 31.920211,101.07122 C 23.964448,96.362162 17.45944,92.474493 17.464637,92.431957 c 0.0052,-0.04254 6.514458,-3.927059 14.465025,-8.632274 l 14.455574,-8.554936 0.02372,-1.132607 c 0.01308,-0.62434 -0.01176,-1.168095 -0.05536,-1.211688 -0.07748,-0.07748 -0.517178,0.169221 -4.117034,2.309975 -1.446014,0.859913 -3.879816,2.302235 -8.043333,4.766648 -1.024466,0.606388 -2.567516,1.521652 -3.429,2.033918 -0.861483,0.512267 -2.061633,1.224269 -2.667,1.582226 -0.605366,0.357957 -2.453216,1.450592 -4.106333,2.428077 -1.653117,0.977486 -3.729567,2.208029 -4.614333,2.73454 -0.884767,0.526512 -2.608792,1.548361 -3.831167,2.270776 -1.491404,0.881411 -2.2225,1.359866 -2.2225,1.454486 0,0.117063 1.24909,0.93183 2.413,1.573974 0.09313,0.05138 0.378884,0.219227 0.635,0.37299 0.256117,0.153763 1.799167,1.067613 3.429,2.030781 6.000575,3.546087 8.597698,5.083687 10.541,6.240657 1.094317,0.65153 2.846917,1.69236 3.894667,2.31296 1.04775,0.62061 2.495549,1.47896 3.217333,1.90744 0.721783,0.42849 2.436283,1.44525 3.81,2.25947 1.373716,0.81422 3.050116,1.80825 3.725333,2.20896 0.675217,0.4007 1.265767,0.71752 1.312333,0.70403 0.05138,-0.0149 0.08467,-0.50309 0.08467,-1.24187 z m 80.122544,0.5412 c 0.68317,-0.40292 1.92792,-1.14042 2.76612,-1.63889 1.44601,-0.8599 3.87982,-2.30223 8.04333,-4.76664 1.02447,-0.60639 2.56752,-1.52165 3.429,-2.03392 0.86149,-0.51226 2.06164,-1.22427 2.667,-1.58222 0.60537,-0.35796 2.45322,-1.450596 4.10634,-2.428081 1.65311,-0.977486 3.72956,-2.208031 4.61433,-2.734539 0.88477,-0.526508 2.60879,-1.548359 3.83117,-2.270777 1.4914,-0.881409 2.2225,-1.359865 2.2225,-1.454485 0,-0.117063 -1.24909,-0.93183 -2.413,-1.573973 -0.0931,-0.05138 -0.37889,-0.219229 -0.635,-0.372993 -0.25612,-0.153763 -1.79917,-1.067613 -3.429,-2.030776 -6.00057,-3.546088 -8.5977,-5.083682 -10.541,-6.240664 -1.09432,-0.651523 -2.84692,-1.692355 -3.89467,-2.31296 -1.04775,-0.620604 -2.49555,-1.478951 -3.21733,-1.907437 -2.71859,-1.613889 -6.35209,-3.766239 -7.56465,-4.481007 -0.77795,-0.458586 -1.28708,-0.710848 -1.33598,-0.66195 -0.0437,0.04369 -0.0684,0.604513 -0.0554,1.254504 l 0.0236,1.175496 14.45265,8.554454 c 7.94895,4.704949 14.45396,8.592553 14.45558,8.639119 0.002,0.04657 -6.50208,3.934384 -14.45265,8.639589 l -14.45558,8.55493 -0.0238,1.0926 c -0.0229,1.04823 0,1.31321 0.11255,1.31321 0.0284,0 0.61065,-0.32966 1.29381,-0.73259 z M 77.123436,37.588261 c 4.708983,-7.955763 8.590618,-14.470863 8.625855,-14.478 0.03524,-0.0071 3.919762,6.502125 8.632275,14.465025 l 8.568204,14.478 1.13261,0.02372 c 0.62434,0.01308 1.16809,-0.01176 1.21169,-0.05536 0.0775,-0.07748 -0.16923,-0.517177 -2.30998,-4.117033 -0.85991,-1.446014 -2.30223,-3.879816 -4.766641,-8.043333 -0.606392,-1.024467 -1.521655,-2.567517 -2.033922,-3.429 -0.512267,-0.861483 -1.224272,-2.061633 -1.582226,-2.667 -0.357953,-0.605367 -1.450594,-2.453217 -2.428079,-4.106333 -0.977485,-1.653117 -2.20803,-3.729567 -2.734538,-4.614334 -0.526508,-0.884766 -1.548361,-2.608791 -2.270776,-3.831166 -0.881411,-1.491404 -1.359866,-2.2225 -1.454486,-2.2225 -0.117063,0 -0.931831,1.24909 -1.573973,2.413 -0.05138,0.09313 -0.219229,0.378883 -0.372993,0.635 -0.153763,0.256116 -1.067613,1.799166 -2.030776,3.429 -3.546088,6.000574 -5.083682,8.597698 -6.240665,10.541 -0.651522,1.094316 -1.692354,2.846916 -2.312959,3.894666 -0.620604,1.04775 -1.478951,2.49555 -1.907438,3.217333 -1.612926,2.716968 -3.765949,6.351603 -4.47669,7.557346 -0.405152,0.687323 -0.712693,1.288427 -0.683424,1.335785 0.03315,0.05364 0.504521,0.07726 1.25018,0.06265 l 1.196963,-0.02345 z"
         id="path3699"
         inkscape:connector-curvature="0" />
    </g>
  </g>
</svg>
